/* XPM */
static char *result[] = {
/* columns rows colors chars-per-pixel */
"38 32 201 2 ",
"   c #0E100E",
".  c #151512",
"X  c #251E14",
"o  c #1F2316",
"O  c #39370D",
"+  c #292819",
"@  c #3A3918",
"#  c #2B2B2C",
"$  c #34312A",
"%  c #373630",
"&  c #433D27",
"*  c #3B4528",
"=  c #3A513E",
"-  c #48461D",
";  c #706B17",
":  c #49472A",
">  c #584E2C",
",  c #49562B",
"<  c #555225",
"1  c #565627",
"2  c #55542C",
"3  c #525D2D",
"4  c #495634",
"5  c #595C35",
"6  c #725D2F",
"7  c #6E5932",
"8  c #755033",
"9  c #765533",
"0  c #745A34",
"q  c #7B5836",
"w  c #54632B",
"e  c #5A6728",
"r  c #5C6B2C",
"t  c #5C7129",
"y  c #5A6533",
"u  c #666628",
"i  c #636D2E",
"p  c #687629",
"a  c #69792A",
"s  c #766435",
"d  c #6A7233",
"f  c #717C31",
"g  c #797C34",
"h  c #475848",
"j  c #5A5749",
"k  c #605C4D",
"l  c #785D4B",
"z  c #486355",
"x  c #5B6A57",
"c  c #736D4B",
"v  c #656654",
"b  c #74685E",
"n  c #566F62",
"m  c #5F776E",
"M  c #696D62",
"N  c #6E736B",
"B  c #637973",
"V  c #637974",
"C  c #837E1C",
"Z  c #864B35",
"A  c #914C36",
"S  c #914F39",
"D  c #835337",
"F  c #895234",
"G  c #865938",
"H  c #935532",
"J  c #9B5534",
"K  c #945935",
"L  c #985739",
"P  c #B44B3A",
"I  c #B54F3B",
"U  c #BC4D3A",
"Y  c #A65433",
"T  c #AB5335",
"R  c #A6533B",
"E  c #AD543D",
"W  c #A65D3A",
"Q  c #B25236",
"!  c #B55139",
"~  c #BB513A",
"^  c #B95E3E",
"/  c #8E662F",
"(  c #86722B",
")  c #8E762C",
"_  c #93712E",
"`  c #856435",
"'  c #986633",
"]  c #867935",
"[  c #9D7235",
"{  c #937B30",
"}  c #AE6F36",
"|  c #A17B34",
" . c #CF473F",
".. c #C44E3C",
"X. c #CB4C3E",
"o. c #D14C3F",
"O. c #C1503C",
"+. c #C0583F",
"@. c #ED3E47",
"#. c #ED3F49",
"$. c #F03F49",
"%. c #B74C40",
"&. c #A85749",
"*. c #B25241",
"=. c #BC5040",
"-. c #866252",
";. c #C24A40",
":. c #CD4E40",
">. c #D34642",
",. c #DC4544",
"<. c #D44A42",
"1. c #D84943",
"2. c #C95141",
"3. c #E34346",
"4. c #E94046",
"5. c #E24248",
"6. c #EA4048",
"7. c #778428",
"8. c #78822C",
"9. c #7A8431",
"0. c #7A8B64",
"q. c #66857D",
"w. c #6B8B7D",
"e. c #768F71",
"r. c #6F907F",
"t. c #76927A",
"y. c #88862A",
"u. c #838B2F",
"i. c #948F2B",
"p. c #9E9924",
"a. c #96982E",
"s. c #8A8938",
"d. c #978635",
"f. c #8A9136",
"g. c #9C9B38",
"h. c #A4882E",
"j. c #B3872F",
"k. c #A39C27",
"l. c #A08C30",
"z. c #B28631",
"x. c #AAA62B",
"c. c #ABA42D",
"v. c #B2AE2E",
"b. c #B4B32E",
"n. c #BCB72B",
"m. c #ADAB32",
"M. c #A7A838",
"N. c #B4B232",
"B. c #BABA31",
"V. c #C6BF38",
"C. c #C9C52C",
"Z. c #CDCA2F",
"A. c #D3CB2F",
"S. c #DAD42E",
"D. c #CAC335",
"F. c #CDC933",
"G. c #D3CB32",
"H. c #DCD538",
"J. c #E1DB2E",
"K. c #E3DC31",
"L. c #E8DE34",
"P. c #E2D939",
"I. c #EFEB2E",
"U. c #F9F32E",
"Y. c #EBE534",
"T. c #EDE435",
"R. c #ECE53D",
"E. c #F2E634",
"W. c #F4EC33",
"Q. c #F9EE34",
"!. c #F1E638",
"~. c #F2EC3B",
"^. c #FCEF3A",
"/. c #F7F133",
"(. c #FBF234",
"). c #F5F03B",
"_. c #FBF139",
"`. c #968E4F",
"'. c #98924A",
"]. c #858F57",
"[. c #938D50",
"{. c #B2B04C",
"}. c #ACA257",
"|. c #8B9F70",
" X c #96AD6C",
".X c #99AA6A",
"XX c #A3AE65",
"oX c #C2BE43",
"OX c #C7BF48",
"+X c #B6C15C",
"@X c #D5CB48",
"#X c #DBD947",
"$X c #D3D64F",
"%X c #C5CB56",
"&X c #E2D841",
"*X c #ECE941",
"=X c #6F8786",
"-X c #668882",
";X c #6A8B85",
":X c #6D8D89",
">X c #73928E",
/* pixels */
"Q T Y Y T ~ ..~ Q ! ! ! ..:.:.:.O.~ ~ ! T Q O.2.X.~ Q Y Y Y Y Y Y Y Y Y Y Q ",
"Y Y Y Y Y T ! ~ ~ O.~ ~ X.:.<.:.O.T Q ! T Q O.X.~ Q Y Y Y Y Y Y Y Y Y Y Y T ",
"Y Y Y Y Y Y Y Q Q ~ ..:.<.:.! E I I T ! Y J R E T Y Y Y Y Y Y Y Y Y Y Y Q ~ ",
"Y Y Y Y Y Y Y Y T ~ ..;.%.L 9 0 D S F F 9 7 7 q G D J Y Y Y Y Y Y Y ~ ~ ~ ..",
"Y Y Y Y Y T T Q U U *.S 0 y y w 5 : & : , 1 r y y 5 9 / Y Y Y Y Q ~ O.O...o.",
"Y Y Y Q U X.U  .<.=.q y i 8.9.8.w * o + - t f 8.a t r 6 K Y Y Q O.....o.o.X.",
"Y T U  .>.,.3.3.=.s d 8.9.9.8.a w * $ X @ 5 i p 7.7.a i 6 H Y Y Q O.O.O...O.",
"Y Y U >.#.#.#.U ` f 9.7.7.a r 3 4 4 1 < 4 4 4 , 3 e e 1 , 7 Y Y T T T Q Q Q ",
"Q Y P ..X. .>.Z u a a t w 3 , 4 y 9.c.{.].M h = , 2 > > > 9 J Y T Y Y Y Y T ",
"Q T Y T P U >.8 2 1 u 2 , 2 5 d f.B.H.#X+X0.n z j q A A A H Y Y T T T W T Q ",
"P T Y Y T ..#.P Z Z S 9 5 d u.m.D.Y.(.).$XXXe.B M -.&.*.T Y T T Q ~ ~ ^ ~ O.",
"P T Y Y T P >.,.>.,.:.| y.m.G.L.W./.(.(.R.%X Xt.q.V N -.L T Q U O.X.X.X.X.o.",
"O.Q Y Y T T ! U ;.;.} c.A.L.~./.(.^.^./._.*X%X X;X:X=XB -.! ..:.o.:.2.:.o.X.",
"! ! T Q Q Y Y Q ~ R d.C.E.^._./././.Q.U.(.).#X Xr.;X:XV b &.:.:.2.2.:.o.O.O.",
"T ! Q Q Q Y Y Y R [ m.K.W.U.Q.Q.(.(./.U.(.).$X.Xw.;X:X:XV l =.:.o.X.X.X.X.O.",
"Y Q ~ ~ Q Y Y T ' l.V.E.W.I.W.(._._.(.(.(.*X%X|.w.-X:X>X;XM &.O.X.X.X.o.o.o.",
"Y T Q ~ ! Y Y W _ x.P.(.W.I.I.W.E.T.W.(.(.R.%X Xw.w.-X:X:XV l =.X.2.:.2.o.o.",
"Y Y T Q ! Y ! Y ) N.T.(.U.W.E.S.n.n.H.^.^.!.#X+X.X0.x V =XV k *.X.X.:.o.X.O.",
"Y Y Y Q ! Q ~ Y ) b.E.(.(.Q.S.p.; u B.*XE.E.R.&XB.g * h m m j *.X.X.X...~ Q ",
"Y Y Y Q O.~ Q J ( b.E._.U.W.A.; O - g.#XE.E.E.L.D.; O * k x j &.~ ! Q T T T ",
"Y Y Y Q ~ O.T H ( b.T.(.(.Q.J.x.C ) m.H.H.&X&XP.G.k.C y.s.9.y L T Y Y Q U ..",
"Y Y Y T ~ ~ Q J ( m.Y.(._._.E.J.A.Z.D.oX{.}.}.{.oXD.A.G.N.-.c R T Q U  .3.3.",
"T Y Y Y ! O.! Y / i.C.U._._.(.U.U.E.V.d.c v v c s.V.!.T.N.y.G I Y U  .4.@.@.",
"Q Q T T T O.~ T J ) v.Y.(.(._.(.(.T.c.< % # # $ < c.L.G.a.s J T T !  . .3.4.",
"X.O.~ Q T ! O.! Q ' l.F.W.(._.(._.L.k.@ .     . @ k.H.b.] G Y Y T ! O.X.,.3.",
"X.o.X.~ T Q O.X.2.=.| v.Y./._.(.(.!.c.2 % $ $ $ > k.B.a.( R ! Q O.O.X.<.3.@.",
"X.X.+.U ....o.1.6.3.2.d.b.S.E.(.(.E.D.g.'.[.`.`.'.M.a.{ W O.X.X.2.<.1.3.4.4.",
"X.o.X.o.,.,.3.3.6.6.1.*.d.a.N.F.J.E.T.H.#X@X@XOXm.f.] &.O.<.<.<.<.:.1.3.3.3.",
"P .. .,.3.@.@.4.#.#.#.,.*.' { i.k.B.Z.F.F.F.B.M.u.] *.1.3.3.3.3.,.o.o.<.1.o.",
"T Q  .>. .3.#.#.#.#.#.#.5.:.~ L ' [ z.z.z.j.h._ G E ,.@.3.3.3.3.o.O.X.X.o.X.",
"Y Y Q Q P  .3.#.#.#.#.$.6.$.#.5.>.:.X.X.X.X...;.=.,.3. . ...<.<...P ..X.1.1.",
"Y Y Y Y T ..3.3.6.#.#.6.#.$.#.#.#.6.6.4.4.#.3.,.,.3.X.P Y T ! Q T T U ,.3.3."
};
