/* XPM */
static char *_db7b08b611b471ca930ee3f5ca53470nSHbx1n57Fn59uO3[] = {
/* columns rows colors chars-per-pixel */
"40 40 6 1 ",
"  c #618747",
". c #46563C",
"X c #A1BA91",
"o c #262209",
"O c #493848",
"+ c white",
/* pixels */
"      .X      .X      .X       .X      .",
"  . ...  . . ..   . ...  . .. ..   . ...",
" . .... . . ...  . .... . .  ...  . ....",
"....... ....... ....... ........ .......",
"oooooooooooooooooooooooooooooooooooooooo",
"OOOOOOOOOOOOOOOOOOOOOOOOOOOOOOOOOOOOOOOO",
"O...............O................O......",
"O              .O               .O      ",
".X              .X               .X     ",
".X      . . . . .X      . .  . . .X     ",
".  . . . . ... ..  . . . . .... ..  . . ",
". ... ........... ... ............ ... .",
". ............... ................ .....",
"...OOOOOOO.........OOOOOOO..........OOOO",
"      OXXXXX X X      OXXXXXX X X      O",
"      OX              OX               O",
"      .X              .X               .",
"   .  .        .   .  .         .   .  .",
". . . . . . . . . . . . . .  . . . . . .",
".. ....  ... . ... ....  .... . ... ....",
"....... ............... ................",
"OOOOO.........OOOOOOO..........OOOOOOO..",
"OXXXX X X       OXXXX X X        OXXXX X",
"OX              OX               OX     ",
".X              .X               .X     ",
".X      . . . . .X      . .  . . .X     ",
".  . . . . ... ..  . . . . .... ..  . . ",
". ... ........... ... ............ ... .",
". ............... ............... ......",
"...OOOOOOO.........OOOOOOO.........OOOOO",
"      OXXXXX X X      OXXXXX X X      OX",
"     .OX             .OX             .OX",
".   . .X    .   .   . .X    .   .   . .X",
".. . .. . .. . ... . .. . .. . ... . .. ",
"......O  .............O  .............O ",
"O.O..OO ......O.O.O..OO ......O.O.O..OO ",
"OO.OOOO .O.O.O.OOO.OOOO .O.O.O.OOO.OOOO ",
"OOOOOOOOOOOOOOOOOOOOOOOOOOOOOOOOOOOOOOOO",
"X XX X X   XX X X XX X X   XX X X XX X X",
"oooooooooooooooooooooooooooooooooooooooo"
};
