/* XPM */
static char *p0[] = {
/* columns rows colors chars-per-pixel */
"64 64 191 2 ",
"   c #121212",
".  c #271802",
"X  c #351F02",
"o  c #3D2302",
"O  c #050839",
"+  c #1D1039",
"@  c #0D2B3B",
"#  c #153C37",
"$  c #11343B",
"%  c #333B2C",
"&  c #543703",
"*  c #4E3037",
"=  c #1B452D",
"-  c #1F4C32",
";  c #2F522A",
":  c #235937",
">  c #396E3B",
",  c #2D713E",
"<  c #574414",
"1  c #684404",
"2  c #734A05",
"3  c #694713",
"4  c #774D1A",
"5  c #464B3B",
"6  c #594832",
"7  c #664225",
"8  c #664821",
"9  c #7A512B",
"0  c #52602E",
"q  c #0B075E",
"w  c #163A5B",
"e  c #0D0963",
"r  c #120D7B",
"t  c #122E65",
"y  c #133165",
"u  c #4D3140",
"i  c #1E494A",
"p  c #214E4B",
"a  c #255749",
"s  c #275A4B",
"d  c #26595D",
"f  c #296444",
"g  c #2F6C49",
"h  c #2F7547",
"j  c #337D45",
"k  c #33754F",
"l  c #387948",
"z  c #2C6553",
"x  c #2E6956",
"c  c #306C57",
"v  c #316E59",
"b  c #367C54",
"n  c #1B496B",
"m  c #2C4D6E",
"M  c #26596A",
"N  c #2E6A6F",
"B  c #415943",
"V  c #6B536E",
"C  c #53617B",
"Z  c #865402",
"A  c #8A5601",
"S  c #8E5E03",
"D  c #955E02",
"F  c #9B6503",
"G  c #9C6803",
"H  c #96691A",
"J  c #A56902",
"K  c #AC7507",
"L  c #B37102",
"P  c #BA7602",
"I  c #BA7C04",
"U  c #B77B09",
"Y  c #A76B19",
"T  c #B67618",
"R  c #8B5731",
"E  c #925C30",
"W  c #A86B26",
"Q  c #B97626",
"!  c #BC7827",
"~  c #A47230",
"^  c #E44D1F",
"/  c #C67E03",
"(  c #C87F03",
")  c #D17519",
"_  c #C17B26",
"`  c #B82844",
"'  c #8D5E43",
"]  c #80685D",
"[  c #B67949",
"{  c #885B69",
"}  c #9E6569",
"|  c #B87468",
" . c #B57C6D",
".. c #A66973",
"X. c #D56E53",
"o. c #C27B63",
"O. c #37844A",
"+. c #38874C",
"@. c #38884C",
"#. c #6C8643",
"$. c #C78103",
"%. c #CC8303",
"&. c #C3850B",
"*. c #C9870D",
"=. c #D58A03",
"-. c #DD8E03",
";. c #D28C0E",
":. c #E49303",
">. c #EA9603",
",. c #EE9903",
"<. c #E09409",
"1. c #F39D04",
"2. c #F89F04",
"3. c #EE9A12",
"4. c #FA9F14",
"5. c #FCA203",
"6. c #FBA10C",
"7. c #C98124",
"8. c #D38720",
"9. c #F69C24",
"0. c #FAA128",
"q. c #F9AC2D",
"w. c #F5B03A",
"e. c #BB8176",
"r. c #E99752",
"t. c #CEAC4B",
"y. c #C2836F",
"u. c #E6996F",
"i. c #E99C70",
"p. c #EFC659",
"a. c #DCD16C",
"s. c #E3DD75",
"d. c #0F0A80",
"f. c #100A84",
"g. c #150F8E",
"h. c #16108D",
"j. c #150E97",
"k. c #171093",
"l. c #181199",
"z. c #193B80",
"x. c #1B3F88",
"c. c #36289A",
"v. c #170FA3",
"b. c #1B14A3",
"n. c #1D15AD",
"m. c #5F3B89",
"M. c #1F5382",
"N. c #215881",
"B. c #2A6B94",
"V. c #2456A5",
"C. c #3078AB",
"Z. c #3178BA",
"A. c #46458C",
"S. c #524F90",
"D. c #727080",
"F. c #62759A",
"G. c #577EAF",
"H. c #6867B1",
"J. c #295CC3",
"K. c #2E65D1",
"L. c #3776F5",
"P. c #397AF7",
"I. c #B765BA",
"U. c #F87BA4",
"Y. c #3685BD",
"T. c #3985BC",
"R. c #3889C6",
"E. c #3A86D9",
"W. c #3F99D9",
"Q. c #3F96E8",
"!. c #3B83F7",
"~. c #3E8BF7",
"^. c #419DDF",
"/. c #4A92E5",
"(. c #4093F7",
"). c #439CF6",
"_. c #619BEF",
"`. c #45A5EA",
"'. c #46A4F7",
"]. c #47A9F7",
"[. c #49AFF7",
"{. c #909090",
"}. c #BC828D",
"|. c #A6A082",
" X c #D2979C",
".X c #C191B0",
"XX c #F78EBB",
"oX c #A790CA",
"OX c #ABAACC",
"+X c #C589C3",
"@X c #B7C6DF",
/* pixels */
"b b b b b b b s @ s b b v v v +.O.c ; o > O.@.@.@.@.@.O.X X b b b b b b b b b b b b b b v v b v b b b b b v v v v v v v v v v v ",
"b k t t k d y R.[.R.y d z z z x n w G 6.T 3 j @.@.@.j < -.-.= b b b b b b b b b b b b b b v v v b b v b b v v v v v v v v v v v ",
"d N.L.L.z.K.P.].[.[.~.K.z.z.N.C.[.^.G q.p.w.Z #.j g 1 =.-.-.= b b b b b b b b b b b b b b v v v v v v v v v v v v v v v v v v v ",
"N.[.~.!.P.P.P.~.[.[.[.P.L.P.].[.[.^.G q.s.s.q.=.2 2 $.=.-.-.= b b b b b b b b b b b b b v v v v v v v v v v v v v v v v v v v v ",
"N `.[.).(.!.P.P.).[.[.~.P.~.[.[.[.^.G q.s.p.w.5.-.-.-.-.=.-.= b b b b v v b b b b b b b b v v v v v v v v v v v v v v v v v v v ",
"k B.[.[.[.'.).~.P.[.[.).P.~.[.[.[.Z.V  .|.| | | | 4.5.o.{ } w m b b v v v v b b b b b b b v v v v v v v v v v v v v v v v v v v ",
"v s Z.[.[.[.[.'.P.).[.].P.~.[.[.[.k.b.b.b.b.b.b.b.....c.l.l.j.d.b v v v v b b b b b b v v v v v v v v v v v v v v v v v v v v v ",
"v v d W.[.[.[.[.'.!.[.[.!.~.[.[.[.E.l.n.n.n.h.e h.b.b.v.q j.v.f.b v v v v b b b b v b v v v v v v v v v v v v v v v v v v v v v ",
"v v c M [.[.[.M.M.J.!.[.'.P.].[.[.n ' l.b.n.r   OXn.n.v.{.H.l.M b v v v v b b b b v v v v v v v v v v v v v v v v v v v v v v v ",
"v v v x w R.m 3.3.[ L.(.[.P.P.[.[.& &.[ b.n.r   A.k.k.v.% c.r z b b v v v v b b v v v v v v v v v v v v v v v v v v v v v v v v ",
"v v v v v i 6.5.5.5.u P.].[.!.~.N.I &.5...k.g.g.g.9.6.m.g.g.*.1 v b v v v v b v v v v v v v v v v v v v v v v v v v v v v v b b ",
"v v v v x 7 5.5.1.5.5.V.P.].[.).x.I &.5.5.5.5.U s.s.t.s.=.5.*.1 v b b v v v b v v v v v v v v v v v v v v v v v v v b b v b b b ",
"v v v v x 7 5.5.4 1.5.F.[.!.^.S.V.K &.1.5.5.5.*.a.a.t.a.-.1.&.8 v v b v v v b v v v v v v v v v v v v v v v v v v b b b v b b b ",
"v v v v x 6 :.:.+ ) 5.7.`.`.V e._.C U &.<.1.5.5.%.%.>.%.2.;.H z v v b b v v b v v v v v v v v v v v v v v v b b v b b b b b b b ",
"v v v v v s 8 3 O Q 5.W Y.G.T :..XQ.] I &.*.>.>.>.>.>.>.-.K a v v v v b v b b v v v v v v v v v v v v v v v b b b b b b b b b b ",
"v v v v v v i : O $.5.# : 9 / 5.5.oXR.S S S S S S S S S S 5 v v v v v b v b v v v v v v v v v v v v v v v v v b b b b b b b b b ",
"v v v v @.@.v h 7 $.Q h f W :.5.5.r./.Y.Y.Y.Y.T.S S D.Y.Z.N v v v v v b b b v v v v v v v v v v v v v v v v v b b v b v b b b v ",
"v v v v @.@.@.f Z >.* @.$ / 1.5.5.>.}.(.[.[.[.[.}.^ @X(.E.N v v v v b b b v v v v v v v v v v v v v v v v v v v v v v v b b v v ",
"v v v v v @.O.~ :.8.l @.$ / 1.5.5.>.-. X~.~.~.~.I.U.+X Xm v v v v b b b v v v v v v v v v v v v v v v v v v v v v v v v v v v v ",
"v v v v v @.O.! 5._ O.@.$ / 1.5.5.>.-.0.i.u.y.i.X.XXX.0.- v b b b b b v v v v v v v v v v v v v v v v v v v v v v v v v v v v v ",
"b v v v v v v ! 5._ O.@.$ / 1.5.5.>.-.5.5.F :.5.) ` ) 5.- b b b b b v v v v v v v v v v v v v v v v v v v v v v v v v v v v v v ",
"b v v v v v v ! 5._ O.@.$ / 1.5.5.1.F 5.5.D 5.5.:.%.%.5.- b b v v v v v v b b v v v v b v b b v v v v v v v v v v v v v v v v v ",
"b v v v v v v 6 5.7.l @.$ / ,.5.5.5.=.J I %.5.5.5.5.%.J : b v v v v v v b b b v b b v b b b b v v v v v v v v v b b v v v v b v ",
"b v v v v v v p >.5.R j @ / / 1.5.5.:.%./ =.5.5.5.5.P % b b v v v b b v b b b b b b b b b b v v v v v v v v v b b b v b b v b b ",
"b v v v v v v s 4 ,.5.E E T / =.,.5.5.5.5.5.5.5.5.5.P k b v v v v b b b b b b b b b b b b b b v v v v v b b v b b b b b b b b b ",
"b v v v v v v v i Y 5.5.5.9 / / / >.>.5.5.5.5.5.5.>.9 b b v v v v v b b b b b b b b b b b b b v v v v b b b b b b b b b b b b b ",
"b b v v v v v v v 5 Q ! ! 2 / / / / / :.:.:.:.:.:.( : b b b v v v v b b v b v b b b v b b v v v b b v b b b b b b b b b b b b b ",
"v b v v v v b v v z a a a 6 P / / Z Z Z Z A / / / A g b b b v v v v v v v v v b b v v v v v v v b b b b b b b b b b b b b b b b ",
"v b b v v v b v v v v v v s L / D s f , , > J / J > b b b b v v v v v v v v v v v v v v v v v v b b b b b b b b b b b b b b v v ",
"v v b b v v b v v v v v v s L L B v b @.@.O.D / 0 +.b b b b v v v v v v v v v v v v v v v v v v v b b b b b b b b b b b b b v b ",
"v v v b v v b v v v v v v s L L g v b @.@.O.D / : @.@.b b b v v v v v v v v v v v v v v v v v v v b b v b b b b b b b b b b b b ",
"v v v b b v b v v v v v v s . % b v b @.@.O.. X O.@.@.b b b v v v v v v v v v v v v v v v v v v v v v v b b b b b b b b b b b b ",
"v v v v b b b v v v v v b v v v b b b @.@.@.@.b @.@.@.b b b v v v v v v v v v v v v v v v v v v v v b b b b b b b b b b b b b b ",
"v v v v v b b v v v v v b v v v v b b @.@.@.@.@.@.@.@.v b b v v v v v v v v v v v v v v v v v v v v b b b b b b b b b b b b b b ",
"v v v v v v b v v v v v b v v v v b b @.@.@.@.@.b @.@.v b b v v v v v v v v v v v v v v v v v v b b v b b b b b b b b b b b b b ",
"v v v v v v b v v v v b b v v v v v b @.@.@.@.@.b @.@.v b b b v v v v v v v v v v v v v v v v v b b b b b b b b b b b b b b v v ",
"v v v v v v b b v v v b v v v v v v b @.@.@.@.@.b b b v b b b v v v v v v v v v v v v v v v v v v b b b b b b b b b b b b b v v ",
"v v v v v v b b v v b b v v v v v v v @.@.@.@.@.@.b b v b b b v v v v v v v v v v v v v v v v v v b b v b b b b b v b b v v v v ",
"v v v v v v b b v b b v v v v v v v v @.@.@.@.@.@.b b v v v v v v v v v v v v v v v v v v v v v v v v v v v b b v v v v v v v v ",
"v v v v v v v b b b v v v v v v v v v @.@.@.@.@.@.b b v b b b b v v v v v b b v b b v b v v v v v v v v v v v v v v v v v v v v ",
"v v v v v v v b b b v v v v v v v v v @.@.@.@.@.@.b b v b b b b v v v v v b b b b b b b v v b b v v v v v v v v v v v v v @.@.v ",
"v v v v v v v b b v v v v v v v v v v @.@.@.b @.@.b b b b b b b v v v v v b b b b b b b b b b b v b b v b v v v v v v v @.@.@.@.",
"v v v v v v v v b b v v v v v v v v v b @.@.b b b b b b b b b b v v v v v v b b b b b b b b b b b b b b b b v v v @.@.v @.@.@.@.",
"v v v v v v v v b b b v v v v v v v v b b b b b @.@.b b b b @.b @.@.v v v b b b b b b b b b v v b b b v b b v v v @.@.@.@.@.@.@.",
"v v v v v v v v b b b v v v v v v v v v b b b @.@.@.b @.@.b @.@.@.@.v v b b b b b b b b b b v v b b v v v v v v v v @.@.@.@.@.@.",
"b v b v v v v v v b b v v v v v v v v v @.@.b @.@.@.@.@.@.@.@.@.@.v v v b b b b b b v v b b v v v v v v v v v v v v @.@.b @.b @.",
"b b b v b b v v v b b b v v v v v @.@.v @.@.@.@.@.@.@.@.@.@.@.@.@.@.v v v v b b b v v v v v v v v v v v v v v v b v v v b b b @.",
"b b b b b b v v v v b b v v v v @.@.@.v @.@.@.@.@.@.@.@.@.@.@.@.@.@.v v v b b b b b v v v v v v v v v v v v v v b v v b b b @.@.",
"b b b b b b v v v v b b b @.@.v @.@.@.@.@.@.@.@.@.@.@.@.@.b @.@.v v v v v b b v b b v v v b v b b v v b v v b b b b b b b @.@.@.",
"b b b b b v v v v v b b b @.@.@.@.@.@.@.@.@.@.@.@.@.@.@.b b b v v v v v v v v v v v v v b b b b b v b b b b b b b b @.@.b @.@.@.",
"b b b b b v v @.@.v b b b @.@.@.@.@.@.@.@.@.@.@.@.@.@.b b b b v v v v v v v v v v v v v b b b b b b b b b b b b b b @.@.@.@.@.@.",
"b b b b v v @.@.@.v @.@.b @.@.@.@.@.@.@.@.@.@.@.@.b b @.b @.@.v v v v v v v v v v v v v v b b b b b b b b b b b b b b @.@.@.@.@.",
"b b b @.@.v @.@.@.@.@.@.@.@.@.@.@.@.@.@.@.@.@.@.@.@.b @.@.@.@.v v v v v v v v v v v v v v @.@.b b b b @.b @.@.b b b b @.@.b @.b ",
"v b b @.@.@.@.@.@.@.@.@.@.@.@.@.@.@.@.@.@.@.@.@.@.@.@.@.@.@.@.@.@.v v v v v v @.@.v v v @.@.@.b @.@.b @.@.@.@.b b b b b b b b b ",
"v v v v @.@.@.@.@.@.@.@.@.@.@.@.@.@.@.@.@.@.@.@.@.@.@.@.@.@.@.@.@.v @.@.v @.@.@.@.@.@.v @.@.@.@.@.@.@.@.@.@.b b b b b b b b b b ",
"v v v v @.@.v @.v @.@.@.@.@.@.@.@.@.@.@.@.@.@.@.@.@.@.@.@.@.@.@.@.@.@.@.@.@.@.@.@.@.@.@.@.@.@.@.@.@.@.@.@.@.@.b b b b b b b b b ",
"v v v v v v v v v @.@.@.@.@.@.@.@.@.@.@.@.@.@.@.@.@.@.@.@.@.@.@.@.@.@.@.@.@.@.@.@.b @.@.@.@.@.@.@.v v @.@.@.@.v b v v b b b b b ",
"v v v v v v v v v @.@.@.@.@.@.@.@.@.@.@.@.@.@.@.@.@.@.@.@.@.@.@.@.@.@.@.@.@.@.@.@.b @.@.b @.v v v v v @.@.v v v v v v b b @.@.b ",
"v v v v v v v v v v @.@.@.@.@.@.@.@.@.@.@.@.@.@.@.@.@.@.@.@.@.@.b @.@.@.b @.@.b b b @.@.b v v v v v v v v v v v v v @.@.b @.@.@.",
"v v v v v v v v v v @.@.v @.v @.@.@.@.@.@.@.@.@.@.@.@.@.@.@.@.@.b @.@.b b b b b b b b b b v v v v v v v v v v v v v v @.@.@.@.@.",
"v v v v v v v v v v v v v v v @.@.@.@.@.@.@.@.@.@.@.@.@.@.@.@.b b b b b b b @.@.b @.b b b b v v v v v v v v v v v v v @.@.@.@.@.",
"v v v v @.@.v v v v @.v @.@.v v v @.@.@.@.@.@.@.@.@.@.@.@.@.@.@.b b b b b b @.@.@.@.@.b b b v b b v b b v b b v v @.@.@.@.@.@.@.",
"v @.@.@.@.@.v @.@.@.@.@.@.@.v v v @.@.@.@.@.@.@.@.@.@.@.@.@.@.@.b b b b b b @.@.@.@.@.b b @.v @.b b b b v b @.@.@.@.@.@.@.@.@.@.",
"@.@.@.@.@.@.@.@.@.@.@.@.@.v v @.v @.@.@.@.@.@.@.@.@.@.@.@.@.@.b b b b @.@.b @.@.@.@.@.@.@.@.@.@.b b b b b b b @.@.@.@.@.@.@.@.@."
};
