/* XPM */
static char *p1[] = {
/* columns rows colors chars-per-pixel */
"64 64 197 2 ",
"   c #030404",
".  c #170E01",
"X  c #0D2718",
"o  c #13361C",
"O  c #3C2602",
"+  c #060D31",
"@  c #071D35",
"#  c #321E35",
"$  c #173E2F",
"%  c #0D273C",
"&  c #3D252D",
"*  c #432B03",
"=  c #573603",
"-  c #493E1B",
";  c #4C3D2B",
":  c #422A32",
">  c #4B3836",
",  c #1C462E",
"<  c #1C4436",
"1  c #1F4C35",
"2  c #23562E",
"3  c #215234",
"4  c #2B6B3C",
"5  c #3E6B39",
"6  c #774E03",
"7  c #7C4D03",
"8  c #7D5108",
"9  c #694B17",
"0  c #7D5113",
"q  c #58562C",
"w  c #5C463C",
"e  c #684827",
"r  c #6E4F2E",
"t  c #44623E",
"y  c #070541",
"u  c #0A075B",
"i  c #0E234D",
"p  c #102E40",
"a  c #173A47",
"s  c #0E097C",
"d  c #110B7C",
"f  c #153465",
"g  c #49375B",
"h  c #1C4547",
"j  c #1F4B4A",
"k  c #255649",
"l  c #285B49",
"z  c #355546",
"x  c #295F52",
"c  c #2A6443",
"v  c #2D674C",
"b  c #3F6642",
"n  c #32774C",
"m  c #2C6553",
"M  c #2F6A56",
"N  c #2F6A5B",
"B  c #316E59",
"V  c #337750",
"C  c #367C54",
"Z  c #174169",
"A  c #1B4A71",
"S  c #1F5479",
"D  c #224E61",
"F  c #275C66",
"G  c #2C6C75",
"H  c #764A51",
"J  c #5D5A73",
"K  c #6A6B7C",
"L  c #885502",
"P  c #8A5903",
"I  c #915B03",
"U  c #8A5C18",
"Y  c #9D6402",
"T  c #85601B",
"R  c #A66804",
"E  c #AD6E02",
"W  c #A67004",
"Q  c #B27203",
"!  c #BB7603",
"~  c #B47A06",
"^  c #BD7A03",
"/  c #81573A",
"(  c #BE4024",
")  c #896937",
"_  c #B07327",
"`  c #C57D03",
"'  c #C4770B",
"]  c #C14623",
"[  c #D93559",
"{  c #F73551",
"}  c #D83B60",
"|  c #9A675A",
" . c #A86D5B",
".. c #A47C5F",
"X. c #B8785A",
"o. c #947460",
"O. c #A56873",
"+. c #C57E5B",
"@. c #CF5B7D",
"#. c #E54A75",
"$. c #348047",
"%. c #36844A",
"&. c #38884C",
"*. c #BE8107",
"=. c #C58203",
"-. c #CC8303",
";. c #C2840B",
":. c #C8890E",
">. c #D38602",
",. c #D48903",
"<. c #DD8E03",
"1. c #D1870B",
"2. c #DE9208",
"3. c #CB8213",
"4. c #D3871F",
"5. c #D88A1E",
"6. c #E69503",
"7. c #EA9602",
"8. c #EE9904",
"9. c #E1950A",
"0. c #F39C03",
"q. c #F89E05",
"w. c #EB9714",
"e. c #F09A11",
"r. c #FCA203",
"t. c #FBA61D",
"y. c #CD8C2B",
"u. c #EF9834",
"i. c #F9A135",
"p. c #A4886B",
"a. c #B4AC7C",
"s. c #DB8C4D",
"d. c #CD825A",
"f. c #CAA848",
"g. c #EBBD50",
"h. c #C99265",
"j. c #C1A171",
"k. c #EDC65A",
"l. c #DDCC6D",
"z. c #E7D66D",
"x. c #E3DC74",
"c. c #150F87",
"v. c #150E98",
"b. c #17109C",
"n. c #191298",
"m. c #38258C",
"M. c #170FA3",
"N. c #1B14A2",
"B. c #1E16AD",
"V. c #5C3A97",
"C. c #235B83",
"Z. c #224C9C",
"A. c #25579C",
"S. c #296996",
"D. c #2C6F9F",
"F. c #2C709F",
"G. c #2B5CB3",
"H. c #2C66BC",
"J. c #327DB4",
"K. c #565894",
"L. c #684685",
"P. c #466180",
"I. c #636F88",
"U. c #5360B1",
"Y. c #2C5EC1",
"T. c #2E63C9",
"R. c #3271C9",
"E. c #3773E8",
"W. c #3B7BF6",
"Q. c #7F77C9",
"!. c #8A5686",
"~. c #8A7580",
"^. c #3E99D9",
"/. c #3D87ED",
"(. c #3D82F7",
"). c #3F8BF6",
"_. c #4495D2",
"`. c #419AE7",
"'. c #4192F7",
"]. c #439CF7",
"[. c #559FF3",
"{. c #44A4E8",
"}. c #44A5EA",
"|. c #47A4F6",
" X c #47ACF7",
".X c #48AEF7",
"XX c #928D8F",
"oX c #B8B481",
"OX c #BA8CAB",
"+X c #B48EB9",
"@X c #C692AB",
"#X c #F990BE",
"$X c #9D84C9",
"%X c #A388C8",
"&X c #A88AC9",
"*X c #B2B1D0",
"=X c #E8E1EB",
/* pixels */
"C C C C C V V V V V C C B m m $.$.B &.&.&.%.$.$.$.$.$.&.&.&.C C C C C C C C C C C C C C B B C B C C C C C B B B B B B B B B B B ",
"C C C C v Z.Z.Z.A.G c c l Z.A.D.D.F 4 4 4 G D.D.F.F.o &.&.&.C C C C C C C C C C C C C C C B B B C C B C C B B B B B B B B B B B ",
"B C C c G.W.W.(.|.}.R.T.T.W.). X XC.  T.R.^..X.X'.'.o &.C C C C C C C C C C C C C C C C C B B B B B B B B B B B B B B B B B B B ",
"C C c G.W.W.W.(..X.X X(.W.(. X.X.X/.E.W. X.X.X.X Xf V C C C C C C C C C C C C C C C C C B B B B B B B B B B B B B B B B B B B B ",
"C M J..X).W.W..X.X.X.X).W.(..X.X}.P.* > }..X.X.XA V C b = t V C C C C B B C C C C C C C C B B B B B B B B B B B B B B B B B B B ",
"V C..X.X).W.W..X.X.X X XW.(..X}.I.` ,.~ S .X.X^.F C t E <.I v B C C B B B B C C C C C C C B B B B B B B B B B B B B B B B B B B ",
"M C..X.X|.(.W..X.X.X X XW.(.}.K -.g.t.~ S .X.XS., 1 ^ <.<.I v B C B B B B C C C C C C B B B B B B B B B B B B B B B B B B B B B ",
"a /..X.X.X(.W..X.X.X X.XW.(.^.R k.x.z.0._ o.Z %   >.<.<.<.I m B C B B B B C C C C B C B B B B B B B B B B B B B B B B B B B B B ",
"i )..X.X.X.XW. X.X.X X.X.X(._.Q k.x.z.z.r.7.=.=.=.=.-.<.<.I m B C B B B B C C C C B B B B B B B B B B B B B B B B B B B B B B B ",
"i (.|..X.X.X'.(..X.X X.X.X/.g X.j.h.d.d.d.d.d.u.r.r.d.|  .H D F C C B B B B C C B B B B B B B B B B B B B B B B B B B B B B B B ",
"i W.'..X.X.X.X].]..X X.X.X/.N.N.N.N.N.N.N.N.N.!.O.O.b.b.b.b.v.s B C B B B B C B B B B B B B B B B B B B B B B B B B B B B B C C ",
"m Z.W.H.Z Z A .X].]..X.X.X}.n.b.B.B.B.B.y y c.B.B.M.b.+ d M.M.s B C C B B B C B B B B B B B B B B B B B B B B B B B C C B C C C ",
"B m & 4.r.r.r.J }..X.X X.X_.6 | m.N.B.B.  XX*XB.B.M.b.XX*XM.s N B B C B B B C B B B B B B B B B B B B B B B B B B C C C B C C C ",
"B z _ r.r.r.r.e.~.`..X.X X* *.1.X.V.N.N.u u c.!.O.O.v.u d L./ z B B C C B B C B B B B B B B B B B B B B B B C C B C C C C C C C ",
"M : ^ r.r.=.r.r.4.J..X.X X* *.9.r.s.d.d.+.p.oXl.5.k.a. .d.y.:.O B B B C B C C B B B B B B B B B B B B B B B C C C C C C C C C C ",
"M : ^ r.r.r Y r.q.+X(.(. X* *.9.r.r.r.r.0.f.x.x.y.x.l.>.r.2.:.O B B B C B C B B B B B B B B B B B B B B B B B C C C C C C C C C ",
"B m > 0 8 # & r.q._ Y.E.> g ~ ;.:.8.q.r.r.7.=.=.0.=.-.r.9.;.9 M B B B C C C B B B B B B B B B B B B B B B B B C C B C B C C C B ",
"B B m h 3 @ P r.4.$ o 6 <.%XK.W ^ ;.;.6.6.6.6.6.6.6.6.2.~ r m B B B C C C B B B B B B B B B B B B B B B B B B B B B B B C C B B ",
"B B B B k e P e.) 4 T ` r.i.OXK.6 6 6 6 6 6 6 6 6 6 6 6 q m B B B C C C B B B B B B B B B B B B B B B B B B B B B B B B B B B B ",
"B B B B a 0 0.w.@ U ` 8.r.r.i.OXE.`.}.}.}.}.}.XXQ Q ..`.G.l C C C C C B B B B B B B B B B B B B B B B B B B B B B B B B B B B B ",
"C B B j 5.r.r.p l P ` 0.r.r.r.,.,.&X|. X X X X X#.{ =X[.U.c C C C C B B B B B B B B B B B B B B B B B B B B B B B B B B B B B B ",
"C B B j 5.r.r.p l P ` 0.r.r.r.,.,.r.+X&X$XQ.&X&X} #X[ @X` c C B B B B B B C C B B B B C B C C B B B B B B B B B B B B B B B B B ",
"C B B j 5.r.r.p l I ` 0.r.r.r.,.,.r.r.q.^ >.r.r.] @.( r.` c B B B B B B C C C B C C B C C C C B B B B B B B B B C C B B B B C B ",
"C B B j 5.r.r.p l I ` 0.r.r.r.6.E 7.r.q.R q.r.r.` ' E r.` c B B B C C B C C C C C C C C C C B B B B B B B B B C C C B C C B C C ",
"C B B k e 8.r.w k I ` 8.r.r.r.r.<.Y 7.I >.r.r.r.r.r.E <.9 l B B B C C C C C C C C C C C C C C B B B B B C C B C C C C C C C C C ",
"C B B B a 3.r.0.L P ` ` 7.r.r.r.7.<.` <.6.r.r.r.r.r.>.9 c B B B B B C C C C C C C C C C C C C B B B B C C C C C C C C C C C C C ",
"C C B B x > ^ r.8.E Q ` ` <.6.r.r.r.r.r.r.r.r.r.r.r.-., C C B B B B C C B C B C C C B C C B B B C C B C C C C C C C C C C C C C ",
"B C B B B M # Q r.0.R Q ` ` -.-.-.0.r.r.r.r.r.r.r.-.- V C C B B B B B B B B B C C B B B B B B B C C C C C C C C C C C C C C C C ",
"B C C B B B C % % % + Q ` ` ! ! ! ! ! ! ^ ` ` ` ^ ! $ C C C B B B B B B B B B B B B B B B B B B C C C C C C C C C C C C C C B B ",
"B B C C B B C B B B < Q ` ! X 1 < < 1 2 q E ` ` = 2 C C C C B B B B B B B B B B B B B B B B B B B C C C C C C C C C C C C C B C ",
"B B B C B B C B B B < Q ` ` U c C B C &.n 7 ` ` R 2 &.C C C B B B B B B B B B B B B B B B B B B B C C B C C C C C C C C C C C C ",
"B B B C C B C B B B M ; ` ` E 1 C B C &.%.5 Y ` ` . &.C C C B B B B B B B B B B B B B B B B B B B B B B C C C C C C C C C C C C ",
"B B B B C C C B B B B B C B B B C C C &.&.&.&.C &.&.&.C C C B B B B B B B B B B B B B B B B B B B B C C C C C C C C C C C C C C ",
"B B B B B C C B B B B B C B B B B C C &.&.&.&.&.&.&.&.B C C B B B B B B B B B B B B B B B B B B B B C C C C C C C C C C C C C C ",
"B B B B B B C B B B B B C B B B B C C &.&.&.&.&.C &.&.B C C B B B B B B B B B B B B B B B B B B C C B C C C C C C C C C C C C C ",
"B B B B B B C B B B B C C B B B B B C &.&.&.&.&.C &.&.B C C C B B B B B B B B B B B B B B B B B C C C C C C C C C C C C C C B B ",
"B B B B B B C C B B B C B B B B B B C &.&.&.&.&.C C C B C C C B B B B B B B B B B B B B B B B B B C C C C C C C C C C C C C B B ",
"B B B B B B C C B B C C B B B B B B B &.&.&.&.&.&.C C B C C C B B B B B B B B B B B B B B B B B B C C B C C C C C B C C B B B B ",
"B B B B B B C C B C C B B B B B B B B &.&.&.&.&.&.C C B B B B B B B B B B B B B B B B B B B B B B B B B B B C C B B B B B B B B ",
"B B B B B B B C C C B B B B B B B B B &.&.&.&.&.&.C C B C C C C B B B B B C C B C C B C B B B B B B B B B B B B B B B B B B B B ",
"B B B B B B B C C C B B B B B B B B B &.&.&.&.&.&.C C B C C C C B B B B B C C C C C C C B B C C B B B B B B B B B B B B B &.&.B ",
"B B B B B B B C C B B B B B B B B B B &.&.&.C &.&.C C C C C C C B B B B B C C C C C C C C C C C B C C B C B B B B B B B &.&.&.&.",
"B B B B B B B B C C B B B B B B B B B C &.&.C C C C C C C C C C B B B B B B C C C C C C C C C C C C C C C C B B B &.&.B &.&.&.&.",
"B B B B B B B B C C C B B B B B B B B C C C C C &.&.C C C C &.C &.&.B B B C C C C C C C C C B B C C C B C C B B B &.&.&.&.&.&.&.",
"B B B B B B B B C C C B B B B B B B B B C C C &.&.&.C &.&.C &.&.&.&.B B C C C C C C C C C C B B C C B B B B B B B B &.&.&.&.&.&.",
"C B C B B B B B B C C B B B B B B B B B &.&.C &.&.&.&.&.&.&.&.&.&.B B B C C C C C C B B C C B B B B B B B B B B B B &.&.C &.C &.",
"C C C B C C B B B C C C B B B B B &.&.B &.&.&.&.&.&.&.&.&.&.&.&.&.&.B B B B C C C B B B B B B B B B B B B B B B C B B B C C C &.",
"C C C C C C B B B B C C B B B B &.&.&.B &.&.&.&.&.&.&.&.&.&.&.&.&.&.B B B C C C C C B B B B B B B B B B B B B B C B B C C C &.&.",
"C C C C C C B B B B C C C &.&.B &.&.&.&.&.&.&.&.&.&.&.&.&.C &.&.B B B B B C C B C C B B B C B C C B B C B B C C C C C C C &.&.&.",
"C C C C C B B B B B C C C &.&.&.&.&.&.&.&.&.&.&.&.&.&.&.C C C B B B B B B B B B B B B B C C C C C B C C C C C C C C &.&.C &.&.&.",
"C C C C C B B &.&.B C C C &.&.&.&.&.&.&.&.&.&.&.&.&.&.C C C C B B B B B B B B B B B B B C C C C C C C C C C C C C C &.&.&.&.&.&.",
"C C C C B B &.&.&.B &.&.C &.&.&.&.&.&.&.&.&.&.&.&.C C &.C &.&.B B B B B B B B B B B B B B C C C C C C C C C C C C C C &.&.&.&.&.",
"C C C &.&.B &.&.&.&.&.&.&.&.&.&.&.&.&.&.&.&.&.&.&.&.C &.&.&.&.B B B B B B B B B B B B B B &.&.C C C C &.C &.&.C C C C &.&.C &.C ",
"B C C &.&.&.&.&.&.&.&.&.&.&.&.&.&.&.&.&.&.&.&.&.&.&.&.&.&.&.&.&.&.B B B B B B &.&.B B B &.&.&.C &.&.C &.&.&.&.C C C C C C C C C ",
"B B B B &.&.&.&.&.&.&.&.&.&.&.&.&.&.&.&.&.&.&.&.&.&.&.&.&.&.&.&.&.B &.&.B &.&.&.&.&.&.B &.&.&.&.&.&.&.&.&.&.C C C C C C C C C C ",
"B B B B &.&.B &.B &.&.&.&.&.&.&.&.&.&.&.&.&.&.&.&.&.&.&.&.&.&.&.&.&.&.&.&.&.&.&.&.&.&.&.&.&.&.&.&.&.&.&.&.&.&.C C C C C C C C C ",
"B B B B B B B B B &.&.&.&.&.&.&.&.&.&.&.&.&.&.&.&.&.&.&.&.&.&.&.&.&.&.&.&.&.&.&.&.C &.&.&.&.&.&.&.B B &.&.&.&.B C B B C C C C C ",
"B B B B B B B B B &.&.&.&.&.&.&.&.&.&.&.&.&.&.&.&.&.&.&.&.&.&.&.&.&.&.&.&.&.&.&.&.C &.&.C &.B B B B B &.&.B B B B B B C C &.&.C ",
"B B B B B B B B B B &.&.&.&.&.&.&.&.&.&.&.&.&.&.&.&.&.&.&.&.&.&.C &.&.&.C &.&.C C C &.&.C B B B B B B B B B B B B B &.&.C &.&.&.",
"B B B B B B B B B B &.&.B &.B &.&.&.&.&.&.&.&.&.&.&.&.&.&.&.&.&.C &.&.C C C C C C C C C C B B B B B B B B B B B B B B &.&.&.&.&.",
"B B B B B B B B B B B B B B B &.&.&.&.&.&.&.&.&.&.&.&.&.&.&.&.C C C C C C C &.&.C &.C C C C B B B B B B B B B B B B B &.&.&.&.&.",
"B B B B &.&.B B B B &.B &.&.B B B &.&.&.&.&.&.&.&.&.&.&.&.&.&.&.C C C C C C &.&.&.&.&.C C C B C C B C C B C C B B &.&.&.&.&.&.&.",
"B &.&.&.&.&.B &.&.&.&.&.&.&.B B B &.&.&.&.&.&.&.&.&.&.&.&.&.&.&.C C C C C C &.&.&.&.&.C C &.B &.C C C C B C &.&.&.&.&.&.&.&.&.&.",
"&.&.&.&.&.&.&.&.&.&.&.&.&.B B &.B &.&.&.&.&.&.&.&.&.&.&.&.&.&.C C C C &.&.C &.&.&.&.&.&.&.&.&.&.C C C C C C C &.&.&.&.&.&.&.&.&."
};
