/* XPM */
static char *p2[] = {
/* columns rows colors chars-per-pixel */
"64 64 190 2 ",
"   c #030303",
".  c #0E1005",
"X  c #030C1C",
"o  c #351E00",
"O  c #0F2C1B",
"+  c #040E20",
"@  c #0A1431",
"#  c #0F2A21",
"$  c #153924",
"%  c #0F2937",
"&  c #0F293E",
"*  c #193E31",
"=  c #2C2539",
"-  c #5C3A02",
";  c #633F02",
":  c #593A2C",
">  c #623D31",
",  c #1B452D",
"<  c #1E513A",
"1  c #225538",
"2  c #3C5E3E",
"3  c #296839",
"4  c #5D430D",
"5  c #5C4010",
"6  c #76530C",
"7  c #524B28",
"8  c #5F532E",
"9  c #4E5035",
"0  c #75492E",
"q  c #7C5729",
"w  c #704E31",
"e  c #466936",
"r  c #697133",
"t  c #143040",
"y  c #102A5D",
"u  c #0F0B75",
"i  c #0D0879",
"p  c #183975",
"a  c #2E396E",
"s  c #573A76",
"d  c #1F4A49",
"f  c #1E5140",
"g  c #265749",
"h  c #2A4E51",
"j  c #285D55",
"k  c #2A6547",
"l  c #2C6846",
"z  c #376E42",
"x  c #317946",
"c  c #31724D",
"v  c #2C6452",
"b  c #2F6A56",
"n  c #2F695D",
"m  c #306C57",
"M  c #316E59",
"N  c #347751",
"B  c #367C54",
"V  c #1B4C73",
"C  c #235871",
"Z  c #B43722",
"A  c #8E5C03",
"S  c #84570B",
"D  c #905F04",
"F  c #855717",
"G  c #945F1F",
"H  c #916103",
"J  c #9D6706",
"K  c #8C641C",
"L  c #986313",
"P  c #A36705",
"I  c #A36A02",
"U  c #AB6D03",
"Y  c #AB7307",
"T  c #B47302",
"R  c #B97503",
"E  c #BB7E05",
"W  c #B57B08",
"Q  c #AB6D1D",
"!  c #8D5930",
"~  c #9C632A",
"^  c #976D34",
"/  c #AE6F2A",
"(  c #AC7130",
")  c #BE7C37",
"_  c #C67E03",
"`  c #C87F02",
"'  c #E94221",
"]  c #C67E23",
"[  c #F73E5B",
"{  c #8D664F",
"}  c #8E6768",
"|  c #B07072",
" . c #C1405D",
".. c #36844A",
"X. c #38884C",
"o. c #BE8109",
"O. c #C48203",
"+. c #CB8203",
"@. c #C3840B",
"#. c #C9890E",
"$. c #D38602",
"%. c #D68A03",
"&. c #DC8D03",
"*. c #D58B0B",
"=. c #D8900B",
"-. c #E59302",
";. c #EB9602",
":. c #EE9903",
">. c #EA9908",
",. c #F59D03",
"<. c #F89F04",
"1. c #F59E0C",
"2. c #E69316",
"3. c #E59318",
"4. c #FCA203",
"5. c #FCA10F",
"6. c #CC8323",
"7. c #F59D24",
"8. c #FAAB2B",
"9. c #E7A431",
"0. c #BE8068",
"q. c #CF874B",
"w. c #D18559",
"e. c #E59142",
"r. c #F29E57",
"t. c #D8AD47",
"y. c #CDB050",
"u. c #C4B871",
"i. c #D9C35F",
"p. c #EFC558",
"a. c #D7CB6D",
"s. c #EACF65",
"d. c #E8D268",
"f. c #E2DC75",
"g. c #100A82",
"h. c #130D8B",
"j. c #17118F",
"k. c #150F93",
"l. c #17109B",
"z. c #19139B",
"x. c #1D3588",
"c. c #170FA3",
"v. c #180FA5",
"b. c #1A13A0",
"n. c #1D15AC",
"m. c #281BA1",
"M. c #643E92",
"N. c #1F5382",
"B. c #1D4694",
"V. c #214B9E",
"C. c #296999",
"Z. c #2348A7",
"A. c #2E75A8",
"S. c #347BB8",
"D. c #4D5395",
"F. c #784B82",
"G. c #585CA6",
"H. c #4C7AA6",
"J. c #6260AE",
"K. c #6A69B8",
"L. c #2E6DC2",
"P. c #2E66D2",
"I. c #3068D7",
"U. c #316BDD",
"Y. c #336FE3",
"T. c #3679EA",
"R. c #3776F2",
"E. c #3A7DF6",
"W. c #597EF1",
"Q. c #D36084",
"!. c #F8728E",
"~. c #4286BC",
"^. c #3686C2",
"/. c #3788C2",
"(. c #3F99D8",
"). c #3B87EB",
"_. c #3B80F7",
"`. c #3D8AF6",
"'. c #6FA6DE",
"]. c #429FE4",
"[. c #558BF1",
"{. c #4196F7",
"}. c #439DF7",
"|. c #44A4E8",
" X c #46A4F7",
".X c #47ABF5",
"XX c #5FB2F5",
"oX c #B2B2B2",
"OX c #E9B1A8",
"+X c #C0C0C0",
/* pixels */
"B B B B B B B B B B B B M M M X.X.M ....X.X.X.X.X.X.X...X.X.B B B B B B B B B B B B B B M M B M B B B B B M M M M M M M M M M M ",
"B B B B B B B B B B B B M M M B M v 4 ; e X.X.X.X.X.x ; e X.B B B B B B B B B B B B B B B M M M B B M B B M M M M M M M M M M M ",
"M B B B B B B B B B M M M M M B b 8 $.%.I k X.X.X.c 6 +.I k B B B B B B B B B B B B B B B M M M M M M M M M M M M M M M M M M M ",
"B B B B B B B B B B M M M M M B v D <.p.9.D r e 1 $ W &.&.. l B B B B B B B B B B B B B M M M M M M M M M M M M M M M M M M M M ",
"B B B B B B M B B B M M M M M B c A <.f.d.i.-.T J I E +.&.R 1 B B B B M M B B B B B B B B M M M M M M M M M M M M M M M M M M M ",
"B B M M M # # v B B B j # # # # O A <.s.8.8.4.,.,.,.,.-.O.%.1 M B B M M M M B B B B B B B M M M M M M M M M M M M M M M M M M M ",
"X g M X + .X.XV + X X B.}..X.X.Xj.j.j.j.j.j.j.j.F.5.5.j.j.j.i i B M M M M B B B B B B M M M M M M M M M M M M M M M M M M M M M ",
"I.V.y U.}..X.X.XE.P.P.Y. X.X.X.XZ.n.n.n.n.n.z.K.n.k.k.c.J.c.c.g.B M M M M B B B B M B M M M M M M M M M M M M M M M M M M M M M ",
"`.U.U.I.R. X.X.X.XT.P.E. X.X.X.X].s m.n.n.n.  +Xn.n.v.h.oXc.c.p B M M M M B B B B M M M M M M M M M M M M M M M M M M M M M M M ",
".X{.{.Y.R.E. X.X.X XY.)..X.X.X.XH.Y } z.n.n.    n.b.l.h.  c.x.n B B M M M M B B M M M M M M M M M M M M M M M M M M M M M M M M ",
"C.(..X}.}.}. X{.{..X}.T. X.X.XS.J @.>.| z.z.u u M.w.w.h.u k.h M M B M M M M B M M M M M M M M M M M M M M M M M M M M M M M B B ",
"v C C (.N.N.^. XE. X.X}._..X}.p E #.4.7.e.e.q.u.a.t.d.u.q.e.K v M B B M M M B M M M M M M M M M M M M M M M M M M M B B M B B B ",
"M M m { 1.1.) |. XE..X.X`..X}.p o.#.4.4.4.4.-.a.f.y.f.i.;.4.#.5 M M B M M M B M M M M M M M M M M M M M M M M M M B B B M B B B ",
"M b = 4.4.4.4.! .X{._..X.X|.G.a #.@.#.=.<.4.4.$.O.-.O.%.4.#.#.- M M B B M M B M M M M M M M M M M M M M M M B B M B B B B B B B ",
"M d S 4.4.4.4.4.V |..X.X].0 ;.U W @.E o.@.:.:.:.:.:.:.:.*.#.o.7 M M M B M B B M M M M M M M M M M M M M M M B B B B B B B B B B ",
"M d S 4.4.] -.4.~ C..X.XC.+.4.4.U H H H H H H H H H H H H J q b M M M B M B M M M M M M M M M M M M M M M M M B B B B B B B B B ",
"M v : %.4.@ G ,.3.< A.A.} ;.4.4.;.D.^././././.{ H H ~./.L.g v M M M M B B B M M M M M M M M M M M M M M M M M B B M B M B B B M ",
"M M v > F @ 2 2.1.^ x k Q 4.4.4.;.0.[..X.X.X.X'.' OXXX`.S.M M M M M B B B M M M M M M M M M M M M M M M M M M M M M M M B B M M ",
"M M M b b ..l 2.4./ X.w _ 4.4.4.;.$.r._._.E._._.[ !.W.w.j M M M M B B B M M M M M M M M M M M M M M M M M M M M M M M M M M M M ",
"M M M M M X.: ;.2.g X.0 _ 4.4.4.;.%.4.4.4.P 4.4. .Q.<.%.l M B B B B B M M M M M M M M M M M M M M M M M M M M M M M M M M M M M ",
"B M M M M b 0 :.6.j X.0 _ 4.4.4.;.$.4.4.,.J 4.4.Z Z <.%.l B B B B B M M M M M M M M M M M M M M M M M M M M M M M M M M M M M M ",
"B M M M M b / 4.t M X.0 _ 4.4.4.:._ 4.4.T &.4.4.&.R ,.%.l B B M M M M M M B B M M M M B M B B M M M M M M M M M M M M M M M M M ",
"B M M M M b / 4.( x X.0 _ -.4.4.<._ ` :.T 4.4.4.4.+.,.T l B M M M M M M B B B M B B M B B B B M M M M M M M M M B B M M M M B M ",
"B M M M M b q ,.1.^ f 0 _ +.;.4.4.&.T T _ 4.4.4.4.%._ 7 N B M M M B B M B B B B B B B B B B M M M M M M M M M B B B M B B M B B ",
"B M M M M M h L 4.1.2.6.Q _ +.$.4.,.,.:.,.4.4.4.4.,.- c B M M M M B B B B B B B B B B B B B B M M M M M B B M B B B B B B B B B ",
"B M M M M M M t I 4.4.*.P _ _ _ +.+.<.4.4.4.4.4.,.A N B B M M M M M B B B B B B B B B B B B B M M M M B B B B B B B B B B B B B ",
"B B M M M M M M & & & % L _ _ _ R R R R R _ _ _ _ F N B B B M M M M B B M B M B B B M B B M M M B B M B B B B B B B B B B B B B ",
"M B M M M M B M M M M M * _ _ U * * , , , U _ _ L l B B B B M M M M M M M M M B B M M M M M M M B B B B B B B B B B B B B B B B ",
"M B B M M M B M M M M M * _ T 9 M M B X.X.o _ P 3 X.B B B B M M M M M M M M M M M M M M M M M M B B B B B B B B B B B B B B M M ",
"M M B B M M B M M M M M * _ H c M M B X.X.o _ - X.X.B B B B M M M M M M M M M M M M M M M M M M M B B B B B B B B B B B B B M B ",
"M M M B M M B M M M M M * ; 9 N B M B X.X.. ; z X.X.X.B B B M M M M M M M M M M M M M M M M M M M B B M B B B B B B B B B B B B ",
"M M M B B M B M M M M M m b m M B M B X.X.....N X.X.X.B B B M M M M M M M M M M M M M M M M M M M M M M B B B B B B B B B B B B ",
"M M M M B B B M M M M M B M M M B B B X.X.X.X.B X.X.X.B B B M M M M M M M M M M M M M M M M M M M M B B B B B B B B B B B B B B ",
"M M M M M B B M M M M M B M M M M B B X.X.X.X.X.X.X.X.M B B M M M M M M M M M M M M M M M M M M M M B B B B B B B B B B B B B B ",
"M M M M M M B M M M M M B M M M M B B X.X.X.X.X.B X.X.M B B M M M M M M M M M M M M M M M M M M B B M B B B B B B B B B B B B B ",
"M M M M M M B M M M M B B M M M M M B X.X.X.X.X.B X.X.M B B B M M M M M M M M M M M M M M M M M B B B B B B B B B B B B B B M M ",
"M M M M M M B B M M M B M M M M M M B X.X.X.X.X.B B B M B B B M M M M M M M M M M M M M M M M M M B B B B B B B B B B B B B M M ",
"M M M M M M B B M M B B M M M M M M M X.X.X.X.X.X.B B M B B B M M M M M M M M M M M M M M M M M M B B M B B B B B M B B M M M M ",
"M M M M M M B B M B B M M M M M M M M X.X.X.X.X.X.B B M M M M M M M M M M M M M M M M M M M M M M M M M M M B B M M M M M M M M ",
"M M M M M M M B B B M M M M M M M M M X.X.X.X.X.X.B B M B B B B M M M M M B B M B B M B M M M M M M M M M M M M M M M M M M M M ",
"M M M M M M M B B B M M M M M M M M M X.X.X.X.X.X.B B M B B B B M M M M M B B B B B B B M M B B M M M M M M M M M M M M M X.X.M ",
"M M M M M M M B B M M M M M M M M M M X.X.X.B X.X.B B B B B B B M M M M M B B B B B B B B B B B M B B M B M M M M M M M X.X.X.X.",
"M M M M M M M M B B M M M M M M M M M B X.X.B B B B B B B B B B M M M M M M B B B B B B B B B B B B B B B B M M M X.X.M X.X.X.X.",
"M M M M M M M M B B B M M M M M M M M B B B B B X.X.B B B B X.B X.X.M M M B B B B B B B B B M M B B B M B B M M M X.X.X.X.X.X.X.",
"M M M M M M M M B B B M M M M M M M M M B B B X.X.X.B X.X.B X.X.X.X.M M B B B B B B B B B B M M B B M M M M M M M M X.X.X.X.X.X.",
"B M B M M M M M M B B M M M M M M M M M X.X.B X.X.X.X.X.X.X.X.X.X.M M M B B B B B B M M B B M M M M M M M M M M M M X.X.B X.B X.",
"B B B M B B M M M B B B M M M M M X.X.M X.X.X.X.X.X.X.X.X.X.X.X.X.X.M M M M B B B M M M M M M M M M M M M M M M B M M M B B B X.",
"B B B B B B M M M M B B M M M M X.X.X.M X.X.X.X.X.X.X.X.X.X.X.X.X.X.M M M B B B B B M M M M M M M M M M M M M M B M M B B B X.X.",
"B B B B B B M M M M B B B X.X.M X.X.X.X.X.X.X.X.X.X.X.X.X.B X.X.M M M M M B B M B B M M M B M B B M M B M M B B B B B B B X.X.X.",
"B B B B B M M M M M B B B X.X.X.X.X.X.X.X.X.X.X.X.X.X.X.B B B M M M M M M M M M M M M M B B B B B M B B B B B B B B X.X.B X.X.X.",
"B B B B B M M X.X.M B B B X.X.X.X.X.X.X.X.X.X.X.X.X.X.B B B B M M M M M M M M M M M M M B B B B B B B B B B B B B B X.X.X.X.X.X.",
"B B B B M M X.X.X.M X.X.B X.X.X.X.X.X.X.X.X.X.X.X.B B X.B X.X.M M M M M M M M M M M M M M B B B B B B B B B B B B B B X.X.X.X.X.",
"B B B X.X.M X.X.X.X.X.X.X.X.X.X.X.X.X.X.X.X.X.X.X.X.B X.X.X.X.M M M M M M M M M M M M M M X.X.B B B B X.B X.X.B B B B X.X.B X.B ",
"M B B X.X.X.X.X.X.X.X.X.X.X.X.X.X.X.X.X.X.X.X.X.X.X.X.X.X.X.X.X.X.M M M M M M X.X.M M M X.X.X.B X.X.B X.X.X.X.B B B B B B B B B ",
"M M M M X.X.X.X.X.X.X.X.X.X.X.X.X.X.X.X.X.X.X.X.X.X.X.X.X.X.X.X.X.M X.X.M X.X.X.X.X.X.M X.X.X.X.X.X.X.X.X.X.B B B B B B B B B B ",
"M M M M X.X.M X.M X.X.X.X.X.X.X.X.X.X.X.X.X.X.X.X.X.X.X.X.X.X.X.X.X.X.X.X.X.X.X.X.X.X.X.X.X.X.X.X.X.X.X.X.X.X.B B B B B B B B B ",
"M M M M M M M M M X.X.X.X.X.X.X.X.X.X.X.X.X.X.X.X.X.X.X.X.X.X.X.X.X.X.X.X.X.X.X.X.B X.X.X.X.X.X.X.M M X.X.X.X.M B M M B B B B B ",
"M M M M M M M M M X.X.X.X.X.X.X.X.X.X.X.X.X.X.X.X.X.X.X.X.X.X.X.X.X.X.X.X.X.X.X.X.B X.X.B X.M M M M M X.X.M M M M M M B B X.X.B ",
"M M M M M M M M M M X.X.X.X.X.X.X.X.X.X.X.X.X.X.X.X.X.X.X.X.X.X.B X.X.X.B X.X.B B B X.X.B M M M M M M M M M M M M M X.X.B X.X.X.",
"M M M M M M M M M M X.X.M X.M X.X.X.X.X.X.X.X.X.X.X.X.X.X.X.X.X.B X.X.B B B B B B B B B B M M M M M M M M M M M M M M X.X.X.X.X.",
"M M M M M M M M M M M M M M M X.X.X.X.X.X.X.X.X.X.X.X.X.X.X.X.B B B B B B B X.X.B X.B B B B M M M M M M M M M M M M M X.X.X.X.X.",
"M M M M X.X.M M M M X.M X.X.M M M X.X.X.X.X.X.X.X.X.X.X.X.X.X.X.B B B B B B X.X.X.X.X.B B B M B B M B B M B B M M X.X.X.X.X.X.X.",
"M X.X.X.X.X.M X.X.X.X.X.X.X.M M M X.X.X.X.X.X.X.X.X.X.X.X.X.X.X.B B B B B B X.X.X.X.X.B B X.M X.B B B B M B X.X.X.X.X.X.X.X.X.X.",
"X.X.X.X.X.X.X.X.X.X.X.X.X.M M X.M X.X.X.X.X.X.X.X.X.X.X.X.X.X.B B B B X.X.B X.X.X.X.X.X.X.X.X.X.B B B B B B B X.X.X.X.X.X.X.X.X."
};
