/* XPM */
static char *p3[] = {
/* columns rows colors chars-per-pixel */
"64 64 193 2 ",
"   c #040404",
".  c #010419",
"X  c #271601",
"o  c #0F2A1A",
"O  c #231535",
"+  c #153727",
"@  c #11333C",
"#  c #2C3C2B",
"$  c #533302",
"%  c #653E01",
"&  c #482D2B",
"*  c #483133",
"=  c #653E28",
"-  c #184226",
";  c #1C4537",
":  c #19463E",
">  c #2E4924",
",  c #204E34",
"<  c #235835",
"1  c #3B723D",
"2  c #554117",
"3  c #6A4302",
"4  c #66400F",
"5  c #6B4A14",
"6  c #5F5721",
"7  c #4D5939",
"8  c #654728",
"9  c #6B5221",
"0  c #6D4438",
"q  c #406D3A",
"w  c #0B075A",
"e  c #12344C",
"r  c #0C0866",
"t  c #120D7B",
"y  c #132C68",
"u  c #133565",
"i  c #1C4741",
"p  c #245544",
"a  c #24544D",
"s  c #315651",
"d  c #286141",
"f  c #2A6A45",
"g  c #2B614E",
"h  c #2E6C4A",
"j  c #327845",
"k  c #31744B",
"l  c #2C6453",
"z  c #2E6955",
"x  c #296058",
"c  c #306C57",
"v  c #316E59",
"b  c #347751",
"n  c #367C54",
"m  c #1C4862",
"M  c #235570",
"N  c #2B6468",
"B  c #675A44",
"V  c #776150",
"C  c #764D69",
"Z  c #5A6277",
"A  c #64627C",
"S  c #7C6872",
"D  c #B6233F",
"F  c #8D5E03",
"G  c #875909",
"H  c #935C02",
"J  c #9A6101",
"K  c #946716",
"L  c #A66A07",
"P  c #A36D05",
"I  c #A56D0A",
"U  c #AE7103",
"Y  c #AA740F",
"T  c #B57603",
"R  c #BE7E05",
"E  c #B2760A",
"W  c #B67415",
"Q  c #935D29",
"!  c #865532",
"~  c #AE722E",
"^  c #BC7928",
"/  c #C67E03",
"(  c #C27E08",
")  c #C85421",
"_  c #926B53",
"`  c #AB744D",
"'  c #8B5B67",
"]  c #88567C",
"[  c #976769",
"{  c #A8706C",
"}  c #B87468",
"|  c #A86A72",
" . c #CB5143",
".. c #D1696F",
"X. c #37854A",
"o. c #38874C",
"O. c #38884C",
"+. c #628343",
"@. c #BD810D",
"#. c #CE8503",
"$. c #C3850B",
"%. c #CC8A0B",
"&. c #D08503",
"*. c #D58903",
"=. c #DD8E03",
"-. c #D58F0C",
";. c #D78A1F",
":. c #DD8E1B",
">. c #E69403",
",. c #E89602",
"<. c #ED9904",
"1. c #E9920C",
"2. c #E89808",
"3. c #F29B03",
"4. c #F49D0D",
"5. c #FCA103",
"6. c #FBA00D",
"7. c #FAA315",
"8. c #C88422",
"9. c #D68A20",
"0. c #C99C3A",
"q. c #FBAA28",
"w. c #F4A535",
"e. c #F5B33C",
"r. c #BE8253",
"t. c #B68171",
"y. c #DF8963",
"u. c #E99B6F",
"i. c #E78F70",
"p. c #D7C25E",
"a. c #EFC65A",
"s. c #D9CB67",
"d. c #DCD16C",
"f. c #EAD067",
"g. c #E3DD75",
"h. c #140D8E",
"j. c #140D92",
"k. c #160F9A",
"l. c #161092",
"z. c #1A1592",
"x. c #17109C",
"c. c #1A139B",
"v. c #193C82",
"b. c #1A3E8C",
"n. c #25228F",
"m. c #170FA3",
"M. c #1B13A3",
"N. c #1E16AD",
"B. c #215781",
"V. c #2A6B99",
"C. c #224DA8",
"Z. c #2454A6",
"A. c #2E74AB",
"S. c #2E6BBB",
"D. c #524E8D",
"F. c #547398",
"G. c #577DA6",
"H. c #3679C1",
"J. c #326CDB",
"K. c #326FE0",
"L. c #3777F6",
"P. c #3879F7",
"I. c #5E79CD",
"U. c #DB4788",
"Y. c #EC7FA9",
"T. c #3685BD",
"R. c #5283B7",
"E. c #3889C6",
"W. c #3C93D1",
"Q. c #3F9ADA",
"!. c #3E94E4",
"~. c #3B83F7",
"^. c #3E8AF7",
"/. c #3F91F7",
"(. c #419DDE",
"). c #419AE9",
"_. c #4094F7",
"`. c #429AF5",
"'. c #6B98EB",
"]. c #42A0E3",
"[. c #44A5E9",
"{. c #5BABED",
"}. c #46A5F7",
"|. c #47A9F5",
" X c #49AEF7",
".X c #808080",
"XX c #DD9889",
"oX c #C393AF",
"OX c #F881A1",
"+X c #8281C1",
"@X c #8D8AE2",
"#X c #87BAED",
"$X c #D2D2D2",
/* pixels */
"n n n n n n h @ i n n n v v v X.X.# R R > o.O.O.O.> R 3 X.O.n n n n n n n n n n n n n n v v n v n n n n n v v v v v v v v v v v ",
"k m y z z y V. X(.u m k z z x m e P 7.q.T 1 O.O.j P =.=.- X.n n n n n n n n n n n n n n n v v v n n v n n v v v v v v v v v v v ",
"B.K.L.C.C.P.}. X X/.K.v.v.B.A. XQ.P e.g.w.J +.j q T =.=.% h n n n n n n n n n n n n n n n v v v v v v v v v v v v v v v v v v v ",
" X_.^.P.P.P.~.|. X XP.L.P.}. X XQ.P e.g.f.q./ 3 F #.*.=./ h n n n n n n n n n n n n n n v v v v v v v v v v v v v v v v v v v v ",
"W. X}._.^.L.L._. X X^.P.^. X X XQ.P e.f.a.q.3.=.=.=.=.&./ h n n n n n v v n n n n n n n n v v v v v v v v v v v v v v v v v v v ",
"N [. X X|.`./.P. X X}.P.^. X X XS.C t.t.} } } } 5.5.{ ' ' m N v n n v v v v n n n n n n n v v v v v v v v v v v v v v v v v v v ",
"z V. X X XE.A.C.T. X|.~.^. X XT.l.M.M.M.M.M.M.M.| | x.x.k.j.y z n v v v v n n n n n n v v v v v v v v v v v v v v v v v v v v v ",
"v g A. X].r.;.9.r.]. X^.^. X]._ [ c.N.N.N.t r c.M.M.j.w m.m.r g n v v v v n n n n v n v v v v v v v v v v v v v v v v v v v v v ",
"v v x (.S 4.5.5.4.S  X|.P.}.Q.E 8.` l.N.N.w   c.N.M.j.  m.h.^ 8 n v v v v n n n n v v v v v v v v v v v v v v v v v v v v v v v ",
"v v v m I 5.5.5.5.4.V. XP.P.Q.E -.-.` M.N.w .X+Xl.l.j.$Xm.w %.3 n n v v v v n n v v v v v v v v v v v v v v v v v v v v v v v v ",
"v v v e G >.:.O U 5.b.}. X^.J.E -.5.5.] l.h.z.z.6.6.j.n.] 5.E g v n v v v v n v v v v v v v v v v v v v v v v v v v v v v v n n ",
"v v v v * G 5 Q.! 5.:.J.|. X`.v.R <.5.5.5.5.0.g.s.s.s.<.5.-.Y g v n n v v v n v v v v v v v v v v v v v v v v v v v n n v n n n ",
"v v v v l e . E.! 5.8.Q.~.).D.Z.U $.3.5.5.5.0.d.p.p.p.3.2.@.; v v v n v v v n v v v v v v v v v v v v v v v v v v n n n v n n n ",
"v v v v v v + . Q 5.e ].|.A t.'.Z T $.2.3.5.3.#.=.=.=.3.$.6 v v v v n n v v n v v v v v v v v v v v v v v v n n v n n n n n n n ",
"v v v v v v g & #.;.M W.R.W >.oX!._ P $.%.,.,.,.,.,.,.%.K j v v v v v n v n n v v v v v v v v v v v v v v v n n n n n n n n n n ",
"v v v v v v s W 4.= z < 0 / 5.5.I.E.F.F F F F F F F F F p v v v v v v n v n v v v v v v v v v v v v v v v v v n n n n n n n n n ",
"v v v v O.O.0 3.:.< O.f ~ =.5.5._ '.[.T.T.T.G.F F G.T.S.v v v v v v v n n n v v v v v v v v v v v v v v v v v n n v n v n n n v ",
"v v v v O.O.! 5.:.j O.: / 3.5.#.>.XX`. X X X{...i.#X^.H.v v v v v v n n n v v v v v v v v v v v v v v v v v v v v v v v n n v v ",
"v v v v v O.! 5.:.j O.: / 3.5.U 5.5.oX^.^.^.^.U.OX@XXXV v v v v v n n n v v v v v v v v v v v v v v v v v v v v v v v v v v v v ",
"v v v v v O.! 5.:.l O.: / 3.5.U 5.5.w.u.{ u.u. .Y.y.3.I , v n n n n n v v v v v v v v v v v v v v v v v v v v v v v v v v v v v ",
"n v v v v v ! 5.:.l O.: / 3.5.U 5.5.5.T ( 5.5.) D 1.3.E G h n n n n v v v v v v v v v v v v v v v v v v v v v v v v v v v v v v ",
"n v v v v v ! 5.:.l O.: / 3.5.( F F G P ( 5.5.*.*.5.R I I $ n v v v v v v n n v v v v n v n n v v v v v v v v v v v v v v v v v ",
"n v v v v v ! 5.:.k O.: / <.5.5.E E E E 5.5.5.5.5.#.o G P 2 v v v v v v n n n v n n v n n n n v v v v v v v v v n n v v v v n v ",
"n v v v v v l :.,.8 j @ / / 3.5.5.5.5.5.5.5.5.5.>.8 n , + k v v v n n v n n n n n n n n n n v v v v v v v v v n n n v n n v n n ",
"n v v v v v z ^ 5.#.* O / / / >.<.5.5.5.5.5.5.3.K k n n n v v v v n n n n n n n n n n n n n n v v v v v n n v n n n n n n n n n ",
"n v v v v v v a ;.5./ 4 / / / / / =.,.,.,.,.,.&.- n n n n v v v v v n n n n n n n n n n n n n v v v v n n n n n n n n n n n n n ",
"n n v v v v v v B ^ ^ = / / / L H H H H / / / L d n n n n n v v v v n n v n v n n n v n n v v v n n v n n n n n n n n n n n n n ",
"v n v v v v n v z a a a J / T 7 p p d d J / T 7 n n n n n n v v v v v v v v v n n v v v v v v v n n n n n n n n n n n n n n n n ",
"v n n v v v n v v v v v 3 / 9 z v v n O.3 / 9 b O.O.n n n n v v v v v v v v v v v v v v v v v v n n n n n n n n n n n n n n v v ",
"v v n n v v n v v v v v 3 / - n v v n O.3 / - n O.O.n n n n v v v v v v v v v v v v v v v v v v v n n n n n n n n n n n n n v n ",
"v v v n v v n v v v v v X $ z n n v n O.X $ X.n O.O.O.n n n v v v v v v v v v v v v v v v v v v v n n v n n n n n n n n n n n n ",
"v v v n n v n v v v v v c c v v n v n O.X.X.O.n O.O.O.n n n v v v v v v v v v v v v v v v v v v v v v v n n n n n n n n n n n n ",
"v v v v n n n v v v v v n v v v n n n O.O.O.O.n O.O.O.n n n v v v v v v v v v v v v v v v v v v v v n n n n n n n n n n n n n n ",
"v v v v v n n v v v v v n v v v v n n O.O.O.O.O.O.O.O.v n n v v v v v v v v v v v v v v v v v v v v n n n n n n n n n n n n n n ",
"v v v v v v n v v v v v n v v v v n n O.O.O.O.O.n O.O.v n n v v v v v v v v v v v v v v v v v v n n v n n n n n n n n n n n n n ",
"v v v v v v n v v v v n n v v v v v n O.O.O.O.O.n O.O.v n n n v v v v v v v v v v v v v v v v v n n n n n n n n n n n n n n v v ",
"v v v v v v n n v v v n v v v v v v n O.O.O.O.O.n n n v n n n v v v v v v v v v v v v v v v v v v n n n n n n n n n n n n n v v ",
"v v v v v v n n v v n n v v v v v v v O.O.O.O.O.O.n n v n n n v v v v v v v v v v v v v v v v v v n n v n n n n n v n n v v v v ",
"v v v v v v n n v n n v v v v v v v v O.O.O.O.O.O.n n v v v v v v v v v v v v v v v v v v v v v v v v v v v n n v v v v v v v v ",
"v v v v v v v n n n v v v v v v v v v O.O.O.O.O.O.n n v n n n n v v v v v n n v n n v n v v v v v v v v v v v v v v v v v v v v ",
"v v v v v v v n n n v v v v v v v v v O.O.O.O.O.O.n n v n n n n v v v v v n n n n n n n v v n n v v v v v v v v v v v v v O.O.v ",
"v v v v v v v n n v v v v v v v v v v O.O.O.n O.O.n n n n n n n v v v v v n n n n n n n n n n n v n n v n v v v v v v v O.O.O.O.",
"v v v v v v v v n n v v v v v v v v v n O.O.n n n n n n n n n n v v v v v v n n n n n n n n n n n n n n n n v v v O.O.v O.O.O.O.",
"v v v v v v v v n n n v v v v v v v v n n n n n O.O.n n n n O.n O.O.v v v n n n n n n n n n v v n n n v n n v v v O.O.O.O.O.O.O.",
"v v v v v v v v n n n v v v v v v v v v n n n O.O.O.n O.O.n O.O.O.O.v v n n n n n n n n n n v v n n v v v v v v v v O.O.O.O.O.O.",
"n v n v v v v v v n n v v v v v v v v v O.O.n O.O.O.O.O.O.O.O.O.O.v v v n n n n n n v v n n v v v v v v v v v v v v O.O.n O.n O.",
"n n n v n n v v v n n n v v v v v O.O.v O.O.O.O.O.O.O.O.O.O.O.O.O.O.v v v v n n n v v v v v v v v v v v v v v v n v v v n n n O.",
"n n n n n n v v v v n n v v v v O.O.O.v O.O.O.O.O.O.O.O.O.O.O.O.O.O.v v v n n n n n v v v v v v v v v v v v v v n v v n n n O.O.",
"n n n n n n v v v v n n n O.O.v O.O.O.O.O.O.O.O.O.O.O.O.O.n O.O.v v v v v n n v n n v v v n v n n v v n v v n n n n n n n O.O.O.",
"n n n n n v v v v v n n n O.O.O.O.O.O.O.O.O.O.O.O.O.O.O.n n n v v v v v v v v v v v v v n n n n n v n n n n n n n n O.O.n O.O.O.",
"n n n n n v v O.O.v n n n O.O.O.O.O.O.O.O.O.O.O.O.O.O.n n n n v v v v v v v v v v v v v n n n n n n n n n n n n n n O.O.O.O.O.O.",
"n n n n v v O.O.O.v O.O.n O.O.O.O.O.O.O.O.O.O.O.O.n n O.n O.O.v v v v v v v v v v v v v v n n n n n n n n n n n n n n O.O.O.O.O.",
"n n n O.O.v O.O.O.O.O.O.O.O.O.O.O.O.O.O.O.O.O.O.O.O.n O.O.O.O.v v v v v v v v v v v v v v O.O.n n n n O.n O.O.n n n n O.O.n O.n ",
"v n n O.O.O.O.O.O.O.O.O.O.O.O.O.O.O.O.O.O.O.O.O.O.O.O.O.O.O.O.O.O.v v v v v v O.O.v v v O.O.O.n O.O.n O.O.O.O.n n n n n n n n n ",
"v v v v O.O.O.O.O.O.O.O.O.O.O.O.O.O.O.O.O.O.O.O.O.O.O.O.O.O.O.O.O.v O.O.v O.O.O.O.O.O.v O.O.O.O.O.O.O.O.O.O.n n n n n n n n n n ",
"v v v v O.O.v O.v O.O.O.O.O.O.O.O.O.O.O.O.O.O.O.O.O.O.O.O.O.O.O.O.O.O.O.O.O.O.O.O.O.O.O.O.O.O.O.O.O.O.O.O.O.O.n n n n n n n n n ",
"v v v v v v v v v O.O.O.O.O.O.O.O.O.O.O.O.O.O.O.O.O.O.O.O.O.O.O.O.O.O.O.O.O.O.O.O.n O.O.O.O.O.O.O.v v O.O.O.O.v n v v n n n n n ",
"v v v v v v v v v O.O.O.O.O.O.O.O.O.O.O.O.O.O.O.O.O.O.O.O.O.O.O.O.O.O.O.O.O.O.O.O.n O.O.n O.v v v v v O.O.v v v v v v n n O.O.n ",
"v v v v v v v v v v O.O.O.O.O.O.O.O.O.O.O.O.O.O.O.O.O.O.O.O.O.O.n O.O.O.n O.O.n n n O.O.n v v v v v v v v v v v v v O.O.n O.O.O.",
"v v v v v v v v v v O.O.v O.v O.O.O.O.O.O.O.O.O.O.O.O.O.O.O.O.O.n O.O.n n n n n n n n n n v v v v v v v v v v v v v v O.O.O.O.O.",
"v v v v v v v v v v v v v v v O.O.O.O.O.O.O.O.O.O.O.O.O.O.O.O.n n n n n n n O.O.n O.n n n n v v v v v v v v v v v v v O.O.O.O.O.",
"v v v v O.O.v v v v O.v O.O.v v v O.O.O.O.O.O.O.O.O.O.O.O.O.O.O.n n n n n n O.O.O.O.O.n n n v n n v n n v n n v v O.O.O.O.O.O.O.",
"v O.O.O.O.O.v O.O.O.O.O.O.O.v v v O.O.O.O.O.O.O.O.O.O.O.O.O.O.O.n n n n n n O.O.O.O.O.n n O.v O.n n n n v n O.O.O.O.O.O.O.O.O.O.",
"O.O.O.O.O.O.O.O.O.O.O.O.O.v v O.v O.O.O.O.O.O.O.O.O.O.O.O.O.O.n n n n O.O.n O.O.O.O.O.O.O.O.O.O.n n n n n n n O.O.O.O.O.O.O.O.O."
};
