/* XPM */
static char *p4[] = {
/* columns rows colors chars-per-pixel */
"64 64 192 2 ",
"   c #030C07",
".  c #0C1F18",
"X  c #231200",
"o  c #321D01",
"O  c #0E281F",
"+  c #04093A",
"@  c #20132D",
"#  c #133521",
"$  c #14362A",
"%  c #183E28",
"&  c #193E31",
"*  c #363D29",
"=  c #432A01",
"-  c #523502",
";  c #4A3E1A",
":  c #443135",
">  c #1E4A34",
",  c #205034",
"<  c #255A3C",
"1  c #28663A",
"2  c #38613F",
"3  c #694202",
"4  c #7E5302",
"5  c #775116",
"6  c #594A25",
"7  c #4D4F31",
"8  c #6A4327",
"9  c #68572D",
"0  c #775925",
"q  c #664135",
"w  c #684035",
"e  c #42613C",
"r  c #5C6238",
"t  c #06144D",
"y  c #143341",
"u  c #101A72",
"i  c #281A79",
"p  c #162B74",
"a  c #193779",
"s  c #1C4748",
"d  c #1E5249",
"f  c #3F4B42",
"g  c #275643",
"h  c #295D4B",
"j  c #2A6443",
"k  c #2C6749",
"l  c #307647",
"z  c #327B47",
"x  c #31744C",
"c  c #2C6454",
"v  c #2F6956",
"b  c #2C6358",
"n  c #306C57",
"m  c #316E59",
"M  c #367C54",
"N  c #1B4A70",
"B  c #1F5378",
"V  c #265C68",
"C  c #265E77",
"Z  c #495B4C",
"A  c #535747",
"S  c #625A45",
"D  c #4F764B",
"F  c #425B79",
"G  c #895904",
"H  c #935D03",
"J  c #835B1A",
"K  c #986605",
"L  c #916511",
"P  c #A16603",
"I  c #A56A03",
"U  c #B47302",
"Y  c #B97603",
"T  c #BC7D05",
"R  c #A6691F",
"E  c #AC6D1E",
"W  c #8D5927",
"Q  c #835232",
"!  c #816023",
"~  c #92683C",
"^  c #A66924",
"/  c #B77825",
"(  c #AF773E",
")  c #C67E03",
"_  c #D0651E",
"`  c #CE771A",
"'  c #C17B26",
"]  c #8A684C",
"[  c #AD764B",
"{  c #CC5474",
"}  c #F84C6B",
"|  c #36834A",
" . c #38874C",
".. c #38884C",
"X. c #BF8108",
"o. c #CB8303",
"O. c #C2840B",
"+. c #CA890E",
"@. c #D48805",
"#. c #D68B04",
"$. c #DD8D03",
"%. c #DE9005",
"&. c #DE930A",
"*. c #D98B1D",
"=. c #DE901F",
"-. c #E49303",
";. c #E99602",
":. c #E89708",
">. c #F49D04",
",. c #F99E05",
"<. c #F79F09",
"1. c #EA9713",
"2. c #F29B1A",
"3. c #F89E1E",
"4. c #FCA103",
"5. c #F9A008",
"6. c #FCA519",
"7. c #CE8421",
"8. c #F8A93A",
"9. c #DE8D4B",
"0. c #F49E4D",
"q. c #EF9E5F",
"w. c #CDB65C",
"e. c #D4B755",
"r. c #F4BA48",
"t. c #D7C25F",
"y. c #EFC659",
"u. c #D9CA68",
"i. c #DDD572",
"p. c #E5DA72",
"a. c #120C83",
"s. c #1F1484",
"d. c #150F93",
"f. c #160E9E",
"g. c #191296",
"h. c #17109B",
"j. c #18129A",
"k. c #32228C",
"l. c #170FA3",
"z. c #1C15A6",
"x. c #1D15AD",
"c. c #221DA5",
"v. c #2D28AF",
"b. c #3531B1",
"n. c #4F3484",
"m. c #5D3B85",
"M. c #503591",
"N. c #276596",
"B. c #285ABC",
"V. c #2E70B1",
"C. c #3472B0",
"Z. c #327EB4",
"A. c #674084",
"S. c #6A4284",
"D. c #605A8A",
"F. c #4D7BA9",
"G. c #7372AF",
"H. c #7271B4",
"J. c #2F68CD",
"K. c #3172C1",
"L. c #3E75EA",
"P. c #397AF7",
"I. c #CC6283",
"U. c #C171B0",
"Y. c #3684B8",
"T. c #4487BC",
"R. c #388BC6",
"E. c #3989D5",
"W. c #3E97D6",
"Q. c #3B83F7",
"!. c #3D8BF7",
"~. c #3F93F7",
"^. c #4288C2",
"/. c #449ADB",
"(. c #5283F2",
"). c #4094F7",
"_. c #439EF6",
"`. c #7395E8",
"'. c #44A5EA",
"]. c #45A3F7",
"[. c #47ABF5",
"{. c #49AEF7",
"}. c #63A9E8",
"|. c #9F96A2",
" X c #8E8EB6",
".X c #AA86B9",
"XX c #BA8FB8",
"oX c #DE9888",
"OX c #F88EBB",
"+X c #8A8CDC",
"@X c #B293C0",
"#X c #CEC7E4",
/* pixels */
"M M M M M M M M M M M M m m m ....m ........................M M M M M M M M M M M M M M m m M m M M M M M m m m m m m m m m m m ",
"M M M M M M M M M M M M m m m M m h z ......................M M M M M M M M M M M M M M M m m m M M m M M m m m m m m m m m m m ",
"m M M M M M j < M M m m m m m M g Z.$ n ..M ......M 1 1 M M M M M M M M M M M M M M M M M m m m m m m m m m m m m m m m m m m m ",
"M M M M M % Y.W.% % m m m m m % Y.F I * < M ....M k L L k M M M M M M M M M M M M M M M m m m m m m m m m m m m m m m m m m m m ",
"M M M j   P._.[.[.[.    m m O [.{.= %.4.@.  M M M j I $.H M M M M M M m m M M M M M M M M m m m m m m m m m m m m m m m m m m m ",
"B B a B.P.!.{.{.{.{.{.V.b V '.{.{.= %.p.8.6.5 D x e U $.$.3 x m M M m m m m M M M M M M M m m m m m m m m m m m m m m m m m m m ",
"{.{.~.P.P.Q.[.{.{.{.{.!.t E.{.{.{.= %.p.p.y.4.U 4 K o.@.%.$., m M m m m m M M M M M M m m m m m m m m m m m m m m m m m m m m m ",
"Z.{.{._.P.P.Q.{.{.{.].Q.J.).{.{.{.= %.p.r.r.4.>.;.;.;.-.o.$.> m M m m m m M M M M m M m m m m m m m m m m m m m m m m m m m m m ",
"b N {.{.[._.P.{.{.{.].P.P.[.{.{.K.s.m.D.S.S.S.S.S.4.4.A.n.m.u p M m m m m M M M M m m m m m m m m m m m m m m m m m m m m m m m ",
"m m . V.'.{.).P.{.{.].P.Q.{.{.{.V.x.x.x.x.x.x.x.x.d.d.l.l.l.l.a.M M m m m m M M m m m m m m m m m m m m m m m m m m m m m m m m ",
"m m m h & /.{.!.!.{.].P.].{.{.{.{.i M.z.x.x.g.H.v.x.z.l.G.z.l.a m M m m m m M m m m m m m m m m m m m m m m m m m m m m m m M M ",
"m m m m m C '.{.!.).{.!.P.].{.{.R.K [ k.x.x.a. Xb.j.h.f. Xc.a.b m M M m m m M m m m m m m m m m m m m m m m m m m m M M m M M M ",
"m m m m m y B N.[.].).].].Q.[./.] T &.9.g.j.j.j.j.9.9.d.d.d.( 6 m m M m m m M m m m m m m m m m m m m m m m m m m M M M m M M M ",
"m m m m y <.<.2.Z.{.].].{.{.Q.W.K T :.4.3.3.2.w.i.t.u.u.=.3.+.3 m m M M m m M m m m m m m m m m m m m m m m M M m M M M M M M M ",
"m m m A 1.4.4.4.7./.'.~.Q.F.L.W.~ T -.>.4.4.,.e.i.e.t.u.;.>.O.6 m m m M m M M m m m m m m m m m m m m m m m M M M M M M M M M M ",
"m m m W >.4.-.4.4.w C R.^.^ .X].R.K X.O.:.,.4.;.@.-.-.%.>.+.! v m m m M m M m m m m m m m m m m m m m m m m m M M M M M M M M M ",
"m m m f 1.>.W ) 4.w | s ^ @.4.@X].T.K T O.@.@.@.@.@.#.#.o.G c m m m m M M M m m m m m m m m m m m m m m m m m M M m M m M M M m ",
"m m m v 9 8 @ G 4.w ..d ) -.4.8.+X{.F.- - - - - - - - - - v m m m m M M M m m m m m m m m m m m m m m m m m m m m m m m M M m m ",
"m m m m m  .g K 5.q l R o.4.4.4.U (.{.{.{.{.}./ T |.{.].C.m m m m M M M m m m m m m m m m m m m m m m m m m m m m m m m m m m m ",
"m m m m m l 8 4.' c l R o.4.4.4.U 0.`.].].].].U.} #X+XJ.M m M M M M M m m m m m m m m m m m m m m m m m m m m m m m m m m m m m ",
"M m m m m S ` 4.~ v l R o.4.4.4.U 4.oXXX.X.XXXI.OX{ q.# M M M M M M m m m m m m m m m m m m m m m m m m m m m m m m m m m m m m ",
"M m m m m Q 4.<.s m l R o.4.4.4.U 4.4.4.U ;.4.` { _ 4.# M M M m m m m m m M M m m m m M m M M m m m m m m m m m m m m m m m m m ",
"M m m m m Q 4.<.s ..l R o.4.4.4.U 4.4.P @.4.4.,.P ,.H M M M m m m m m m M M M m M M m M M M M m m m m m m m m m M M m m m m M m ",
"M m m m m : @.<.A  .l R o.4.4.4.$.P ) H $.4.4.4.P @.; M M M m m m M M m M M M M M M M M M M m m m m m m m m m M M M m M M m M M ",
"M m m m m c / 4.*.Z 1 I ) @.4.4.4.@.o.$.4.4.4.4.G > x M M m m m m M M M M M M M M M M M M M M m m m m m M M m M M M M M M M M M ",
"M m m m m v 7 ) 4.7.E I ) ) $.;.4.4.4.4.4.4.4.@.2 M M M M m m m m m M M M M M M M M M M M M M m m m m M M M M M M M M M M M M M ",
"M M m m m m c : @.4.$.I ) ) ) o.>.4.4.4.4.4.o.r M M M M M M m m m m M M m M m M M M m M M m m m M M m M M M M M M M M M M M M M ",
"m M m m m m M m + +   I ) ) ) ) ) ) ) ) ) ) Y < M M M M M M m m m m m m m m m M M m m m m m m m M M M M M M M M M M M M M M M M ",
"m M M m m m M m m m h I ) Y 7 $ $ $ J ) ) U > M ....M M M M m m m m m m m m m m m m m m m m m m M M M M M M M M M M M M M M m m ",
"m m M M m m M m m m 7 U ) 0 M M m m < T Y r ..M ....M M M M m m m m m m m m m m m m m m m m m m m M M M M M M M M M M M M M m M ",
"m m m M m m M m m m 3 ) 5 v m M M v 0 ) 9 | ..M ......M M M m m m m m m m m m m m m m m m m m m m M M m M M M M M M M M M M M M ",
"m m m M M m M m m m X = v m m m M v o = | ....M ......M M M m m m m m m m m m m m m m m m m m m m m m m M M M M M M M M M M M M ",
"m m m m M M M m m m m m M m m m M M M ........M ......M M M m m m m m m m m m m m m m m m m m m m m M M M M M M M M M M M M M M ",
"m m m m m M M m m m m m M m m m m M M ................m M M m m m m m m m m m m m m m m m m m m m m M M M M M M M M M M M M M M ",
"m m m m m m M m m m m m M m m m m M M ..........M ....m M M m m m m m m m m m m m m m m m m m m M M m M M M M M M M M M M M M M ",
"m m m m m m M m m m m M M m m m m m M ..........M ....m M M M m m m m m m m m m m m m m m m m m M M M M M M M M M M M M M M m m ",
"m m m m m m M M m m m M m m m m m m M ..........M M M m M M M m m m m m m m m m m m m m m m m m m M M M M M M M M M M M M M m m ",
"m m m m m m M M m m M M m m m m m m m ............M M m M M M m m m m m m m m m m m m m m m m m m M M m M M M M M m M M m m m m ",
"m m m m m m M M m M M m m m m m m m m ............M M m m m m m m m m m m m m m m m m m m m m m m m m m m m M M m m m m m m m m ",
"m m m m m m m M M M m m m m m m m m m ............M M m M M M M m m m m m M M m M M m M m m m m m m m m m m m m m m m m m m m m ",
"m m m m m m m M M M m m m m m m m m m ............M M m M M M M m m m m m M M M M M M M m m M M m m m m m m m m m m m m m ....m ",
"m m m m m m m M M m m m m m m m m m m ......M ....M M M M M M M m m m m m M M M M M M M M M M M m M M m M m m m m m m m ........",
"m m m m m m m m M M m m m m m m m m m M ....M M M M M M M M M M m m m m m m M M M M M M M M M M M M M M M M m m m ....m ........",
"m m m m m m m m M M M m m m m m m m m M M M M M ....M M M M ..M ....m m m M M M M M M M M M m m M M M m M M m m m ..............",
"m m m m m m m m M M M m m m m m m m m m M M M ......M ....M ........m m M M M M M M M M M M m m M M m m m m m m m m ............",
"M m M m m m m m m M M m m m m m m m m m ....M ....................m m m M M M M M M m m M M m m m m m m m m m m m m ....M ..M ..",
"M M M m M M m m m M M M m m m m m ....m ............................m m m m M M M m m m m m m m m m m m m m m m M m m m M M M ..",
"M M M M M M m m m m M M m m m m ......m ............................m m m M M M M M m m m m m m m m m m m m m m M m m M M M ....",
"M M M M M M m m m m M M M ....m ..........................M ....m m m m m M M m M M m m m M m M M m m M m m M M M M M M M ......",
"M M M M M m m m m m M M M ..............................M M M m m m m m m m m m m m m m M M M M M m M M M M M M M M ....M ......",
"M M M M M m m ....m M M M ............................M M M M m m m m m m m m m m m m m M M M M M M M M M M M M M M ............",
"M M M M m m ......m ....M ........................M M ..M ....m m m m m m m m m m m m m m M M M M M M M M M M M M M M ..........",
"M M M ....m ........................................M ........m m m m m m m m m m m m m m ....M M M M ..M ....M M M M ....M ..M ",
"m M M ............................................................m m m m m m ....m m m ......M ....M ........M M M M M M M M M ",
"m m m m ..........................................................m ....m ............m ....................M M M M M M M M M M ",
"m m m m ....m ..m ............................................................................................M M M M M M M M M ",
"m m m m m m m m m ................................................................M ..............m m ........m M m m M M M M M ",
"m m m m m m m m m ................................................................M ....M ..m m m m m ....m m m m m m M M ....M ",
"m m m m m m m m m m ............................................M ......M ....M M M ....M m m m m m m m m m m m m m ....M ......",
"m m m m m m m m m m ....m ..m ..................................M ....M M M M M M M M M M m m m m m m m m m m m m m m ..........",
"m m m m m m m m m m m m m m m ................................M M M M M M M ....M ..M M M M m m m m m m m m m m m m m ..........",
"m m m m ....m m m m ..m ....m m m ..............................M M M M M M ..........M M M m M M m M M m M M m m ..............",
"m ..........m ..............m m m ..............................M M M M M M ..........M M ..m ..M M M M m M ....................",
"..........................m m ..m ............................M M M M ....M ....................M M M M M M M .................."
};
