/* XPM */
static char *p5[] = {
/* columns rows colors chars-per-pixel */
"64 64 196 2 ",
"   c #050402",
".  c #081A11",
"X  c #241602",
"o  c #331E01",
"O  c #322717",
"+  c #160B25",
"@  c #251636",
"#  c #08202E",
"$  c #193E32",
"%  c #153D3D",
"&  c #353D22",
"*  c #382236",
"=  c #452800",
"-  c #5D3B03",
";  c #553F0E",
":  c #4D302F",
">  c #593B2C",
",  c #462A37",
"<  c #2F4A33",
"1  c #225438",
"2  c #285F3F",
"3  c #296839",
"4  c #35703D",
"5  c #784D18",
"6  c #745212",
"7  c #4C5135",
"8  c #764D24",
"9  c #75492E",
"0  c #7E4F2E",
"q  c #685A29",
"w  c #764934",
"e  c #45693C",
"r  c #090653",
"t  c #0B2344",
"y  c #0E2E44",
"u  c #122D42",
"i  c #123142",
"p  c #263F43",
"a  c #13256F",
"s  c #173574",
"d  c #1E4D44",
"f  c #1F4A49",
"g  c #16405E",
"h  c #265448",
"j  c #285C4B",
"k  c #365248",
"l  c #275A55",
"z  c #2B6846",
"x  c #2C684E",
"c  c #346E49",
"v  c #2F7449",
"b  c #347645",
"n  c #337C45",
"m  c #32714B",
"M  c #2F6A56",
"N  c #2C6459",
"B  c #306B57",
"V  c #316E59",
"C  c #367C54",
"Z  c #1C4C73",
"A  c #1F5174",
"S  c #255C6A",
"D  c #22547B",
"F  c #286171",
"G  c #405A43",
"H  c #77505C",
"J  c #69477E",
"K  c #F7233F",
"L  c #855603",
"P  c #8D5B03",
"I  c #935F03",
"U  c #895A1E",
"Y  c #B05D13",
"T  c #9A6202",
"R  c #9B6805",
"E  c #A56B02",
"W  c #A66904",
"Q  c #AB7307",
"!  c #B57302",
"~  c #B57A05",
"^  c #BB7D05",
"/  c #A86B17",
"(  c #B6741A",
")  c #805D3C",
"_  c #A86C28",
"`  c #A07925",
"'  c #B37229",
"]  c #C67E03",
"[  c #C8710F",
"{  c #C06B14",
"}  c #B82A46",
"|  c #985F79",
" . c #94636D",
".. c #9B6277",
"X. c #A3686D",
"o. c #B06F6D",
"O. c #B2716B",
"+. c #E2415F",
"@. c #C24260",
"#. c #36844A",
"$. c #38884C",
"%. c #BE8105",
"&. c #CB8403",
"*. c #C3850B",
"=. c #C6850A",
"-. c #D48702",
";. c #D58903",
":. c #DD8E03",
">. c #D48E0C",
",. c #DF9004",
"<. c #DA910B",
"1. c #C8801E",
"2. c #DA8C17",
"3. c #D6891D",
"4. c #E49303",
"5. c #EB9702",
"6. c #EF9902",
"7. c #E4960A",
"8. c #F49C03",
"9. c #F89F04",
"0. c #E79417",
"q. c #FCA203",
"w. c #DE9B28",
"e. c #E8943E",
"r. c #CFA13D",
"t. c #F1A43A",
"y. c #95897F",
"u. c #B1A27D",
"i. c #CF8C54",
"p. c #C9A343",
"a. c #CDB050",
"s. c #F5B642",
"d. c #F1BD4D",
"f. c #E89A70",
"g. c #F0C659",
"h. c #D9CB67",
"j. c #E9D268",
"k. c #E2DC75",
"l. c #120C89",
"z. c #121A80",
"x. c #181298",
"c. c #291B93",
"v. c #170FA3",
"b. c #180FA5",
"n. c #1A13A2",
"m. c #1E16AC",
"M. c #291BA6",
"N. c #3F3CA7",
"B. c #482D87",
"V. c #523590",
"C. c #1D4596",
"Z. c #214D88",
"A. c #296A98",
"S. c #366992",
"D. c #2554AA",
"F. c #2E76AB",
"G. c #3678A9",
"H. c #327DBB",
"J. c #674180",
"K. c #744981",
"L. c #794C81",
"P. c #4E749B",
"I. c #776F90",
"U. c #4643B1",
"Y. c #6A6CBF",
"T. c #2B5FC7",
"R. c #316DD3",
"E. c #3576E7",
"W. c #397AF7",
"Q. c #805188",
"!. c #8572AD",
"~. c #E96386",
"^. c #867ED1",
"/. c #3B8FD9",
"(. c #3E96D5",
"). c #3C8AE8",
"_. c #3F95EC",
"`. c #3C84F6",
"'. c #3E8CF7",
"]. c #4592CE",
"[. c #419EE1",
"{. c #4295F6",
"}. c #439DF7",
"|. c #788AE5",
" X c #44A3E7",
".X c #45A3F7",
"XX c #4BA4F5",
"oX c #47ABF4",
"OX c #49AFF7",
"+X c #5BA9F3",
"@X c #989081",
"#X c #A09199",
"$X c #B48CBE",
"%X c #F7A9B1",
"&X c #A589CB",
"*X c #CACACA",
/* pixels */
"C C C C C C x y C C C C V V V #.n # o o 4 $.$.$.$.$.#.o 4 $.C C C C C C C C C C C C C C V V C V C C C C C V V V V V V V V V V V ",
"C C C C m s H.oXA A m m M V M S A.P.*.&.P n $.$.$.#.; *.P n C C C C C C C C C C C C C C C V V V C C V C C V V V V V V V V V V V ",
"j z z S C.W.}.OXOXoXA.D j V F  X[.I 9.s.w.6 n $.$.1 ~ :.:.. m C C C C C C C C C C C C C C V V V V V V V V V V V V V V V V V V V ",
"F.F.D.T.W.W.OXOXOXOXOX_.D l (.OX[.I 9.k.g.:.` e 2 q &.:.:.I 1 C C C C C C C C C C C C C V V V V V V V V V V V V V V V V V V V V ",
"OXOX{.W.W.W..XOXOXOXOX}.C.T.OXOX[.P 9.k.k.g.8.E I Q &.-.:.;.1 C C C C V V C C C C C C C C V V V V V V V V V V V V V V V V V V V ",
"F.OXOX.X`.W.`.oXOXOXOX`.R.W.OXOX[.P 9.j.s.t.q.6.5.5.5.4.&.;.1 V C C V V V V C C C C C C C V V V V V V V V V V V V V V V V V V V ",
"N A oXOXoX.XW..XOXOXOXW.W..XOXOXD.B.K.I.L.L.L.L...q.q.K.V.J.a s C V V V V C C C C C C V V V V V V V V V V V V V V V V V V V V V ",
"V M i A.OXOX{.W.OXOXOXW.W.OXOXOXx.m.m.m.m.m.m.m.M.B.B.v.v.v.v.l.C V V V V C C C C V C V V V V V V V V V V V V V V V V V V V V V ",
"V V V j . oXoX`.`.OXOXW.}.OXOXOX[.c.m.m.m.m.m.U.m.m.b.v.N.v.v.z.C V V V V C C C C V V V V V V V V V V V V V V V V V V V V V V V ",
"V V V V M w w w E.{.OX.XW..XOXOXX R J x.m.m.  *Xm.m.v.l.*Xv.l.N C C V V V V C C V V V V V V V V V V V V V V V V V V V V V V V V ",
"V V V M ) q.q.q. .E.}..X'.W..X[.L *.<.Q.n.n.r r V.| ..l.r c.H G V C V V V V C V V V V V V V V V V V V V V V V V V V V V V V C C ",
"V V V k 2.q.q.q.0.I.'..XOX{.{.Z ^ *.q.e.o.o.X.@Xu.t.d.y.X.O.=.- V C C V V V C V V V V V V V V V V V V V V V V V V V C C V C C C ",
"V V V : 4.q.4.8.q._ F.D.).oXR.s ^ *.q.q.q.q.4.h.k.a.k.h.5.q.=.- V V C V V V C V V V V V V V V V V V V V V V V V V C C C V C C C ",
"V V V : ,.q.1./ q.0.* l Z.S.!./.L %.<.7.q.q.9.r.p.w.p.r.9.<.Q G V V C C V V C V V V V V V V V V V V V V V V C C V C C C C C C C ",
"V V V k U E 8 * q.q., V d ( i.|.].R %.*.>.q.q.9.8.9.8.9.7.*.7 B V V V C V C C V V V V V V V V V V V V V V V C C C C C C C C C C ",
"V V V V p @ + 5 q.' B v _ &.q.t.`.G.~ ^ ^ %.%.%.%.%.%.%.^ O V V V V V C V C V V V V V V V V V V V V V V V V V C C C C C C C C C ",
"V V V V $.$.h 5 q._ #.m _ &.q.q.f.{.g y y y y O o o u y t V V V V V V C C C V V V V V V V V V V V V V V V V V C C V C V C C C V ",
"V V V V $.#.> R 0.z $.9 ] q.q.q.5.!.XXOXOXOXOX#X[ i.+X.X).V V V V V C C C V V V V V V V V V V V V V V V V V V V V V V V C C V V ",
"V V V V V c _ 8.1.v $.9 ] q.q.q.5.-.&X.X.X.X.X.XK %X+X^.S.V V V V C C C V V V V V V V V V V V V V V V V V V V V V V V V V V V V ",
"V V V V V , q.q.% V $.9 ] q.q.q.5.-.q.$X$XY.$X$X+.~.$X;.z V C C C C C V V V V V V V V V V V V V V V V V V V V V V V V V V V V V ",
"C V V V V , q.q.i V $.9 ] q.q.q.5.-.q.q.;.! q.q.} @.9.;.z C C C C C V V V V V V V V V V V V V V V V V V V V V V V V V V V V V V ",
"C V V V V , q.q.i V $.9 ] q.q.q.8.! 9.q.! 6.q.q.{ Y 9.-.z C C V V V V V V C C V V V V C V C C V V V V V V V V V V V V V V V V V ",
"C V V V V @ -.q.i $.$.9 ] q.q.q.q.;.E 4.! q.q.q.9.] 9.I z C V V V V V V C C C V C C V C C C C V V V V V V V V V C C V V V V C V ",
"C V V V V M ' q.0.z $.9 ] &.q.q.q.:.] E ] q.q.q.q.:.E < C C V V V C C V C C C C C C C C C C V V V V V V V V V C C C V C C V C C ",
"C V V V V M > 4.q.' , 0 ] ] :.q.q.q.q.q.q.q.q.q.q.q.= C C V V V V C C C C C C C C C C C C C C V V V V V C C V C C C C C C C C C ",
"C V V V V V j 8 6.q.q.3./ ] ] ] 8.8.q.q.q.q.q.q.q.-.& C C V V V V V C C C C C C C C C C C C C V V V V C C C C C C C C C C C C C ",
"C C V V V V V f U 3.3.( W ] ] ] ] ] 5.5.5.5.5.5.4.L C C C C V V V V C C V C V C C C V C C V V V C C V C C C C C C C C C C C C C ",
"V C V V V V C V f f f d U ] ] ] T T T T T ] ] ] ^ q C C C C V V V V V V V V V C C V V V V V V V C C C C C C C C C C C C C C C C ",
"V C C V V V C V V V V V $ ] ] I h h 2 3 3 P ] ] 6 n C C C C V V V V V V V V V V V V V V V V V V C C C C C C C C C C C C C C V V ",
"V V C C V V C V V V V V $ ] W e V V C $.$.o ] L b $.C C C C V V V V V V V V V V V V V V V V V V V C C C C C C C C C C C C C V C ",
"V V V C V V C V V V V V $ ] T m C V C $.$.o ] - $.$.$.C C C V V V V V V V V V V V V V V V V V V V C C V C C C C C C C C C C C C ",
"V V V C C V C V V V V V $ o < B C V C $.$.  o c $.$.$.C C C V V V V V V V V V V V V V V V V V V V V V V C C C C C C C C C C C C ",
"V V V V C C C V V V V V C V V V C C C $.$.$.$.C $.$.$.C C C V V V V V V V V V V V V V V V V V V V V C C C C C C C C C C C C C C ",
"V V V V V C C V V V V V C V V V V C C $.$.$.$.$.$.$.$.V C C V V V V V V V V V V V V V V V V V V V V C C C C C C C C C C C C C C ",
"V V V V V V C V V V V V C V V V V C C $.$.$.$.$.C $.$.V C C V V V V V V V V V V V V V V V V V V C C V C C C C C C C C C C C C C ",
"V V V V V V C V V V V C C V V V V V C $.$.$.$.$.C $.$.V C C C V V V V V V V V V V V V V V V V V C C C C C C C C C C C C C C V V ",
"V V V V V V C C V V V C V V V V V V C $.$.$.$.$.C C C V C C C V V V V V V V V V V V V V V V V V V C C C C C C C C C C C C C V V ",
"V V V V V V C C V V C C V V V V V V V $.$.$.$.$.$.C C V C C C V V V V V V V V V V V V V V V V V V C C V C C C C C V C C V V V V ",
"V V V V V V C C V C C V V V V V V V V $.$.$.$.$.$.C C V V V V V V V V V V V V V V V V V V V V V V V V V V V C C V V V V V V V V ",
"V V V V V V V C C C V V V V V V V V V $.$.$.$.$.$.C C V C C C C V V V V V C C V C C V C V V V V V V V V V V V V V V V V V V V V ",
"V V V V V V V C C C V V V V V V V V V $.$.$.$.$.$.C C V C C C C V V V V V C C C C C C C V V C C V V V V V V V V V V V V V $.$.V ",
"V V V V V V V C C V V V V V V V V V V $.$.$.C $.$.C C C C C C C V V V V V C C C C C C C C C C C V C C V C V V V V V V V $.$.$.$.",
"V V V V V V V V C C V V V V V V V V V C $.$.C C C C C C C C C C V V V V V V C C C C C C C C C C C C C C C C V V V $.$.V $.$.$.$.",
"V V V V V V V V C C C V V V V V V V V C C C C C $.$.C C C C $.C $.$.V V V C C C C C C C C C V V C C C V C C V V V $.$.$.$.$.$.$.",
"V V V V V V V V C C C V V V V V V V V V C C C $.$.$.C $.$.C $.$.$.$.V V C C C C C C C C C C V V C C V V V V V V V V $.$.$.$.$.$.",
"C V C V V V V V V C C V V V V V V V V V $.$.C $.$.$.$.$.$.$.$.$.$.V V V C C C C C C V V C C V V V V V V V V V V V V $.$.C $.C $.",
"C C C V C C V V V C C C V V V V V $.$.V $.$.$.$.$.$.$.$.$.$.$.$.$.$.V V V V C C C V V V V V V V V V V V V V V V C V V V C C C $.",
"C C C C C C V V V V C C V V V V $.$.$.V $.$.$.$.$.$.$.$.$.$.$.$.$.$.V V V C C C C C V V V V V V V V V V V V V V C V V C C C $.$.",
"C C C C C C V V V V C C C $.$.V $.$.$.$.$.$.$.$.$.$.$.$.$.C $.$.V V V V V C C V C C V V V C V C C V V C V V C C C C C C C $.$.$.",
"C C C C C V V V V V C C C $.$.$.$.$.$.$.$.$.$.$.$.$.$.$.C C C V V V V V V V V V V V V V C C C C C V C C C C C C C C $.$.C $.$.$.",
"C C C C C V V $.$.V C C C $.$.$.$.$.$.$.$.$.$.$.$.$.$.C C C C V V V V V V V V V V V V V C C C C C C C C C C C C C C $.$.$.$.$.$.",
"C C C C V V $.$.$.V $.$.C $.$.$.$.$.$.$.$.$.$.$.$.C C $.C $.$.V V V V V V V V V V V V V V C C C C C C C C C C C C C C $.$.$.$.$.",
"C C C $.$.V $.$.$.$.$.$.$.$.$.$.$.$.$.$.$.$.$.$.$.$.C $.$.$.$.V V V V V V V V V V V V V V $.$.C C C C $.C $.$.C C C C $.$.C $.C ",
"V C C $.$.$.$.$.$.$.$.$.$.$.$.$.$.$.$.$.$.$.$.$.$.$.$.$.$.$.$.$.$.V V V V V V $.$.V V V $.$.$.C $.$.C $.$.$.$.C C C C C C C C C ",
"V V V V $.$.$.$.$.$.$.$.$.$.$.$.$.$.$.$.$.$.$.$.$.$.$.$.$.$.$.$.$.V $.$.V $.$.$.$.$.$.V $.$.$.$.$.$.$.$.$.$.C C C C C C C C C C ",
"V V V V $.$.V $.V $.$.$.$.$.$.$.$.$.$.$.$.$.$.$.$.$.$.$.$.$.$.$.$.$.$.$.$.$.$.$.$.$.$.$.$.$.$.$.$.$.$.$.$.$.$.C C C C C C C C C ",
"V V V V V V V V V $.$.$.$.$.$.$.$.$.$.$.$.$.$.$.$.$.$.$.$.$.$.$.$.$.$.$.$.$.$.$.$.C $.$.$.$.$.$.$.V V $.$.$.$.V C V V C C C C C ",
"V V V V V V V V V $.$.$.$.$.$.$.$.$.$.$.$.$.$.$.$.$.$.$.$.$.$.$.$.$.$.$.$.$.$.$.$.C $.$.C $.V V V V V $.$.V V V V V V C C $.$.C ",
"V V V V V V V V V V $.$.$.$.$.$.$.$.$.$.$.$.$.$.$.$.$.$.$.$.$.$.C $.$.$.C $.$.C C C $.$.C V V V V V V V V V V V V V $.$.C $.$.$.",
"V V V V V V V V V V $.$.V $.V $.$.$.$.$.$.$.$.$.$.$.$.$.$.$.$.$.C $.$.C C C C C C C C C C V V V V V V V V V V V V V V $.$.$.$.$.",
"V V V V V V V V V V V V V V V $.$.$.$.$.$.$.$.$.$.$.$.$.$.$.$.C C C C C C C $.$.C $.C C C C V V V V V V V V V V V V V $.$.$.$.$.",
"V V V V $.$.V V V V $.V $.$.V V V $.$.$.$.$.$.$.$.$.$.$.$.$.$.$.C C C C C C $.$.$.$.$.C C C V C C V C C V C C V V $.$.$.$.$.$.$.",
"V $.$.$.$.$.V $.$.$.$.$.$.$.V V V $.$.$.$.$.$.$.$.$.$.$.$.$.$.$.C C C C C C $.$.$.$.$.C C $.V $.C C C C V C $.$.$.$.$.$.$.$.$.$.",
"$.$.$.$.$.$.$.$.$.$.$.$.$.V V $.V $.$.$.$.$.$.$.$.$.$.$.$.$.$.C C C C $.$.C $.$.$.$.$.$.$.$.$.$.C C C C C C C $.$.$.$.$.$.$.$.$."
};
