/* XPM */
static char *p6[] = {
/* columns rows colors chars-per-pixel */
"64 64 192 2 ",
"   c #2B1900",
".  c #351F02",
"X  c #0A2018",
"o  c #3D2302",
"O  c #061129",
"+  c #010333",
"@  c #04113A",
"#  c #14352E",
"$  c #0F2B3F",
"%  c #153A36",
"&  c gray22",
"*  c #5C3C02",
"=  c #5C3D1D",
"-  c #633D01",
";  c #482D31",
":  c #633F26",
">  c #1E4B31",
",  c #1E5035",
"<  c #374E35",
"1  c #24573A",
"2  c #265C3D",
"3  c #296839",
"4  c #2D713E",
"5  c #674304",
"6  c #714803",
"7  c #7D5314",
"8  c #5D4920",
"9  c #46423B",
"0  c #594735",
"q  c #6C4A21",
"w  c #725530",
"e  c #516531",
"r  c #786B3B",
"t  c #090649",
"y  c #0B075E",
"u  c #153847",
"i  c #15335C",
"p  c #110B77",
"a  c #122F66",
"s  c #153765",
"d  c #1D4648",
"f  c #235442",
"g  c #24554C",
"h  c #275A4B",
"j  c #255558",
"k  c #2A6644",
"l  c #2B624C",
"z  c #356C47",
"x  c #2F7541",
"c  c #337D45",
"v  c #32744E",
"b  c #327B4A",
"n  c #2C6452",
"m  c #2F6A56",
"M  c #306C57",
"N  c #316E59",
"B  c #367C54",
"V  c #194565",
"C  c #234E6A",
"Z  c #265868",
"A  c #245879",
"S  c #286269",
"D  c #316D67",
"F  c #596B41",
"G  c #585763",
"H  c #855301",
"J  c #8E5F03",
"K  c #945E02",
"L  c #875718",
"P  c #996403",
"I  c #91671B",
"U  c #A96C02",
"Y  c #AC710C",
"T  c #B77606",
"R  c #B97603",
"E  c #BB7B04",
"W  c #AD6F15",
"Q  c #BE7919",
"!  c #8D5928",
"~  c #935C2E",
"^  c #835833",
"/  c #9E6428",
"(  c #A86B2C",
")  c #BC7826",
"_  c #C57E03",
"`  c #C37D0C",
"'  c #C57E1E",
"]  c #CA5920",
"[  c #C67F24",
"{  c #B72641",
"}  c #866853",
"|  c #A16D4F",
" . c #8A5C6B",
".. c #A06669",
"X. c #B87468",
"o. c #A86A72",
"O. c #CD5645",
"+. c #D97B5B",
"@. c #E4715B",
"#. c #CE6C75",
"$. c #37854B",
"%. c #38874C",
"&. c #38884C",
"*. c #608243",
"=. c #C38104",
"-. c #CD8403",
";. c #C6840D",
":. c #CC8B0D",
">. c #D48A03",
",. c #D38806",
"<. c #DD8E03",
"1. c #C88814",
"2. c #DE8E1A",
"3. c #E1870D",
"4. c #E49303",
"5. c #E99603",
"6. c #EA9707",
"7. c #F59D03",
"8. c #F79E08",
"9. c #EE9A12",
"0. c #E79418",
"q. c #FCA203",
"w. c #FBA10E",
"e. c #FCA61C",
"r. c #D19A33",
"t. c #FBA426",
"y. c #F7B43D",
"u. c #AE8D77",
"i. c #F19E58",
"p. c #C6A040",
"a. c #D4BB58",
"s. c #D28D6F",
"d. c #E99B70",
"f. c #EFC457",
"g. c #EFC65A",
"h. c #DACC67",
"j. c #DCD26D",
"k. c #EBCE64",
"l. c #E2DD75",
"z. c #100A83",
"x. c #150F8E",
"c. c #150E92",
"v. c #160E9D",
"b. c #161092",
"n. c #17109C",
"m. c #19139A",
"M. c #312898",
"N. c #170FA3",
"B. c #1B14A2",
"V. c #1D15AD",
"C. c #215786",
"Z. c #225981",
"A. c #214D94",
"S. c #2A6882",
"D. c #276490",
"F. c #2B6C99",
"G. c #295AB7",
"H. c #3078B0",
"J. c #657795",
"K. c #504EAB",
"L. c #4D7AA5",
"P. c #2F65D1",
"I. c #397AF6",
"U. c #4679F2",
"Y. c #B07F8F",
"T. c #D74C8F",
"R. c #3685BD",
"E. c #3787C4",
"W. c #3A8AD2",
"Q. c #3F97E4",
"!. c #3C84F7",
"~. c #3E8CF7",
"^. c #419DDD",
"/. c #4999E5",
"(. c #4195F6",
"). c #439CF7",
"_. c #7B95E5",
"`. c #44A3E8",
"'. c #5DABEC",
"]. c #45A4F7",
"[. c #47ABF6",
"{. c #49AEF7",
"}. c #818181",
"|. c #A6A082",
" X c #8382BF",
".X c #A2A2A2",
"XX c #DA9788",
"oX c #CA94A7",
"OX c #F583AB",
"+X c #968FD5",
"@X c #A58ACB",
"#X c #A0C0E6",
/* pixels */
"B B B B B B B B B B B B N N N &.&.N   o $.$.&.&.&.&.&.$.. . B B B B B B B B B B B B B B N N B N B B B B B N N N N N N N N N N N ",
"B B v v v a V V V V s s m N M v n % =.e.6 e c &.&.$.c - <.<.> B B B B B B B B B B B B B B N N N B B N B B N N N N N N N N N N N ",
"N v Z.Z.Z.I.).{.{.{.).I.C N Z Z.Z.u =.f.y.r.H *.c z 6 <.<.<.> B B B B B B B B B B B B B B N N N N N N N N N N N N N N N N N N N ",
"B S.{.{.{.~.I.].{.{.{.~.P.j G.].{.F.=.f.l.k.e._ 6 H -.>.<.<.> B B B B B B B B B B B B B N N N N N N N N N N N N N N N N N N N N ",
"v W.[.E.E.{.(.!.[.{.{.{.!.G.!.[.{.F._ f.l.g.t.7.<.<.<.<.>.<.> B B B B N N B B B B B B B B N N N N N N N N N N N N N N N N N N N ",
"S `.H.f f H.[.(.[.{.{.{.].I.~.{.`.A. .u.|.X.X.X.X.q.q.X. ...i C B B N N N N B B B B B B B N N N N N N N N N N N N N N N N N N N ",
"A E.h N N f F.R.{.{.{.{.{.).!.[.`.m.B.B.B.B.B.B.B.o.o.n.n.n.c.p B N N N N B B B B B B N N N N N N N N N N N N N N N N N N N N N ",
"j S N N N N l Z D.{.{.{.{.[.(.].[.G.m.V.V.V.p y m.B.B.N.y v.N.z.B N N N N B B B B N B N N N N N N N N N N N N N N N N N N N N N ",
"m m N N N N d $ + {.{.{.{.[.[.~.`.i | m.V.V.t }. XV.V.N..XK.v.Z B N N N N B B B B N N N N N N N N N N N N N N N N N N N N N N N ",
"N N N N N h 2.9.9.C.{.{.{.[.{.[.^.P 1. .V.V.t & M.b.b.N.< M.p n B B N N N N B B N N N N N N N N N N N N N N N N N N N N N N N N ",
"N N N N N ( q.q.q.0.E.{.{.[.{.{.= E :.w.M.b.x.x.c.w.w.c.x.x.1.5 N B N N N N B N N N N N N N N N N N N N N N N N N N N N N N B B ",
"N N N N @ _ q.q.q.q.( $ [.{.{.!.* E :.q.q.q.q.p.l.j.a.l.<.q.:.5 N B B N N N B N N N N N N N N N N N N N N N N N N N B B N B B B ",
"N N N N @ _ q.4.,.q.) n H.`./.U.G T :.8.q.q.q.r.j.h.a.j.4.8.;.8 N N B N N N B N N N N N N N N N N N N N N N N N N B B B N B B B ",
"N N N N u W 4.' : q.q.@ h O ~ @XQ.} E ;.6.8.q.7.-.>.4.>.8.:.I n N N B B N N B N N N N N N N N N N N N N N N B B N B B B B B B B ",
"N N N N N 9 q = ; q.0.O b w -.7.+XE.P E ;.,.5.5.5.5.5.5.<.Y f N N N N B N B B N N N N N N N N N N N N N N N B B B B B B B B B B ",
"N N N N N n d , q q.( 3 l Q <.q.i._.L.J J J J J J J J J J < N N N N N B N B N N N N N N N N N N N N N N N N N B B B B B B B B B ",
"N N N N &.&.N < 7 9.r &.w ` 5.q.q.Y.~.R.R.R.R.L.J J J.R.H.D N N N N N B B B N N N N N N N N N N N N N N N N N B B N B N B B B N ",
"N N N N &.&.&.; =.0.k $.! _ q.q.q.R oX].{.{.{.'.#.@.#X(.W.D N N N N B B B N N N N N N N N N N N N N N N N N N N N N N N B B N N ",
"N N N N N &.f 2.7.^ $.$.! _ q.q.q.R t.@X~.~.~.~.T.OX@XXXA N N N N B B B N N N N N N N N N N N N N N N N N N N N N N N N N N N N ",
"N N N N N &.% q.q.$ &.$.! _ q.q.q.R q.i.d.s.s.d.O.OX+.q.1 N B B B B B N N N N N N N N N N N N N N N N N N N N N N N N N N N N N ",
"B N N N N N $ q.q.$ &.$.! _ q.q.q.R q.q.q.U 7.q.] { 3.q.1 B B B B B N N N N N N N N N N N N N N N N N N N N N N N N N N N N N N ",
"B N N N N N $ q.q.$ &.$.! _ q.q.q.<.K q.7._ q.q.<._ <.7.1 B B N N N N N N B B N N N N B N B B N N N N N N N N N N N N N N N N N ",
"B N N N N N u Y q.0 $.$.! _ q.q.q.q._ -.K <.q.q.q.7.>.J 2 B N N N N N N B B B N B B N B B B B N N N N N N N N N B B N N N N B N ",
"B N N N N N N ^ 7.9.F b ! _ >.q.q.q.,.R ,.4.q.q.q.7.U # B B N N N B B N B B B B B B B B B B N N N N N N N N N B B B N B B N B B ",
"B N N N N N N 9 ;.q.[ ~ / _ _ 5.7.q.q.q.q.q.q.q.q.q.P B B N N N N B B B B B B B B B B B B B B N N N N N B B N B B B B B B B B B ",
"B N N N N N N n 0 <.q.q.Q E _ _ -.5.5.q.q.q.q.q.q.<.w B B N N N N N B B B B B B B B B B B B B N N N N B B B B B B B B B B B B B ",
"B B N N N N N N h q ) ) L E _ _ _ _ -.4.4.4.4.4.4.R k B B B N N N N B B N B N B B B N B B N N N B B N B B B B B B B B B B B B B ",
"N B N N N N B N N g g g g L _ _ R H H H H U _ _ _ 7 v B B B N N N N N N N N N B B N N N N N N N B B B B B B B B B B B B B B B B ",
"N B B N N N B N N N N N N X _ _ q h k 4 4 e R _ K x B B B B N N N N N N N N N N N N N N N N N N B B B B B B B B B B B B B B N N ",
"N N B B N N B N N N N N N X _ H n N B &.&.3 R T e &.B B B B N N N N N N N N N N N N N N N N N N N B B B B B B B B B B B B B N B ",
"N N N B N N B N N N N N N X _ - B N B &.&.3 R U x &.&.B B B N N N N N N N N N N N N N N N N N N N B B N B B B B B B B B B B B B ",
"N N N B B N B N N N N N N X   l B N B &.&.3   < %.&.&.B B B N N N N N N N N N N N N N N N N N N N N N N B B B B B B B B B B B B ",
"N N N N B B B N N N N N B N N N B B B &.&.&.&.B &.&.&.B B B N N N N N N N N N N N N N N N N N N N N B B B B B B B B B B B B B B ",
"N N N N N B B N N N N N B N N N N B B &.&.&.&.&.&.&.&.N B B N N N N N N N N N N N N N N N N N N N N B B B B B B B B B B B B B B ",
"N N N N N N B N N N N N B N N N N B B &.&.&.&.&.B &.&.N B B N N N N N N N N N N N N N N N N N N B B N B B B B B B B B B B B B B ",
"N N N N N N B N N N N B B N N N N N B &.&.&.&.&.B &.&.N B B B N N N N N N N N N N N N N N N N N B B B B B B B B B B B B B B N N ",
"N N N N N N B B N N N B N N N N N N B &.&.&.&.&.B B B N B B B N N N N N N N N N N N N N N N N N N B B B B B B B B B B B B B N N ",
"N N N N N N B B N N B B N N N N N N N &.&.&.&.&.&.B B N B B B N N N N N N N N N N N N N N N N N N B B N B B B B B N B B N N N N ",
"N N N N N N B B N B B N N N N N N N N &.&.&.&.&.&.B B N N N N N N N N N N N N N N N N N N N N N N N N N N N B B N N N N N N N N ",
"N N N N N N N B B B N N N N N N N N N &.&.&.&.&.&.B B N B B B B N N N N N B B N B B N B N N N N N N N N N N N N N N N N N N N N ",
"N N N N N N N B B B N N N N N N N N N &.&.&.&.&.&.B B N B B B B N N N N N B B B B B B B N N B B N N N N N N N N N N N N N &.&.N ",
"N N N N N N N B B N N N N N N N N N N &.&.&.B &.&.B B B B B B B N N N N N B B B B B B B B B B B N B B N B N N N N N N N &.&.&.&.",
"N N N N N N N N B B N N N N N N N N N B &.&.B B B B B B B B B B N N N N N N B B B B B B B B B B B B B B B B N N N &.&.N &.&.&.&.",
"N N N N N N N N B B B N N N N N N N N B B B B B &.&.B B B B &.B &.&.N N N B B B B B B B B B N N B B B N B B N N N &.&.&.&.&.&.&.",
"N N N N N N N N B B B N N N N N N N N N B B B &.&.&.B &.&.B &.&.&.&.N N B B B B B B B B B B N N B B N N N N N N N N &.&.&.&.&.&.",
"B N B N N N N N N B B N N N N N N N N N &.&.B &.&.&.&.&.&.&.&.&.&.N N N B B B B B B N N B B N N N N N N N N N N N N &.&.B &.B &.",
"B B B N B B N N N B B B N N N N N &.&.N &.&.&.&.&.&.&.&.&.&.&.&.&.&.N N N N B B B N N N N N N N N N N N N N N N B N N N B B B &.",
"B B B B B B N N N N B B N N N N &.&.&.N &.&.&.&.&.&.&.&.&.&.&.&.&.&.N N N B B B B B N N N N N N N N N N N N N N B N N B B B &.&.",
"B B B B B B N N N N B B B &.&.N &.&.&.&.&.&.&.&.&.&.&.&.&.B &.&.N N N N N B B N B B N N N B N B B N N B N N B B B B B B B &.&.&.",
"B B B B B N N N N N B B B &.&.&.&.&.&.&.&.&.&.&.&.&.&.&.B B B N N N N N N N N N N N N N B B B B B N B B B B B B B B &.&.B &.&.&.",
"B B B B B N N &.&.N B B B &.&.&.&.&.&.&.&.&.&.&.&.&.&.B B B B N N N N N N N N N N N N N B B B B B B B B B B B B B B &.&.&.&.&.&.",
"B B B B N N &.&.&.N &.&.B &.&.&.&.&.&.&.&.&.&.&.&.B B &.B &.&.N N N N N N N N N N N N N N B B B B B B B B B B B B B B &.&.&.&.&.",
"B B B &.&.N &.&.&.&.&.&.&.&.&.&.&.&.&.&.&.&.&.&.&.&.B &.&.&.&.N N N N N N N N N N N N N N &.&.B B B B &.B &.&.B B B B &.&.B &.B ",
"N B B &.&.&.&.&.&.&.&.&.&.&.&.&.&.&.&.&.&.&.&.&.&.&.&.&.&.&.&.&.&.N N N N N N &.&.N N N &.&.&.B &.&.B &.&.&.&.B B B B B B B B B ",
"N N N N &.&.&.&.&.&.&.&.&.&.&.&.&.&.&.&.&.&.&.&.&.&.&.&.&.&.&.&.&.N &.&.N &.&.&.&.&.&.N &.&.&.&.&.&.&.&.&.&.B B B B B B B B B B ",
"N N N N &.&.N &.N &.&.&.&.&.&.&.&.&.&.&.&.&.&.&.&.&.&.&.&.&.&.&.&.&.&.&.&.&.&.&.&.&.&.&.&.&.&.&.&.&.&.&.&.&.&.B B B B B B B B B ",
"N N N N N N N N N &.&.&.&.&.&.&.&.&.&.&.&.&.&.&.&.&.&.&.&.&.&.&.&.&.&.&.&.&.&.&.&.B &.&.&.&.&.&.&.N N &.&.&.&.N B N N B B B B B ",
"N N N N N N N N N &.&.&.&.&.&.&.&.&.&.&.&.&.&.&.&.&.&.&.&.&.&.&.&.&.&.&.&.&.&.&.&.B &.&.B &.N N N N N &.&.N N N N N N B B &.&.B ",
"N N N N N N N N N N &.&.&.&.&.&.&.&.&.&.&.&.&.&.&.&.&.&.&.&.&.&.B &.&.&.B &.&.B B B &.&.B N N N N N N N N N N N N N &.&.B &.&.&.",
"N N N N N N N N N N &.&.N &.N &.&.&.&.&.&.&.&.&.&.&.&.&.&.&.&.&.B &.&.B B B B B B B B B B N N N N N N N N N N N N N N &.&.&.&.&.",
"N N N N N N N N N N N N N N N &.&.&.&.&.&.&.&.&.&.&.&.&.&.&.&.B B B B B B B &.&.B &.B B B B N N N N N N N N N N N N N &.&.&.&.&.",
"N N N N &.&.N N N N &.N &.&.N N N &.&.&.&.&.&.&.&.&.&.&.&.&.&.&.B B B B B B &.&.&.&.&.B B B N B B N B B N B B N N &.&.&.&.&.&.&.",
"N &.&.&.&.&.N &.&.&.&.&.&.&.N N N &.&.&.&.&.&.&.&.&.&.&.&.&.&.&.B B B B B B &.&.&.&.&.B B &.N &.B B B B N B &.&.&.&.&.&.&.&.&.&.",
"&.&.&.&.&.&.&.&.&.&.&.&.&.N N &.N &.&.&.&.&.&.&.&.&.&.&.&.&.&.B B B B &.&.B &.&.&.&.&.&.&.&.&.&.B B B B B B B &.&.&.&.&.&.&.&.&."
};
