/* XPM */
static char *p7[] = {
/* columns rows colors chars-per-pixel */
"64 64 187 2 ",
"   c #141414",
".  c #2B1A01",
"X  c #351E00",
"o  c #3B2606",
"O  c #070A39",
"+  c #10113A",
"@  c #11343B",
"#  c #143A3D",
"$  c #482E02",
"%  c #4E3037",
"&  c #573E30",
"*  c #1B452D",
"=  c #1F4C32",
"-  c #1C4738",
";  c #39402C",
":  c #204C3D",
">  c #225337",
",  c #245E33",
"<  c #235639",
"1  c #395B35",
"2  c #266135",
"3  c #2B6B3D",
"4  c #6B4503",
"5  c #7E5403",
"6  c #654618",
"7  c #754A17",
"8  c #5D482A",
"9  c #4A563D",
"0  c #664225",
"q  c #674F27",
"w  c #655928",
"e  c #794C34",
"r  c #716B2E",
"t  c #193D44",
"y  c #0E087A",
"u  c #130D7A",
"i  c #304C46",
"p  c #245645",
"a  c #24554D",
"s  c #275B49",
"d  c #285C50",
"f  c #2A6342",
"g  c #2B614E",
"h  c #2F6C49",
"j  c #326E4A",
"k  c #327A44",
"l  c #32754F",
"z  c #337D49",
"x  c #2B6352",
"c  c #2F6956",
"v  c #316E59",
"b  c #337650",
"n  c #367C54",
"m  c #22526F",
"M  c #316E60",
"N  c #296576",
"B  c #316D7C",
"V  c #4A447D",
"C  c #6B546E",
"Z  c #53617B",
"A  c #706A69",
"S  c #F12A25",
"D  c #895804",
"F  c #955E02",
"G  c #815310",
"H  c #B94E1E",
"J  c #9C6503",
"K  c #9C6803",
"L  c #986716",
"P  c #A46A03",
"I  c #A36B07",
"U  c #AA6C02",
"Y  c #AE7303",
"T  c #B37202",
"R  c #B67907",
"E  c #BC7C03",
"W  c #A26A10",
"Q  c #BA7818",
"!  c #965F27",
"~  c #9B622B",
"^  c #B77C23",
"/  c #BC7827",
"(  c #AD7D34",
")  c #C67E03",
"_  c #CB7519",
"`  c #D77618",
"'  c #C17B26",
"]  c #9B6963",
"[  c #9B6778",
"{  c #36844A",
"}  c #38884C",
"|  c #BF8208",
" . c #C58003",
".. c #CB8303",
"X. c #C4860B",
"o. c #C9890E",
"O. c #D68902",
"+. c #DD8E03",
"@. c #D18908",
"#. c #D48A18",
"$. c #E08E02",
"%. c #E49303",
"&. c #EB9602",
"*. c #E89606",
"=. c #F49D03",
"-. c #F79F06",
";. c #E08113",
":. c #E59316",
">. c #EB9714",
",. c #F49D15",
"<. c #F89E1E",
"1. c #F7A005",
"2. c #FCA203",
"3. c #FBA00F",
"4. c #CC8323",
"5. c #D59E37",
"6. c #EA963F",
"7. c #F9AA29",
"8. c #F7AA30",
"9. c #BB8176",
"0. c #D58B4A",
"q. c #E59244",
"w. c #CFAD4C",
"e. c #F4BB4A",
"r. c #EE9C63",
"t. c #EBC95F",
"y. c #DED670",
"u. c #DEDA77",
"i. c #E8D46B",
"p. c #E3DC74",
"a. c #120C83",
"s. c #140E8C",
"d. c #171191",
"f. c #181294",
"g. c #171199",
"h. c #19129D",
"j. c #170FA3",
"k. c #1B14A3",
"l. c #1D15AD",
"z. c #57368D",
"x. c #1B4188",
"c. c #225A81",
"v. c #255599",
"b. c #2C6E92",
"n. c #234FAC",
"m. c #295CBD",
"M. c #2E73A6",
"N. c #2F72B2",
"B. c #444A90",
"V. c #406F9F",
"C. c #54749F",
"Z. c #4E4DA5",
"A. c #5B7BA7",
"S. c #7877A7",
"D. c #2E66D3",
"F. c #3471D7",
"G. c #3471E9",
"H. c #3775F2",
"J. c #3879F7",
"K. c #567EDA",
"L. c #4A79F2",
"P. c #527BF2",
"I. c #B95AB6",
"U. c #C552A7",
"Y. c #3583BC",
"T. c #3A8BD5",
"R. c #3E96D5",
"E. c #3F98D8",
"W. c #3F94E9",
"Q. c #3B83F7",
"!. c #3E8CF7",
"~. c #4298D6",
"^. c #419DDE",
"/. c #439FEE",
"(. c #4093F7",
"). c #439CF7",
"_. c #619BEF",
"`. c #45A5EA",
"'. c #45A2F7",
"]. c #47AAF7",
"[. c #49AFF7",
"{. c #838092",
"}. c #8988B3",
"|. c #B98AB6",
" X c #C893A8",
".X c #F287B3",
"XX c #C2D6F0",
/* pixels */
"n n n n n n n n n n n n v v v } } v } } } } } } } } } } } } n n n n n n n n n n n n n n v v n v n n n n n v v v v v v v v v v v ",
"n n n n n n n l h l n n v v v n v v z k { } } } } } } } k k n n n n n n n n n n n n n n n v v v n n v n n v v v v v v v v v v v ",
"v n f f n h f B M.b.p g v v v b p p q P r f } } } n } 3 F F h n n n n n n n n n n n n n n v v v v v v v v v v v v v v v v v v v ",
"l < m.m.< v.m.^.[.^.m.v.: : : N Y.M.K 7.5.R , } n n < W +.+.* n n n n n n n n n n n n n v v v v v v v v v v v v v v v v v v v v ",
"N R.J.J.D.G.J.).[.[.'.G.D.D.T.^.[.^.K 8.i.t.O.( * * Y +.+.+.* n n n n v v n n n n n n n n v v v v v v v v v v v v v v v v v v v ",
"c.[.].!.J.J.J.J.[.[.[.J.J.!.[.[.[.^.J 8.p.p.e.=.Y Y E  .+.+.* v n n v v v v n n n n n n n v v v v v v v v v v v v v v v v v v v ",
"g R.[.[.[.(.J.J.J.[.[.).J.!.[.[.[.^.L 8.p.3.3.3.3.2.2.3.Q #.* v n v v v v n n n n n n v v v v v v v v v v v v v v v v v v v v v ",
"v - `.[.[.[.[.).J.].[.'.J.!.[.[.[.d.f.f.f.f.f.f.f.q.6.z.d.d.a.y n v v v v n n n n v n v v v v v v v v v v v v v v v v v v v v v ",
"v v m `.[.[.[.[.!.!.[.[.Q.!.[.[.[.m.k.l.l.l.h.d.h.g.g.j.s.j.j.a.n v v v v n n n n v v v v v v v v v v v v v v v v v v v v v v v ",
"v v c b.[.[.[.Y.Y.D.(.[.).Q.].[.[.N.C h.l.l.u   }.l.l.j.A Z.j.m n n v v v v n n v v v v v v v v v v v v v v v v v v v v v v v v ",
"v v v g b.E.V.4.4.[ H.).[.J.!.[.[.$ R ] k.l.u   S.h.g.j.A Z.a.x v n v v v v n v v v v v v v v v v v v v v v v v v v v v v v n n ",
"v v v v x m :.2.2.,.V J.].].Q.(.M.Y X.,.[ f.s.a.s.q.q.z.a.s.( 8 v n n v v v n v v v v v v v v v v v v v v v v v v v n n v n n n ",
"v v v v c 0 2.2.2.2.-.n.J.[.[.'.x.E X.2.,.<.<.^ u.p.w.u.4.<.o.4 v v n v v v n v v v v v v v v v v v v v v v v v v n n n v n n n ",
"v v v v c 0 2.2.G -.2.C.[.Q./.B.v.R X.1.2.2.2.X.y.y.w.y.+.2.X.6 v v n n v v n v v v v v v v v v v v v v v v n n v n n n n n n n ",
"v v v v c 8 %.%.+ _ 2.4.`.`.C 9._.Z R X.%.=.2.2.@...&...-.@.L x v v v n v n n v v v v v v v v v v v v v v v n n n n n n n n n n ",
"v v v v v d 0 6 O Q 2.~ N.A.Q *. XW.A E | X.%.*.*.%.%.%.+.I p v v v v n v n v v v v v v v v v v v v v v v v v n n n n n n n n n ",
"v v v v } } a 3 O  .2.- 3 e ) 2.2.|.T.5 5 5 5 5 5 5 5 5 5 1 v v v v v n n n v v v v v v v v v v v v v v v v v n n v n v n n n v ",
"v v v v } } } h 7  .~ z p Q &.2.2.6.K.E.E.E.E.~.P P {.E.T.B v v v v n n n v v v v v v v v v v v v v v v v v v v v v v v n n v v ",
"v v v v v } } f D -.% } @ ) =.2.2.&.0.!.[.[.[.[.|.S XXQ.F.M v v v n n n v v v v v v v v v v v v v v v v v v v v v v v v v v v v ",
"v v v v v } } / 2.' { } @ ) =.2.2.&.$.r.P.P.L.P.I..XU.r.= v n n n n n v v v v v v v v v v v v v v v v v v v v v v v v v v v v v ",
"n v v v v v v / 2.' { } @ ) =.2.2.&.+.2.2.%.O.2.` .X` 2.= n n n n n v v v v v v v v v v v v v v v v v v v v v v v v v v v v v v ",
"n v v v v v v / 2.' { } @ ) =.2.2.&...2.2.D &.2.;.H ` 2.= n n v v v v v v n n v v v v n v n n v v v v v v v v v v v v v v v v v ",
"n v v v v v v ! 2.' { } @ ) =.2.2.-.E O.$.T 2.2.=.%...O.= n v v v v v v n n n v n n v n n n n v v v v v v v v v n n v v v v n v ",
"n v v v v v v i 2.>.9 } @ ) O.2.2.2.O.T T ..2.2.2.2.E 4 j n v v v n n v n n n n n n n n n n v v v v v v v v v n n n v n n v n n ",
"n v v v v v v a I 2.>.# O ) ) +.2.2.=.=.=.=.2.2.2.2.) j n v v v v n n n n n n n n n n n n n n v v v v v n n v n n n n n n n n n ",
"n v v v v v v v + ..2.2.2.e ) ) ..2.2.2.2.2.2.2.2.2.J l n v v v v v n n n n n n n n n n n n n v v v v n n n n n n n n n n n n n ",
"n n v v v v v v v & :.>.>.7 ) ) ) ) ) =.=.=.=.=.=...> n n n v v v v n n v n v n n n v n n v v v n n v n n n n n n n n n n n n n ",
"v n v v v v n v v d t t t q ) ) ) U U U U U ) ) ) U f n n n v v v v v v v v v n n v v v v v v v n n n n n n n n n n n n n n n n ",
"v n n v v v n v v v v v v s T ) P - < , , 1 T ) T 1 n n n n v v v v v v v v v v v v v v v v v v n n n n n n n n n n n n n n v v ",
"v v n n v v n v v v v v v s T T 9 v n } } { F ) w } n n n n v v v v v v v v v v v v v v v v v v v n n n n n n n n n n n n n v n ",
"v v v n v v n v v v v v v s T U h v n } } { F ) 2 } } n n n v v v v v v v v v v v v v v v v v v v n n v n n n n n n n n n n n n ",
"v v v n n v n v v v v v v s X ; n v n } } { . o } } } n n n v v v v v v v v v v v v v v v v v v v v v v n n n n n n n n n n n n ",
"v v v v n n n v v v v v n v v v n n n } } } } n } } } n n n v v v v v v v v v v v v v v v v v v v v n n n n n n n n n n n n n n ",
"v v v v v n n v v v v v n v v v v n n } } } } } } } } v n n v v v v v v v v v v v v v v v v v v v v n n n n n n n n n n n n n n ",
"v v v v v v n v v v v v n v v v v n n } } } } } n } } v n n v v v v v v v v v v v v v v v v v v n n v n n n n n n n n n n n n n ",
"v v v v v v n v v v v n n v v v v v n } } } } } n } } v n n n v v v v v v v v v v v v v v v v v n n n n n n n n n n n n n n v v ",
"v v v v v v n n v v v n v v v v v v n } } } } } n n n v n n n v v v v v v v v v v v v v v v v v v n n n n n n n n n n n n n v v ",
"v v v v v v n n v v n n v v v v v v v } } } } } } n n v n n n v v v v v v v v v v v v v v v v v v n n v n n n n n v n n v v v v ",
"v v v v v v n n v n n v v v v v v v v } } } } } } n n v v v v v v v v v v v v v v v v v v v v v v v v v v v n n v v v v v v v v ",
"v v v v v v v n n n v v v v v v v v v } } } } } } n n v n n n n v v v v v n n v n n v n v v v v v v v v v v v v v v v v v v v v ",
"v v v v v v v n n n v v v v v v v v v } } } } } } n n v n n n n v v v v v n n n n n n n v v n n v v v v v v v v v v v v v } } v ",
"v v v v v v v n n v v v v v v v v v v } } } n } } n n n n n n n v v v v v n n n n n n n n n n n v n n v n v v v v v v v } } } } ",
"v v v v v v v v n n v v v v v v v v v n } } n n n n n n n n n n v v v v v v n n n n n n n n n n n n n n n n v v v } } v } } } } ",
"v v v v v v v v n n n v v v v v v v v n n n n n } } n n n n } n } } v v v n n n n n n n n n v v n n n v n n v v v } } } } } } } ",
"v v v v v v v v n n n v v v v v v v v v n n n } } } n } } n } } } } v v n n n n n n n n n n v v n n v v v v v v v v } } } } } } ",
"n v n v v v v v v n n v v v v v v v v v } } n } } } } } } } } } } v v v n n n n n n v v n n v v v v v v v v v v v v } } n } n } ",
"n n n v n n v v v n n n v v v v v } } v } } } } } } } } } } } } } } v v v v n n n v v v v v v v v v v v v v v v n v v v n n n } ",
"n n n n n n v v v v n n v v v v } } } v } } } } } } } } } } } } } } v v v n n n n n v v v v v v v v v v v v v v n v v n n n } } ",
"n n n n n n v v v v n n n } } v } } } } } } } } } } } } } n } } v v v v v n n v n n v v v n v n n v v n v v n n n n n n n } } } ",
"n n n n n v v v v v n n n } } } } } } } } } } } } } } } n n n v v v v v v v v v v v v v n n n n n v n n n n n n n n } } n } } } ",
"n n n n n v v } } v n n n } } } } } } } } } } } } } } n n n n v v v v v v v v v v v v v n n n n n n n n n n n n n n } } } } } } ",
"n n n n v v } } } v } } n } } } } } } } } } } } } n n } n } } v v v v v v v v v v v v v v n n n n n n n n n n n n n n } } } } } ",
"n n n } } v } } } } } } } } } } } } } } } } } } } } n } } } } v v v v v v v v v v v v v v } } n n n n } n } } n n n n } } n } n ",
"v n n } } } } } } } } } } } } } } } } } } } } } } } } } } } } } } v v v v v v } } v v v } } } n } } n } } } } n n n n n n n n n ",
"v v v v } } } } } } } } } } } } } } } } } } } } } } } } } } } } } v } } v } } } } } } v } } } } } } } } } } n n n n n n n n n n ",
"v v v v } } v } v } } } } } } } } } } } } } } } } } } } } } } } } } } } } } } } } } } } } } } } } } } } } } } n n n n n n n n n ",
"v v v v v v v v v } } } } } } } } } } } } } } } } } } } } } } } } } } } } } } } } n } } } } } } } v v } } } } v n v v n n n n n ",
"v v v v v v v v v } } } } } } } } } } } } } } } } } } } } } } } } } } } } } } } } n } } n } v v v v v } } v v v v v v n n } } n ",
"v v v v v v v v v v } } } } } } } } } } } } } } } } } } } } } } n } } } n } } n n n } } n v v v v v v v v v v v v v } } n } } } ",
"v v v v v v v v v v } } v } v } } } } } } } } } } } } } } } } } n } } n n n n n n n n n n v v v v v v v v v v v v v v } } } } } ",
"v v v v v v v v v v v v v v v } } } } } } } } } } } } } } } } n n n n n n n } } n } n n n n v v v v v v v v v v v v v } } } } } ",
"v v v v } } v v v v } v } } v v v } } } } } } } } } } } } } } } n n n n n n } } } } } n n n v n n v n n v n n v v } } } } } } } ",
"v } } } } } v } } } } } } } v v v } } } } } } } } } } } } } } } n n n n n n } } } } } n n } v } n n n n v n } } } } } } } } } } ",
"} } } } } } } } } } } } } v v } v } } } } } } } } } } } } } } n n n n } } n } } } } } } } } } } n n n n n n n } } } } } } } } } "
};
