/* XPM */
static char *p8[] = {
/* columns rows colors chars-per-pixel */
"64 64 190 2 ",
"   c #0A130A",
".  c #241401",
"X  c #0C2712",
"o  c #3B3118",
"O  c #24132A",
"+  c #241337",
"@  c #241338",
"#  c #133220",
"$  c #0F2A3F",
"%  c #102C38",
"&  c #0F313C",
"*  c #13383D",
"=  c #412701",
"-  c #5A3A02",
";  c #483F1E",
":  c #492E30",
">  c #1B4B2C",
",  c #1A4234",
"<  c #1E4C32",
"1  c #1C483B",
"2  c #3A4A2B",
"3  c #204F34",
"4  c #3B4B36",
"5  c #265C3E",
"6  c #286537",
"7  c #674303",
"8  c #714B14",
"9  c #4F502B",
"0  c #67442B",
"q  c #715E22",
"w  c #605430",
"e  c #50673F",
"r  c #080D4D",
"t  c #163357",
"y  c #0F097F",
"u  c #163B67",
"i  c #573A6D",
"p  c #1D4648",
"a  c #204D4A",
"s  c #24554D",
"d  c #275C48",
"f  c #27594C",
"g  c #375D49",
"h  c #3D4250",
"j  c #275A52",
"k  c #2B6B45",
"l  c #2C6549",
"z  c #2E7344",
"x  c #337A46",
"c  c #31724D",
"v  c #2C6453",
"b  c #2F6B56",
"n  c #316E59",
"m  c #347751",
"M  c #367C54",
"N  c #275A68",
"B  c #22587A",
"V  c #2A6468",
"C  c #26607A",
"Z  c #415A43",
"A  c #6B5E44",
"S  c #7B637C",
"D  c #B11226",
"F  c #865904",
"G  c #945E03",
"H  c #885F1B",
"J  c #996403",
"K  c #A46B02",
"L  c #B37403",
"P  c #B97503",
"I  c #B27805",
"U  c #BC7C04",
"Y  c #B1780B",
"T  c #875622",
"R  c #8E5A31",
"E  c #8D6420",
"W  c #9C632D",
"Q  c #A3682C",
"!  c #B57729",
"~  c #B07734",
"^  c #DA5D1A",
"/  c #C67E03",
"(  c #C4452E",
")  c #C57E24",
"_  c #97645E",
"`  c #AF705D",
"'  c #895875",
"]  c #9E6475",
"[  c #AE7567",
"{  c #A86A71",
"}  c #C97F5D",
"|  c #358047",
" . c #36834A",
".. c #38884C",
"X. c #C18107",
"o. c #CC8503",
"O. c #CC8A0E",
"+. c #D28602",
"@. c #D48803",
"#. c #DC8D03",
"$. c #DB920B",
"%. c #D78A1C",
"&. c #E08F02",
"*. c #E39204",
"=. c #E99502",
"-. c #EA9806",
";. c #F49D03",
":. c #F89F03",
">. c #F09A0F",
",. c #EB8B12",
"<. c #EA9615",
"1. c #E29019",
"2. c #FCA203",
"3. c #FCA510",
"4. c #D49834",
"5. c #E39A21",
"6. c #C8A03F",
"7. c #FBA624",
"8. c #F0AC36",
"9. c #BE9B71",
"0. c #CA8643",
"q. c #CA805E",
"w. c #E0865D",
"e. c #C6A040",
"r. c #D3BE5C",
"t. c #F4AA43",
"y. c #F1BF50",
"u. c #EA9B6B",
"i. c #EFC559",
"p. c #DCD26D",
"a. c #E9D269",
"s. c #E2DD75",
"d. c #100A83",
"f. c #140D96",
"g. c #181296",
"h. c #17109C",
"j. c #170FA3",
"k. c #1710A2",
"l. c #1A12A2",
"z. c #1D15AC",
"x. c #2218A8",
"c. c #1F4997",
"v. c #245590",
"b. c #26618C",
"n. c #2A6A8C",
"m. c #286592",
"M. c #296A98",
"N. c #33719D",
"B. c #2758BD",
"V. c #2B6AA9",
"C. c #317AAA",
"Z. c #704685",
"A. c #406B92",
"S. c #5756AE",
"D. c #2D62CC",
"F. c #347BCF",
"G. c #336EE3",
"H. c #3774EE",
"J. c #3879F7",
"K. c #91729B",
"L. c #A97E9A",
"P. c #F8668B",
"I. c #EA7DA6",
"U. c #947AD6",
"Y. c #3582B8",
"T. c #498ABF",
"R. c #6386B4",
"E. c #388CC8",
"W. c #3E97D7",
"Q. c #3B83F7",
"!. c #3E8DF7",
"~. c #3F90F6",
"^. c #4591CC",
"/. c #5F89EE",
"(. c #459AE6",
"). c #4093F7",
"_. c #429BF7",
"`. c #45A5EB",
"'. c #45A4F7",
"]. c #47ABF5",
"[. c #49AEF7",
"{. c #8D8A88",
"}. c #8D8D90",
"|. c #AB8A99",
" X c #B1B1B3",
".X c #CC94A5",
"XX c #E698AF",
"oX c #CBBFBE",
"OX c #898BD3",
"+X c #AB93C7",
/* pixels */
"M M M M M M M M M M M M n n n ....b  .......................M M M M M M M M M M M M M M n n M n M M M M M n n n n n n n n n n n ",
"M M M M M M M k m M M M n n n M b C X | ............x z ....M M M M M M M M M M M M M M M n n n M M n M M n n n n n n n n n n n ",
"n M M M M c 5 C.V 5 v n n n n l N Y.F w 6 M ......m q F k M M M M M M M M M M M M M M M M n n n n n n n n n n n n n n n n n n n ",
"M M M M < v.D.].W.E.n., d n v Y.W.M.U #.+.<  ...M c J @.E m M M M M M M M M M M M M M M n n n n n n n n n n n n n n n n n n n n ",
"c # # # G.H.'.[.[.[.`.(.a n n.].[.M.X.y.3.=.8 M M c J #.@.; M M M M M n n M M M M M M M M n n n n n n n n n n n n n n n n n n n ",
"B [.].J.J.J.'.[.[.[.[.].B.r [.[.[.M.X.i.s.i.2.K . - @.#.#.#.< n M M n n n n M M M M M M M n n n n n n n n n n n n n n n n n n n ",
"B `.[._.Q.J.J.].[.[.[.'.D.H.[.[.[.M./ i.a.a.7.;.o.o.o.o.#.#.< n M n n n n M M M M M M n n n n n n n n n n n n n n n n n n n n n ",
"v C.E.[.[.).J.!.[.[.[.J.J.~.[.[.`.v._ 9.q.} } q.q.2.2.} _ ` t N M n n n n M M M M n M n n n n n n n n n n n n n n n n n n n n n ",
"n d j C.[.[._.J.'.[.[.J.J.].[.[.(.g.l.l.l.l.l.l.l.{ { h.h.h.f.y M n n n n M M M M n n n n n n n n n n n n n n n n n n n n n n n ",
"n n n v B Y.[._.Q.[.[.J.!.[.[.[.].B.g.z.z.z.z.z.z.z.l.j.k.j.j.d.M M n n n n M M n n n n n n n n n n n n n n n n n n n n n n n n ",
"n n n n n j `.[.!.Q.[.[.J.].[.[.[.M.~ g.z.z.r }.OXz.l.j. XS.f.V n M n n n n M n n n n n n n n n n n n n n n n n n n n n n n M M ",
"n n n n n b t `.].Q._.[.Q.J.].[.^.J O.` x.z.z.z.z.Z.Z.j.k.j.i g n M M n n n M n n n n n n n n n n n n n n n n n n n M M n M M M ",
"n n n n n A W W R.[._._.[.).).].- U O.2.{ ] ] S {.t.8.{.' ] O.7 n n M n n n M n n n n n n n n n n n n n n n n n n M M M n M M M ",
"n n n n a %.2.2.%.E.[._.).].F.'.- U O.2.2.2.2.e.s.p.r.s.#.2.O.7 n n M M n n M n n n n n n n n n n n n n n n M M n M M M M M M M ",
"n n n f %.2.2.2.2.0.m.[.'.V.K.'.T.K X.$.2.2.2.5.e.6.4.6.;.$.Y Z n n n M n M M n n n n n n n n n n n n n n n M M M M M M M M M M ",
"n n n a G 2.2.P 2.<.s u u ! 4.OX[.A.U U O.*.2.2.:.:.2.;.-.O.4 n n n n M n M n n n n n n n n n n n n n n n n n M M M M M M M M M ",
"n n n n & >.J : *.<.k ..R / 2.2./.[.h I I I I I I I I I I o n n n n n M M M n n n n n n n n n n n n n n n n n M M n M n M M M n ",
"n n n n ..1 > : *.<.k x Q @.2.2.u.(.].b.b.b.b.7 7 w b.b.u b n n n n M M M n n n n n n n n n n n n n n n n n n n n n n n M M n n ",
"n n n n n ..k T -.! x @ / :.2.2.=.L._.[.[.[.[.|.^ oX'._.N.n n n n M M M n n n n n n n n n n n n n n n n n n n n n n n n n n n n ",
"n n n n n ..* L 2.$ ..+ / :.2.2.=.#..X!.!.!.).U.P.XX+Xc.M n M M M M M n n n n n n n n n n n n n n n n n n n n n n n n n n n n n ",
"M n n n n j %.;.Q v ..+ / :.2.2.=.#.7.u.u.[ u.w.I.( t.  M M M M M M n n n n n n n n n n n n n n n n n n n n n n n n n n n n n n ",
"M n n n n s <.2.R n ..+ / :.2.2.=.#.2.2.F &.2.,.D ( 2.X M M M n n n n n n M M n n n n M n M M n n n n n n n n n n n n n n n n n ",
"M n n n n s %.2.R ....+ / :.2.2.=.+.2.U / 2.2.2.U :.J M M M n n n n n n M M M n M M n M M M M n n n n n n n n n M M n n n n M n ",
"M n n n n v 0 2.) z ..O / *.2.2.;.P +.K #.2.2.2.U U 9 M M M n n n M M n M M M M M M M M M M n n n n n n n n n M M M n M M n M M ",
"M n n n n n $ @.2.! d . / / =.2.2.-.@.=.2.2.2.2.K l c M M n n n n M M M M M M M M M M M M M M n n n n n M M n M M M M M M M M M ",
"M n n n n n v 0 =.:.1.. / / o.@.2.2.2.2.2.2.2.*.e M M m M n n n n n M M M M M M M M M M M M M n n n n M M M M M M M M M M M M M ",
"M M n n n n n j 8 2.2.. / / / / @.2.2.2.2.2.+.2 M M M M M M n n n n M M n M n M M M n M M n n n M M n M M M M M M M M M M M M M ",
"n M n n n n M n p $ % . / / / P P P P / / / P 3 M M M M M M n n n n n n n n n M M n n n n n n n M M M M M M M M M M M M M M M M ",
"n M M n n n M n n n n . / / H , , , 2 P / P 9 M ....M M M M n n n n n n n n n n n n n n n n n n M M M M M M M M M M M M M M n n ",
"n n M M n n M n n n d G / G k M n n m G / q  .M ....M M M M n n n n n n n n n n n n n n n n n n n M M M M M M M M M M M M M n M ",
"n n n M n n M n n n 1 / K g n M M n 2 P 7 x ..M ......M M M n n n n n n n n n n n n n n n n n n n M M n M M M M M M M M M M M M ",
"n n n M M n M n n n 1 = 4 n n n M n   = | ....M ......M M M n n n n n n n n n n n n n n n n n n n n n n M M M M M M M M M M M M ",
"n n n n M M M n n n n n M n n n M M M ........M ......M M M n n n n n n n n n n n n n n n n n n n n M M M M M M M M M M M M M M ",
"n n n n n M M n n n n n M n n n n M M ................n M M n n n n n n n n n n n n n n n n n n n n M M M M M M M M M M M M M M ",
"n n n n n n M n n n n n M n n n n M M ..........M ....n M M n n n n n n n n n n n n n n n n n n M M n M M M M M M M M M M M M M ",
"n n n n n n M n n n n M M n n n n n M ..........M ....n M M M n n n n n n n n n n n n n n n n n M M M M M M M M M M M M M M n n ",
"n n n n n n M M n n n M n n n n n n M ..........M M M n M M M n n n n n n n n n n n n n n n n n n M M M M M M M M M M M M M n n ",
"n n n n n n M M n n M M n n n n n n n ............M M n M M M n n n n n n n n n n n n n n n n n n M M n M M M M M n M M n n n n ",
"n n n n n n M M n M M n n n n n n n n ............M M n n n n n n n n n n n n n n n n n n n n n n n n n n n M M n n n n n n n n ",
"n n n n n n n M M M n n n n n n n n n ............M M n M M M M n n n n n M M n M M n M n n n n n n n n n n n n n n n n n n n n ",
"n n n n n n n M M M n n n n n n n n n ............M M n M M M M n n n n n M M M M M M M n n M M n n n n n n n n n n n n n ....n ",
"n n n n n n n M M n n n n n n n n n n ......M ....M M M M M M M n n n n n M M M M M M M M M M M n M M n M n n n n n n n ........",
"n n n n n n n n M M n n n n n n n n n M ....M M M M M M M M M M n n n n n n M M M M M M M M M M M M M M M M n n n ....n ........",
"n n n n n n n n M M M n n n n n n n n M M M M M ....M M M M ..M ....n n n M M M M M M M M M n n M M M n M M n n n ..............",
"n n n n n n n n M M M n n n n n n n n n M M M ......M ....M ........n n M M M M M M M M M M n n M M n n n n n n n n ............",
"M n M n n n n n n M M n n n n n n n n n ....M ....................n n n M M M M M M n n M M n n n n n n n n n n n n ....M ..M ..",
"M M M n M M n n n M M M n n n n n ....n ............................n n n n M M M n n n n n n n n n n n n n n n M n n n M M M ..",
"M M M M M M n n n n M M n n n n ......n ............................n n n M M M M M n n n n n n n n n n n n n n M n n M M M ....",
"M M M M M M n n n n M M M ....n ..........................M ....n n n n n M M n M M n n n M n M M n n M n n M M M M M M M ......",
"M M M M M n n n n n M M M ..............................M M M n n n n n n n n n n n n n M M M M M n M M M M M M M M ....M ......",
"M M M M M n n ....n M M M ............................M M M M n n n n n n n n n n n n n M M M M M M M M M M M M M M ............",
"M M M M n n ......n ....M ........................M M ..M ....n n n n n n n n n n n n n n M M M M M M M M M M M M M M ..........",
"M M M ....n ........................................M ........n n n n n n n n n n n n n n ....M M M M ..M ....M M M M ....M ..M ",
"n M M ............................................................n n n n n n ....n n n ......M ....M ........M M M M M M M M M ",
"n n n n ..........................................................n ....n ............n ....................M M M M M M M M M M ",
"n n n n ....n ..n ............................................................................................M M M M M M M M M ",
"n n n n n n n n n ................................................................M ..............n n ........n M n n M M M M M ",
"n n n n n n n n n ................................................................M ....M ..n n n n n ....n n n n n n M M ....M ",
"n n n n n n n n n n ............................................M ......M ....M M M ....M n n n n n n n n n n n n n ....M ......",
"n n n n n n n n n n ....n ..n ..................................M ....M M M M M M M M M M n n n n n n n n n n n n n n ..........",
"n n n n n n n n n n n n n n n ................................M M M M M M M ....M ..M M M M n n n n n n n n n n n n n ..........",
"n n n n ....n n n n ..n ....n n n ..............................M M M M M M ..........M M M n M M n M M n M M n n ..............",
"n ..........n ..............n n n ..............................M M M M M M ..........M M ..n ..M M M M n M ....................",
"..........................n n ..n ............................M M M M ....M ....................M M M M M M M .................."
};
