/* XPM */
static char *floor[] = {
/* columns rows colors chars-per-pixel */
"64 64 3 1 ",
"  c #316E59",
". c #367C54",
"X c #38884C",
/* pixels */
"............   XX XXXXXXXXXXXX..............  . .....           ",
"............   .  XXXXXXXXXXXX...............   .. ..           ",
" .........     .    X.XXX.XX.................                   ",
"..........     .    ..XX....................                    ",
"...... ...     ..   ...............  ........                   ",
"..      ...     ..  ........... ..    .......                   ",
"         ....    .  ........  . .    ......                     ",
"           ..... .  ........    .    .... .                     ",
"             .....  ........    .    ....                       ",
"               ..............   ..    ..                        ",
"                 ...XX....X.XX   .    .                       ..",
"                   XXX.XX.XXXX   ..   .                   .. ...",
"                XX XXXXXXXXXX     .   .                  ... ...",
"               XXXXXXXXXXXXXXX    ..  .               .. .......",
"        XX  XXXXXXXXXXXXXXXXXX     . ..               ..........",
"       XXX XXXXXXXXXXXXXXXXX       . .                 .........",
"    XX XXXXXXXXXXXXXXXXXXX.        ...                 .. . ... ",
"    XXXXXXXXXXXXXXXXXXX.          ...                       ..  ",
"     XXXXXXXXXXXXXXXXXXX ...     ...                            ",
"     XX X XXXXXXXXXXXXXX .... .....                             ",
".         XXXXXXXXXXXX.  .........                              ",
".         XXXXXXXXXXXXXX.......      ..    . ..                 ",
".        XXXXXXXXXXXXXXX......      ... .. ....         ..    . ",
".        XXXXXXXXXXXXXX.......   .. ..........         ... .. ..",
".         XXXXXXXXXXXXX......    ..............     .. .........",
".         XX X.XXX.XX........     .............    .............",
"..            .XX ............    .. . ... ..   .. .............",
" .    .       .   ............         ..       ................",
" ..   .       .   .XXX..XX....                  ..............  ",
"  ..  .       ..  .XXXX.XX....                   ............. .",
"   .  .        .. .XXXX.XXX...                   .. ............",
"   .. .         . .XXXX.XXX...                      ............",
"    ...     .   ...XXXX.XXX...                    ..............",
"     ..     .    ..XXXXXXXX ..                    ..............",
"      .     .    ..XXXXX.XX ..                  .. .............",
"      .    ..     .XXXXX.XX ...                 ..............  ",
"      ..   .      .XXXXX... ...                  .............  ",
"      ..  ..       XXXXXX.. ...                  .. ..... ..    ",
"      .. ..        XXXXXX..                           ..        ",
"       ...         XXXXXX.. ....     .. .. .                    ",
"       ...         XXXXXX.. ....     .......  ..             XX ",
"       ..          XXX.XX.......     ........... .. .       XXXX",
"        ..         .XX..........      ................   XX XXXX",
"        ...        .....XX....X.XX   .........  ... ..   XXXXXXX",
"        ...         ...XXX.XX.XXXX  ..........  ..        XXXXXX",
". .      ..         XX.XXXXXXXXXX   ......  ..            XX.X.X",
"... ..   ...     XX XXXXXXXXXXXXXX    ...               .   ...X",
"......    ..    XXX XXXXXXXXXXXXXX   .....              .  ...XX",
"......    ...XX XXXXXXXXXXXXX.XX     .. ..   . ..  .  .......XXX",
".....     ...XXXXXXXXXXXXXXX...             ..... ........XX.XXX",
".....  XX ...XXXXXXXXXXXXXX....             ..............XXXXXX",
"....  XXX XX.XXXXXXXXXXXX..X.XX              ..............XXXXX",
"...XX XXXXXXXXXXXXXXXXXXXX.XXXX              XX....X.XX....XX.X.",
" ..XXXXXXXXXXXXXXXXXXXXXXXXXXXXXX      XX   XXX.XX.XXXX.........",
"    XXXXXXXXXXXXXXXXXXXXXXXXXXXXX XX XXXXXX XXXXXXXXXX..........",
"    XX X XXXXXXXXXXXXXXXXXXXXXXXXXXXXXXXXXXXXXXXXXXXXXX.........",
"         XXXXXXXXXXXXXXXXXXXXXXXXXXXXXXXX.XXXXXXX  XXXX .  .....",
"         XXXXXXXXXXXXXXXXXXXXXXXXXXXXXXXX.XX.X     XX      ..XX.",
"          XXXXXXXXXXXXXXXXXXXXXX.XXX.XX...XX.             XX.XXX",
"          XX X XXXXXXXXXXXXXXXXX.XX..........              XXXXX",
"               XXXXXXXXXXXXXXXX.......XX.X....             XXXXX",
"    XX    X XX   XXXXXXXXXXXXXXX......XXXXX... .. .. ..  XXXXXXX",
" XXXXX XXXXXXX   XXXXXXXXXXXXXXX......XXXXX..X X.... .XXXXXXXXXX",
"XXXXXXXXXXXXX  X XXXXXXXXXXXXXX....XX.XXXXXXXXXX.......XXXXXXXXX"
};
