/* XPM */
static char *result[] = {
/* columns rows colors chars-per-pixel */
"64 64 195 2 ",
"   c #040100",
".  c #0D0400",
"X  c #0F0D02",
"o  c #130B04",
"O  c #001B04",
"+  c #001708",
"@  c #021C0E",
"#  c #161409",
"$  c #1A160D",
"%  c #151A0B",
"&  c #191B0E",
"*  c #1E0E11",
"=  c #031E11",
"-  c #181415",
";  c #171B12",
":  c #1C1C12",
">  c #1D1D1A",
",  c #281A0F",
"<  c #231D14",
"1  c #291C13",
"2  c #2C1F19",
"3  c #311E1A",
"4  c #002300",
"5  c #002B00",
"6  c #03200D",
"7  c #082214",
"8  c #1E2316",
"9  c #232116",
"0  c #2B2116",
"q  c #252419",
"w  c #2B241C",
"e  c #252B1E",
"r  c #2B2A1D",
"t  c #332719",
"y  c #33261B",
"u  c #0F3828",
"i  c #183829",
"p  c #1A2F32",
"a  c #1B3732",
"s  c #133931",
"d  c #262721",
"f  c #2F2421",
"g  c #2C2C24",
"h  c #2C2C2A",
"j  c #312523",
"k  c #332C24",
"l  c #3A2925",
"z  c #332F2A",
"x  c #382C29",
"c  c #2B3224",
"v  c #2E322A",
"b  c #213F2B",
"n  c #353326",
"m  c #3A3324",
"M  c #33332B",
"N  c #3B342B",
"B  c #333F2A",
"V  c #3B392E",
"C  c #2F2C35",
"Z  c #263E35",
"A  c #233A3B",
"S  c #3D3C31",
"D  c #582C1A",
"F  c #442F2E",
"G  c #42352D",
"H  c #423B2C",
"J  c #433631",
"K  c #433C33",
"L  c #4A3D36",
"P  c #4C3B39",
"I  c #22452F",
"U  c #3D402F",
"Y  c #264535",
"T  c #3F5E3E",
"R  c #444136",
"E  c #4A4235",
"W  c #454338",
"Q  c #4C443B",
"!  c #4B483C",
"~  c #52443D",
"^  c #554E3C",
"/  c #50523C",
"(  c #4E4146",
")  c #564B44",
"_  c #544C45",
"`  c #5A4C49",
"'  c #4B5343",
"]  c #595646",
"[  c #5C554D",
"{  c #614F4C",
"}  c #60574E",
"|  c #7C5E4E",
" . c #645C52",
".. c #695B52",
"X. c #4B6D4B",
"o. c #4D6259",
"O. c #576E56",
"+. c #666254",
"@. c #6B635A",
"#. c #6E6C60",
"$. c #776B67",
"%. c #757366",
"&. c #7C7369",
"*. c #9E5B3F",
"=. c #B54F37",
"-. c #B74F38",
";. c #BC4D39",
":. c #A65433",
">. c #AB5334",
",. c #A8573D",
"<. c #A4593B",
"1. c #B25236",
"2. c #B65138",
"3. c #BB503A",
"4. c #CF473F",
"5. c #C44E3D",
"6. c #CA4E3F",
"7. c #C1503C",
"8. c #E93F47",
"9. c #ED3F49",
"0. c #974F44",
"q. c #975A49",
"w. c #A85749",
"e. c #BD514F",
"r. c #B85551",
"t. c #84614E",
"y. c #8C624F",
"u. c #9D6246",
"i. c #9D6349",
"p. c #9D684C",
"a. c #8C6756",
"s. c #946352",
"d. c #92765C",
"f. c #A26147",
"g. c #B1695C",
"h. c #89766B",
"j. c #967D6D",
"k. c #B07265",
"l. c #B07266",
"z. c #CD4E40",
"x. c #C24D48",
"c. c #D44641",
"v. c #DB4543",
"b. c #D24B41",
"n. c #D84843",
"m. c #C75245",
"M. c #CB594C",
"N. c #D8514F",
"B. c #C65452",
"V. c #E54146",
"C. c #E84147",
"Z. c #E94048",
"A. c #E64B53",
"S. c #C16154",
"D. c #638666",
"F. c #67916D",
"G. c #6E8670",
"H. c #7A957A",
"J. c #7A997A",
"K. c #938D8F",
"L. c #849C86",
"P. c #8C938C",
"I. c #929687",
"U. c #8F9793",
"Y. c #9A999A",
"T. c #A29D87",
"R. c #A29798",
"E. c #AB9E9F",
"W. c #8BAA8A",
"Q. c #8FA899",
"!. c #94B195",
"~. c #9DB29F",
"^. c #A3A29E",
"/. c #9D9CA2",
"(. c #A99CA3",
"). c #92A7AA",
"_. c #88B1A1",
"`. c #A2A3A5",
"'. c #AEA5A6",
"]. c #A3A5A8",
"[. c #A0B8A8",
"{. c #BFB2AC",
"}. c #BED9C8",
"|. c #DBCECF",
" X c #CFD6CF",
".X c #C7DACB",
"XX c #CBD7D6",
"oX c #CADED3",
"OX c #D3D4D5",
"+X c #DBD3D5",
"@X c #D9D5D9",
"#X c #DCD8DA",
"$X c #E1D3D7",
"%X c #C4E0D5",
"&X c #D4EFDE",
/* pixels */
"z.z.z.z.z.z.z.6.S.j.@X X+X+Xo.k.;.-.9.8.9.9.9.9.9.Z.9.9.Z.Z.z.z.z.z.z.z.z.z.z.z.z.z.z.z.7.:.2.:.6.6.2.6.6.>.:.:.:.:.:.:.:.:.:.:.",
"7.z.z.z.6.b.z.g.oX%X^.`.'.'.oX Xd.<.5.c.8.v.9.8.Z.v.9.Z.n.n.z.z.z.z.z.z.z.z.z.z.z.z.z.z.6.:.:.:.2.2.:.2.3.:.:.:.:.:.:.:.:.:.:.:.",
"5.z.z.z.6.6.l.oX].(.u s a a /.(.%X&.:.=.n.b.9.Z.n.z.v.n.z.z.z.z.z.z.z.6.z.z.z.z.z.z.b.6.2.:.:.:.:.:.:.:.:.:.:.:.:.:.:.:.:.:.:.:.",
"6.z.z.z.4.j.oXQ.h { u.*.q.s.( C ).}.h.1.z.z.v.v.z.z.z.b.z.z.z.6.z.z.6.3.3.z.z.z.z.z.6.6.7.:.:.:.:.:.:.:.:.:.:.:.:.:.:.:.:.:.:.:.",
"z.7.2.2.j.oX_.' m.7.2.:.>.:.>.w.p ).OXh.6.z.z.z.z.z.6.z.z.z.6.3.6.6.3.:.:.3.6.z.6.6.6.6.6.:.:.:.:.:.:.:.:.:.:.:.:.:.:.:.:.:.:.:.",
"3.1.:.f..XU.u <.7.6.6.3.2.:.:.>.g.A `.XXM.z.z.z.z.z.6.6.3.3.6.:.6.2.:.:.:.3.z.z.6.6.6.7.3.:.:.:.:.:.:.:.:.:.:.:.:.:.:.:.:.:.:.:.",
":.:.:.i.#XR.u <.:.3.7.6.6.3.3.2.,.u (.$XM.6.z.z.z.z.z.6.:.:.2.>.6.:.:.:.:.z.z.z.6.2.6.:.:.:.:.:.:.:.:.:.:.:.:.:.:.:.:.:.:.:.:.:.",
":.:.:.i.+XK.I :.:.:.>.2.7.6.6.m.e.Y '.$XM.6.z.z.z.z.z.m.:.:.:.>.6.:.:.:.:.z.z.z.6.:.3.:.:.:.:.:.:.:.:.:.:.:.:.:.:.:.:.:.:.:.:.:.",
":.:.:.i.OXU.Y :.:.:.:.:.>.3.3.6.m.Y E.|.M.6.z.z.6.b.6.6.=.:.:.>.6.2.:.:.:.3.6.6.3.:.:.:.:.:.:.:.:.:.:.:.:.:.:.:.:.:.:.:.:.:.:.:.",
":.:.:.i.OXY.Z :.:.:.:.:.:.:.>.3.3.b R.$XN.n.z.z.z.6.v.b.c.5.:.:.2.6.:.:.:.>.6.3.:.:.:.:.:.:.:.:.:.:.:.:.:.:.:.:.:.:.:.:.:.:.2.3.",
":.:.:.i.XX(.s :.:.:.:.:.:.:.:.:.<.I P. XA.C.b.V.v.b.8.v.9.8.:.:.:.6.2.:.:.:.6.:.:.:.:.:.:.:.:.:.:.:.:.:.:.:.:.:.:.:.2.3.>.2.6.6.",
":.:.:.i.OX`.u *.:.:.:.:.:.:.:.1.5.b '. XA.Z.v.Z.V.V.9.9.8.5.:.:.>.3.6.:.:.:.6.:.:.:.:.:.:.:.:.:.:.:.:.:.:.:.:.:.:.2.6.6.>.6.6.6.",
":.:.:.i.#XR.a :.:.:.:.:.:.:.1.4.9.N.T..XZ.9.9.9.Z.Z.9.9.8.5.:.:.:.>.6.2.:.>.6.:.:.:.:.:.:.:.:.:.:.:.:.:.:.:.2.3.>.6.z.z.3.6.6.6.",
":.:.:.u.+XK.a 1.5.;.:.=.5.6.4.9.9.9.Z.Z.Z.9.9.9.Z.Z.9.9.8.8.:.:.:.:.2.6.:.3.6.:.:.:.:.:.:.:.:.:.:.:.:.:.:.:.6.6.3.6.z.z.6.6.z.z.",
":.:.:.p.|.R.i c.9.c.=.4.9.9.9.9.9.9.9.9.Z.Z.9.9.9.9.9.Z.6.5.:.:.:.:.>.6.:.6.3.:.:.:.:.:.:.:.:.:.:.:.:.:.:.:.3.6.6.z.z.z.z.z.z.z.",
":.:.:.i.$XE./ 9.8.8.4.9.9.9.9.9.9.9.9.9.Z.Z.9.9.9.8.V.6.:.:.:.:.:.:.>.6.3.6.:.:.:.:.:.:.:.:.:.:.:.:.:.:.:.:.:.6.6.7.6.7.6.z.6.7.",
"i.i.u.a.%XL.B B.x.e.e.r.p.s.y.y.t.i.*.q.q.t.| 0.6.6.3.:.:.:.:.:.:.:.3.z.6.3.:.:.:.:.:.:.:.:.:.:.:.:.:.:.:.:.:.2.3.:.3.:.6.6.7.>.",
"&X}.[.Q.~.~.H.G.!.L.!.J.H.W.J.T X.X.F.F.D.X.O.O.:.2.3.2.:.:.:.:.:.3.6.6.3.:.:.:.:.:.:.:.:.:.:.:.:.:.:.:.:.:.:.:.:.:.:.:.2.3.>.:.",
"..( ! E P ~ ~ ..t E H R +.E H ^ q n e c c e 8 & 1.6.z.6.1.:.2.3.3.z.6.3.:.:.:.:.:.:.:.:.:.:.:.:.:.:.:.:.:.:.:.:.:.:.:.:.:.:.:.:.",
"} ( {.0 ~ ~ ~ ..0 H m V V m E ] 9 m c c I.8 % q >.z.z.z.6.3.6.z.z.6.3.:.:.:.:.:.:.:.:.:.:.:.:.:.:.:.:.:.:.:.:.:.:.:.:.:.:.:.:.:.",
"#.R o   G L ) } g E S ] ! S R ! l P j N o   1 1 3.6.z.z.z.6.6.3.3.3.:.:.:.2.2.:.:.:.:.2.:.2.2.:.:.:.:.:.:.:.:.:.:.:.:.:.:.:.:.:.",
"+.! } ] K ) E [ r n ! W n n n ! 3 F x x n z < 1 z.z.z.z.z.6.3.:.:.:.:.:.2.z.6.:.1.1.:.z.2.z.z.:.:.:.:.:.:.:.:.:.2.2.:.:.:.:.2.:.",
"%.V Q K ~ E K ) q g V     M R [ f x v h M h 8 w z.z.z.z.z.6.:.:.:.2.1.>.z.z.6.2.z.6.2.z.z.6.3.:.:.:.:.:.:.:.:.2.6.6.>.2.2.:.7.3.",
"%.g Q ! E Q ! ) q g         _ ` w x M g h h q 0 z.z.z.z.6.3.:.:.>.z.6.2.z.z.z.z.z.z.z.z.z.6.2.:.:.:.:.:.2.2.:.7.6.6.3.6.6.3.6.6.",
"$.m K N G ` K ` < k       . Q ` q M v M h g d 0 z.z.z.z.7.:.:.:.>.7.z.z.z.6.z.z.z.z.z.z.z.z.z.:.:.:.:.1.z.z.3.z.6.z.z.z.z.z.z.z.",
"@.t N E G Q J ~ < j )     ` J ` q B v B d d e < z.z.z.z.6.2.:.:.:.:.6.z.7.z.7.z.z.z.7.z.6.7.3.:.2.1.:.z.z.z.z.z.z.z.z.z.z.z.z.z.",
"%.r N V S N S S q q g     h k [ 1 m f k x x w 1 z.z.z.z.z.6.:.:.:.:.7.3.:.3.:.z.z.3.:.3.7.:.:.:.6.z.2.z.z.z.z.z.z.z.z.z.z.z.z.z.",
" .9 9 N k N S K ; c c     M N ` t y N k j f < 3 n.b.z.z.6.7.:.:.:.:.:.:.:.:.:.7.3.:.:.:.:.:.:.:.z.z.z.z.z.z.z.z.z.z.z.z.z.6.7.7.",
"@.n 2 x f z k Q : k k ! _ N l ) 1 t f f j j w , Z.Z.b.z.z.7.:.:.:.:.:.:.:.:.:.:.:.:.:.:.:.:.:.:.3.6.z.z.6.6.n.z.6.6.6.n.z.z.1.2.",
"_ 0 &.. k w q z o k k g z z k J , t f f $.* $ 3 9.Z.b.z.6.6.:.:.:.:.:.:.:.:.:.:.:.:.:.:.:.:.:.:.:.z.z.7.6.6.z.z.6.N.6.6.z.z.2.6.",
"R $ # X $ q < N # q r q w t 0 H : r 8 ; -   > < 9.9.Z.z.z.6.:.:.:.:.:.:.:.:.:.:.:.:.:.:.:.:.:.:.:.7.7.:.6.6.6.6.6.6.6.6.6.6.6.6.",
"S : < q 0 q < z X : q 8 < 9 < m & $ > ; - > - 9 9.9.Z.z.z.6.:.:.:.:.:.:.:.:.:.:.:.:.:.:.:.:.:.:.:.:.1.1.6.N.6.6.n.6.6.6.6.6.M.6.",
"U 7 @ = = = = 7 @ + O 6 O @ 6 6 O 6 4 4 5 % 5 D Z.Z.C.7.6.7.:.:.:.:.:.:.:.:.:.:.:.:.:.:.:.:.:.:.:.:.7.z.z.z.z.z.z.z.z.z.z.z.z.z.",
":.:.>.:.>.5.3.:.:.:.:.1.5.:.:.:.2.6.V.Z.Z.Z.Z.Z.C.C.V.>.6.6.:.:.:.:.:.:.:.:.:.:.:.:.:.:.:.:.:.:.1.1.7.z.z.z.z.z.z.z.z.z.z.z.z.z.",
":.:.:.:.>.=.5.:.:.:.>.3.5.:.:.:.>.7.n.Z.Z.Z.Z.Z.6.Z.V.>.6.6.1.:.:.:.:.:.:.:.:.:.:.:.:.:.:.:.:.:.6.z.1.6.z.z.z.z.z.z.z.z.z.z.6.7.",
":.:.:.:.:.1.7.>.:.:.1.5.3.:.:.:.:.1.V.9.Z.Z.Z.Z.6.C.n.2.6.6.6.:.:.:.:.:.:.:.:.:.:.:.:.:.:.:.:.:.7.z.z.z.z.z.z.6.z.z.z.z.z.z.1.:.",
":.:.:.:.:.2.z.7.:.>.2.7.:.:.:.:.:.>.6.Z.Z.Z.Z.Z.n.6.6.2.6.6.6.:.:.:.:.:.:.:.:.:.:.:.:.:.:.:.:.:.:.6.z.7.z.z.6.6.6.7.6.6.7.7.>.:.",
":.:.:.:.:.1.z.3.>.2.z.3.:.:.:.:.:.:.7.Z.Z.Z.Z.Z.Z.6.6.>.7.7.7.:.:.:.:.:.:.:.:.:.:.:.:.:.:.:.:.:.:.7.7.>.7.7.6.6.7.>.7.7.>.:.:.:.",
":.:.:.:.:.1.7.7.3.z.2.:.:.:.:.:.:.:.;.9.Z.Z.Z.Z.C.6.7.:.2.1.2.2.:.:.:.:.:.>.1.:.1.1.:.1.:.:.:.:.:.:.:.:.:.:.7.7.:.:.:.:.:.:.:.:.",
":.:.:.:.:.:.2.z.z.3.:.:.:.:.:.:.:.:.=.9.Z.Z.Z.Z.C.6.7.1.6.6.6.6.:.:.:.:.:.z.z.1.6.6.1.7.:.:.1.1.:.:.:.:.:.:.:.:.:.:.:.:.:.2.2.>.",
":.:.:.:.:.:.2.6.6.3.:.:.:.:.:.:.:.:.2.Z.9.Z.C.9.C.6.6.3.6.6.6.6.:.:.:.:.1.6.6.6.6.6.n.z.1.1.6.z.>.2.>.>.>.:.:.:.:.:.:.:.1.C.9.7.",
":.:.:.:.:.:.2.7.7.>.:.:.:.:.:.:.:.:.3.C.9.C.6.C.C.6.6.6.z.z.6.6.:.:.:.:.:.7.6.6.6.6.z.z.z.z.6.z.>.6.6.2.6.1.:.:.:.7.2.>.V.C.9.9.",
":.:.:.:.:.:.:.2.4.6.>.:.:.:.:.:.:.:.1.4.C.C.6.4.n.4.6.6.z.6.4.6.2.1.:.:.:.1.n.6.z.z.z.z.z.z.7.7.6.6.6.6.6.6.>.:.:.C.C.7.C.9.9.9.",
":.:.:.:.:.:.:.1.6.6.7.:.:.:.:.:.:.:.>.7.6.6.6.n.Z.Z.6.V.N.6.Z.n.C.C.:.:.3.6.6.6.z.z.z.z.z.z.>.:.6.6.7.>.7.7.:.:.:.4.C.9.C.9.9.9.",
">.:.>.:.:.:.:.1.6.6.7.:.:.:.:.:.:.:.:.1.b.b.b.Z.9.Z.C.Z.Z.C.Z.Z.C.n.:.>.6.6.6.6.z.z.7.7.z.z.:.:.6.7.>.:.:.:.:.:.:.:.C.9.C.C.C.C.",
"7.3.7.:.>.>.:.:.1.6.5.>.:.:.:.:.>.=.1.2.Z.C.V.Z.9.9.Z.Z.Z.Z.Z.Z.C.2.:.>.5.5.6.6.z.6.:.:.6.7.:.:.:.:.:.:.:.:.:.:.1.>.4.v.4.V.6.C.",
"6.b.7.3.6.7.:.:.>.5.6.7.:.:.:.>.5.9.V.2.Z.Z.Z.Z.9.9.Z.Z.Z.Z.Z.Z.9.C.>.:.:.1.6.6.6.1.:.:.:.:.:.:.:.:.:.:.:.:.:.:.6.:.>.>.6.6.4.9.",
"z.6.z.z.6.3.:.:.>.=.6.5.>.1.1.=.9.9.C.6.Z.Z.Z.Z.9.9.9.Z.Z.Z.Z.Z.v.n.:.:.>.6.6.6.z.6.:.:.:.1.:.>.>.:.:.>.:.>.>.>.6.1.1.6.6.4.C.9.",
"z.z.z.z.z.;.:.:.:.>.z.z.n.9.v.5.9.9.9.9.9.9.9.9.9.9.9.9.C.z.C.n.:.:.:.:.>.5.5.>.6.6.:.:.2.6.7.6.6.:.>.6.1.1.z.z.z.z.n.6.6.C.Z.Z.",
"z.z.z.z.;.:.>.=.>.=.z.z.c.8.9.9.9.9.9.9.9.9.9.9.9.9.Z.Z.b.6.6.:.:.:.:.:.:.:.:.:.:.:.:.:.6.6.6.6.6.1.6.6.z.z.z.z.z.z.9.Z.n.Z.Z.Z.",
"z.z.z.6.-.>.5.9.n.=.c.z.n.9.9.9.9.9.9.9.9.9.9.9.Z.Z.C.b.4.4.6.:.:.:.:.:.:.:.:.:.:.:.:.:.6.6.6.6.z.n.6.6.z.z.6.6.z.z.n.Z.Z.Z.Z.Z.",
"z.z.b.7.>.5.9.9.v.5.8.V.v.9.9.9.9.9.9.9.9.9.9.9.Z.6.b.C.4.Z.C.>.:.:.:.:.:.:.:.:.:.:.:.>.>.6.n.6.z.6.6.6.z.n.n.6.z.z.6.C.Z.Z.Z.Z.",
"6.z.v.8.n.5.9.9.9.9.9.9.8.9.9.9.9.9.9.9.9.9.9.9.Z.Z.V.Z.Z.Z.Z.3.>.:.:.:.:.:.:.1.>.:.:.:.7.Z.Z.6.6.n.6.Z.n.Z.Z.n.z.z.z.C.Z.n.C.6.",
"1.6.b.V.9.9.9.9.9.9.9.9.9.9.9.9.9.9.9.9.9.9.9.9.Z.Z.9.9.Z.Z.9.9.V.:.1.>.>.2.=.C.C.1.>.:.Z.Z.Z.n.Z.Z.n.Z.Z.Z.Z.6.z.z.z.z.n.6.6.6.",
":.:.:.5.9.8.8.8.8.9.9.9.9.9.9.9.9.9.9.9.9.9.9.9.9.9.9.9.Z.9.9.9.V.=.9.8.5.9.Z.Z.Z.Z.C.2.Z.Z.Z.Z.Z.Z.Z.Z.Z.Z.n.6.z.z.z.z.6.6.6.6.",
":.:.:.3.8.4.-.4.;.9.9.9.9.9.9.9.9.9.9.9.9.9.9.9.9.9.9.9.9.9.9.9.9.9.9.9.9.Z.Z.Z.Z.C.Z.C.Z.Z.Z.C.Z.C.Z.Z.Z.Z.Z.n.z.z.z.6.b.6.6.N.",
":.:.:.:.:.:.:.:.;.9.9.9.9.9.9.9.9.9.9.9.9.9.9.9.9.9.9.9.Z.Z.Z.Z.9.9.9.9.9.9.9.9.Z.6.Z.Z.Z.Z.C.C.V.:.:.V.C.V.V.>.7.1.:.6.6.6.6.6.",
":.:.:.:.:.:.:.:.;.8.9.9.9.9.9.9.9.9.9.9.9.9.9.9.9.9.9.9.Z.Z.Z.Z.8.9.9.Z.Z.9.9.Z.Z.6.Z.Z.n.Z.:.:.:.:.:.V.C.>.:.:.:.:.>.6.6.C.Z.n.",
":.:.:.:.:.:.:.:.:.;.9.8.Z.8.8.9.9.9.9.9.9.9.9.9.9.9.9.9.Z.Z.Z.Z.4.9.9.C.4.Z.C.4.6.n.Z.Z.6.>.:.:.:.:.:.:.:.:.:.:.:.:.n.C.n.Z.Z.Z.",
":.:.:.:.:.:.:.:.:.;.8.c.-.c.;.9.9.9.9.9.9.9.9.9.9.9.Z.Z.Z.Z.Z.Z.6.C.C.6.6.6.4.6.6.6.6.n.6.2.:.:.:.:.:.:.:.:.:.:.:.:.:.V.Z.Z.Z.Z.",
":.:.:.:.>.>.:.:.:.:.>.>.>.>.-.8.C.9.9.9.9.9.9.9.9.9.9.9.Z.Z.Z.n.6.6.6.6.6.N.Z.C.V.Z.6.6.6.6.>.>.:.:.>.>.:.>.>.:.>.1.2.Z.Z.Z.Z.Z.",
">.>.>.;.9.c.>.>.>.5.c.;.9.v.:.:.;.9.9.9.9.9.9.9.9.9.9.9.Z.Z.Z.Z.6.6.n.6.b.6.Z.Z.Z.Z.Z.6.6.6.>.4.6.>.6.6.>.6.6.1.>.C.Z.9.Z.Z.Z.Z.",
"4.9.9.9.9.c.5.9.9.9.9.9.8.c.:.:.5.9.9.9.9.9.9.9.9.9.9.9.Z.Z.Z.Z.n.6.6.6.6.n.Z.Z.Z.Z.Z.4.6.Z.3.Z.6.6.6.6.1.6.C.9.C.C.9.9.Z.Z.Z.Z.",
"8.9.9.9.9.8.8.9.9.9.9.9.v.:.-.v.6.9.9.9.9.9.9.9.9.9.9.9.Z.Z.Z.6.6.6.n.Z.Z.n.Z.Z.Z.Z.Z.Z.Z.Z.Z.Z.4.4.6.6.6.6.4.C.9.9.9.9.9.Z.Z.Z."
};
