/* XPM */
static char *exito[] = {
/* columns rows colors chars-per-pixel */
"64 64 83 1 ",
"  c #010100",
". c #0B0805",
"X c #130D05",
"o c #140F09",
"O c #151107",
"+ c #16110A",
"@ c #1A150C",
"# c #1C180F",
"$ c #1A1611",
"% c #1E1A13",
"& c #1F1C19",
"* c #221D16",
"= c #211F1A",
"- c #26221A",
"; c #2B251D",
": c #2E281E",
"> c #312A1E",
", c #2D2720",
"< c #2E2921",
"1 c #272729",
"2 c #2A2A2C",
"3 c #322C23",
"4 c #332F29",
"5 c #353026",
"6 c #393124",
"7 c #373129",
"8 c #3B352C",
"9 c #3F382D",
"0 c #2F2F31",
"q c #2F3031",
"w c #313233",
"e c #3F3A32",
"r c #423A2D",
"t c #443E34",
"y c #443F38",
"u c #464035",
"i c #494235",
"p c #46423B",
"a c #4B453B",
"s c #4E493E",
"d c #514A3D",
"f c #316E59",
"g c #367C54",
"h c #524D44",
"j c #575044",
"k c #5A5346",
"l c #5B554A",
"z c #615B4F",
"x c #645D51",
"c c #696255",
"v c #6C675B",
"b c #706A5C",
"n c #736D61",
"m c #706C64",
"M c #746F65",
"N c #777063",
"B c #787164",
"V c #817969",
"C c #847D6E",
"Z c #827B70",
"A c #38884C",
"S c #8F8779",
"D c #90897C",
"F c #979082",
"G c #989387",
"H c #919093",
"J c #979699",
"K c #9B999D",
"L c #A39C8F",
"P c #A49E90",
"I c #ABA79E",
"U c #AFA79C",
"Y c #B2AA9D",
"T c #B2AC9E",
"R c #9E9DA0",
"E c #A3A2A5",
"W c #A4A2A6",
"Q c #B4AEA2",
"! c #BCB6AA",
"~ c #AEABB0",
"^ c #D2CCC0",
"/ c #DBD0DB",
"( c #E9E5DD",
/* pixels */
"gggggggggg////fAAfAAAAAAAAAAAAggggggggggggggffgfgggggfffffffffff",
"gggggggg//WWW~//ffAAAAAAAAAAAAgggggggggggggggfffggfggfffffffffff",
"fgggggg/WW2ww2JW/fffAgAAAgAAgggggggggggggggggfffffffffffffffffff",
"gggggg/W1wffffwwW/ffggAAggggggggggggggggggggffffffffffffffffffff",
"ggggg/W2ggfffffg1E/fgggggggggggggggffggggggggfffffffffffffffffff",
"ggff/K2fgggfffffg1W/gggggggggggfggffffgggggggfffffffffffffffffff",
"ffff/J2ffggggffff0R/ggggggggffgfgffffggggggfffffffffffffffffffff",
"ffff/HwffffgggggfwW/ggggggggffffgffffggggfgfffffffffffffffffffff",
"ffff/HwffffffggggqR/ggggggggffffgffffggggfffffffffffffffffffffff",
"ffff/Rwffffffffgg2R/gggggggggfffggffffggffffffffffffffffffffffff",
"ffff/RwffffffffffwH/AAggggAgAAfffgffffgfffffffffffffffffffffffgg",
"ffff/R2ffffffffff2W/AAgAAgAAAAfffggfffgfffffffffffffffffffggfggg",
"ffff/EwfffffffffA2W/AAAAAAAAAfffffgfffgffffffffffffffffffgggfggg",
"ffff/H2ffffffffAAAAAAAAAAAAAAAffffggffgfffffffffffffffggfggggggg",
"ffff/H2fAAffAAAAAAAAAAAAAAAAAAfffffgfggfffffffffffffffgggggggggg",
"ffff/E2AAAfAAAAAAAAAAAAAAAAAfffffffgfgfffffffffffffffffggggggggg",
"ffff/H2AAAAAAAAAAAAAAAAAAAgffffffffgggfffffffffffffffffggfgfgggf",
"(^QLYTDZUGIFSPSlxcCCVxccffffffffffgggfffffffffffffffffffffffggff",
"caaiaaax:at9ciis-533<3=%fgggfffffgggffffffffffffffffffffffffffff",
"kh!*iahx:r6rr8ik-833G*%&fggggfgggggfffffffffffffffffffffffffffff",
"btX uuaz:tukiiid;e37X %=fgggggggggffffffffffffffffffffffffffffff",
"calktisl,rua6>6a;73473*&gggggggffffffggffffgfggfffffffffffffffff",
"B9taasth-38  6il-9734<;-ggggggffffffgggfggfggggfffffffffggffffgf",
"N4aatish->    dk;83333-=ggggggfffggfggggggggggfffffffffgggfggfgg",
"n8e98hth*>    ik;837<<;=gggggffffggggggggggggggfffffggfggggggggg",
"b38u8ata-;a  k9k;878<3;=gggggfffffgggggggggggggffffggggggggggggg",
"n:4tt99y%:5  >6j;83533-=ggggggffffggfgfgggfggfffggfggggggggggggg",
"x-;7398t&:3  66j-333<<-=ggggggfffffffffggfffffffgggggggggggggggg",
"v<<<344t#33ij63d-33,;<-&AAggggffffffffffffffffffggggggggggggggff",
"h*mX,;-7+3333639*::;M+%=AAggggfffffffffffffffffffgggggggggggggfg",
"p&X.*-*7+;::::-9*;=%X.%&AAAgggfffffffffffffffffffggfgggggggggggg",
"e#----*4X******8%%%%%%%=AAAgggffffffffffffffffffffffgggggggggggg",
"e@@@++@$+XX+O+O@O++OXo+=AAAgggffffffffffffffffffffgggggggggggggg",
"fffffggfffffgffffggAAAAAAAAfggffffffffffffffffffffgggggggggggggg",
"ffffffgfffffgffffggAAAAAgAAfggffffffffffffffffffggfggggggggggggg",
"ffffffgffffggfffffgAAAAAgAAfgggfffffffffffffffffggggggggggggggff",
"ffffffggfffgffffffgAAAAAgggfgggffffffffffffffffffgggggggggggggff",
"ffffffggffggfffffffAAAAAAggfgggffffffffffffffffffggfgggggfggffff",
"ffffffggfggffffffffAAAAAAggfffffffffffffffffffffffffffggffffffff",
"fffffffgggfffffffffAAAAAAggfggggfffffggfggfgffffffffffffffffffff",
"fffffffgggfffffffffAAAAAAggfggggfffffgggggggffggfffffffffffffAAf",
"fffffffggffffffffffAAAgAAgggggggfffffgggggggggggfggfgfffffffAAAA",
"ffffffffggfffffffffgAAggggggggggffffffggggggggggggggggfffAAfAAAA",
"ffffffffgggffffffffgggggAAggggAgAAfffgggggggggffgggfggfffAAAAAAA",
"ffffffffgggfffffffffgggAAAgAAgAAAAffggggggggggffggffffffffAAAAAA",
"gfgffffffggfffffffffAAgAAAAAAAAAAfffggggggffggffffffffffffAAgAgA",
"gggfggfffgggfffffAAfAAAAAAAAAAAAAAffffgggfffffffffffffffgfffgggA",
"ggggggffffggffffAAAfAAAAAAAAAAAAAAfffgggggffffffffffffffgffgggAA",
"ggggggffffgggAAfAAAAAAAAAAAAAgAAfffffggfggfffgfggffgffgggggggAAA",
"gggggfffffgggAAAAAAAAAAAAAAAgggfffffffffffffgggggfggggggggAAgAAA",
"gggggffAAfgggAAAAAAAAAAAAAAggggfffffffffffffggggggggggggggAAAAAA",
"ggggffAAAfAAgAAAAAAAAAAAAggAgAAffffffffffffffggggggggggggggAAAAA",
"gggAAfAAAAAAAAAAAAAAAAAAAAgAAAAffffffffffffffAAggggAgAAggggAAgAg",
"fggAAAAAAAAAAAAAAAAAAAAAAAAAAAAAAffffffAAfffAAAgAAgAAAAggggggggg",
"ffffAAAAAAAAAAAAAAAAAAAAAAAAAAAAAfAAfAAAAAAfAAAAAAAAAAgggggggggg",
"ffffAAfAfAAAAAAAAAAAAAAAAAAAAAAAAAAAAAAAAAAAAAAAAAAAAAAggggggggg",
"fffffffffAAAAAAAAAAAAAAAAAAAAAAAAAAAAAAAAgAAAAAAAffAAAAfgffggggg",
"fffffffffAAAAAAAAAAAAAAAAAAAAAAAAAAAAAAAAgAAgAfffffAAffffffggAAg",
"ffffffffffAAAAAAAAAAAAAAAAAAAAAAgAAAgAAgggAAgfffffffffffffAAgAAA",
"ffffffffffAAfAfAAAAAAAAAAAAAAAAAgAAggggggggggffffffffffffffAAAAA",
"fffffffffffffffAAAAAAAAAAAAAAAAgggggggAAgAggggfffffffffffffAAAAA",
"ffffAAffffAfAAfffAAAAAAAAAAAAAAAggggggAAAAAgggfggfggfggffAAAAAAA",
"fAAAAAfAAAAAAAfffAAAAAAAAAAAAAAAggggggAAAAAggAfAggggfgAAAAAAAAAA",
"AAAAAAAAAAAAAffAfAAAAAAAAAAAAAAggggAAgAAAAAAAAAAgggggggAAAAAAAAA"
};
