/* XPM */
static char *_7adf360d7374800ab120b2114660fbfe1BMUVjgxj9PXrvP[] = {
/* columns rows colors chars-per-pixel */
"32 32 249 2 ",
"   c #C94E3E",
".  c #CD4E40",
"X  c #CB4E3F",
"o  c #BD503B",
"O  c #A95434",
"+  c #B75139",
"@  c #B65038",
"#  c #D04740",
"$  c #E54247",
"%  c #EC4049",
"&  c #E84148",
"*  c #E94148",
"=  c #DF4645",
"-  c #CF4D41",
";  c #B45238",
":  c #AD5335",
">  c #B95139",
",  c #B05336",
"<  c #A65433",
"1  c #A55433",
"2  c #B15033",
"3  c #CB4D3E",
"4  c #CC4E40",
"5  c #CA4E3F",
"6  c #C84F3E",
"7  c #B55238",
"8  c #B05236",
"9  c #AE5236",
"0  c #CF4B40",
"q  c #D54A42",
"w  c #D44B42",
"e  c #C64F3E",
"r  c #C74F3E",
"t  c #B15237",
"y  c #A75433",
"u  c #C14F3B",
"i  c #B35237",
"p  c #AF5336",
"a  c #C3503D",
"s  c #BC513A",
"d  c #BB513A",
"f  c #CE4E40",
"g  c #C44F3D",
"h  c #C0503C",
"j  c #B65238",
"k  c #AA5333",
"l  c #AC5335",
"z  c #C1503C",
"x  c #B25237",
"c  c #BF503B",
"v  c #A95333",
"b  c #BA513A",
"n  c #C4503D",
"m  c #D34B42",
"M  c #CF4D40",
"N  c #D14C41",
"B  c #BF4E3B",
"V  c #BB4E36",
"C  c #AA5334",
"Z  c #BC4E3A",
"A  c #D14940",
"S  c #E04545",
"D  c #E74247",
"F  c #D94543",
"G  c #AB5235",
"H  c #D24B3E",
"J  c #A95334",
"K  c #B55038",
"L  c #AC5235",
"P  c #B74F38",
"I  c #CC493F",
"U  c #E54147",
"Y  c #ED3F49",
"T  c #EE3F49",
"R  c #AB5334",
"E  c #AB5335",
"W  c #C94F3F",
"Q  c #D44A3E",
"!  c #A85334",
"~  c #C44B3C",
"^  c #E14245",
"/  c #D24741",
"(  c #E84147",
")  c #EC3F49",
"_  c #EA4048",
"`  c #DA4543",
"'  c #B85139",
"]  c #BE503B",
"[  c #AE5336",
"{  c #CE4B3C",
"}  c #D74642",
"|  c #E14345",
" . c #C54C3D",
".. c #BC513B",
"X. c #B84E35",
"o. c #AE5234",
"O. c #C04C3B",
"+. c #D04840",
"@. c #CD483F",
"#. c #E64147",
"$. c #D84643",
"%. c #BF4F3B",
"&. c #C54F3D",
"*. c #A85434",
"=. c #B95038",
"-. c #DB4544",
";. c #B54F34",
":. c #BA5038",
">. c #C14C3B",
",. c #EB4048",
"<. c #CE4D40",
"1. c #CA4C3B",
"2. c #BE503A",
"3. c #A75434",
"4. c #E34346",
"5. c #DF4545",
"6. c #DE4645",
"7. c #D24C41",
"8. c #CA4F3F",
"9. c #BF4F3A",
"0. c #C14E3C",
"q. c #B94F39",
"w. c #CD4C40",
"e. c #D54B42",
"r. c #CC4B3C",
"t. c #B25136",
"y. c #D84843",
"u. c #DD4744",
"i. c #E44346",
"p. c #C44D39",
"a. c #DA4743",
"s. c #E14446",
"d. c #DC4744",
"f. c #D34A3E",
"g. c #D34841",
"h. c #DB4744",
"j. c #CA4B3E",
"k. c #C34F3D",
"l. c #C04D38",
"z. c #EB4049",
"x. c #D94943",
"c. c #CB493E",
"v. c #C2503C",
"b. c #C84A3E",
"n. c #EA4148",
"m. c #E34446",
"M. c #D94843",
"N. c #B64F38",
"B. c #DC4444",
"V. c #E14142",
"C. c #BA5039",
"Z. c #D64A42",
"A. c #D74943",
"S. c #C94A3E",
"D. c #E04345",
"F. c #F03D46",
"G. c #AD5235",
"H. c #D74842",
"J. c #E24446",
"K. c #AF5236",
"L. c #E84044",
"P. c #CE4D3F",
"I. c #AA5335",
"U. c #B45137",
"Y. c #B25037",
"T. c #D64642",
"R. c #D54642",
"E. c #D54641",
"W. c #D44A42",
"Q. c #E94044",
"!. c #CF4D3F",
"~. c #B15137",
"^. c #DF4345",
"/. c #D84943",
"(. c #C94B3E",
"). c #AE5235",
"_. c #CF4C40",
"`. c #DA4744",
"'. c #BC4F3A",
"]. c #D44641",
"[. c #D34741",
"{. c #D74843",
"}. c #E64247",
"|. c #C64E3D",
" X c #D04D41",
".X c #D04C41",
"XX c #E54347",
"oX c #EC3F45",
"OX c #C24F3B",
"+X c #D24A41",
"@X c #DE4444",
"#X c #E94048",
"$X c #EB3F48",
"%X c #BA4E39",
"&X c #C24C3C",
"*X c #BE4D3A",
"=X c #D64A43",
"-X c #DA4740",
";X c #AB5333",
":X c #DD4444",
">X c #DE4344",
",X c #E74147",
"<X c #D34A42",
"1X c #D34B3E",
"2X c #C54B3D",
"3X c #E84248",
"4X c #B84F38",
"5X c #D14740",
"6X c #B75038",
"7X c #C54E3D",
"8X c #DD4641",
"9X c #B05136",
"0X c #BC503A",
"qX c #A45433",
"wX c #D54742",
"eX c #EE3E46",
"rX c #AF5135",
"tX c #B45038",
"yX c #C34B3C",
"uX c #B15136",
"iX c #B54F38",
"pX c #C74A3D",
"aX c #BC4D3A",
"sX c #B65138",
"dX c #B55138",
"fX c #EF3D46",
"gX c #D94441",
"hX c #E64146",
"jX c #E84046",
"kX c #DB4442",
"lX c #E54146",
"zX c #EA4047",
"xX c #D84542",
"cX c #B84E38",
"vX c #CF483F",
"bX c #EE3E48",
"nX c #EE3F48",
"mX c #E34345",
"MX c #D04C40",
"NX c #DA4843",
"BX c #EB4047",
"VX c #DE4544",
"CX c #D94642",
"ZX c #CA4E3E",
"AX c #E04444",
"SX c #EB3F47",
"DX c #ED3F48",
"FX c #F03D45",
"GX c white",
/* pixels */
"  . . . X o O + @ # $ % & * = - . . . . . X ; : > > , < < < 1 2 ",
"3 4 5 6 6 : 1 7 8 9 0 = q w - . . e r . . 5 t < y y < < < < 1 2 ",
"u i p p a s : p d p 6 f . X g h h : j 4 . e 8 < < < < < < < 1 2 ",
"k < 1 < l > z h o x 6 . . r l , ; < d . c 8 < < < < < < < < 1 2 ",
"v < < < < < l b n e m M - N B : b O t z l < < < < < < < < y O V ",
"v < < < 1 < 1 C Z A & S S D F G j i l i < < < < < < < y t d s H ",
"v < 1 J K L P I U U Y Y Y T F R E b ; ; < < < < < < l s g X W Q ",
"v ! K ~ ^ / ( ) Y Y Y ) _ ` Z ! < ' ] [ < < < < < < O z 6 6 4 { ",
"v G } U ) ) Y Y Y Y Y |  .+ y < p g ' y < < < < < < < : [ t ..X.",
"o.< O.+.@.#.Y Y Y Y ) $.%.W s ] &.> *.< < < < < < < < < 1 < < 2 ",
"=.< y y P #.Y Y Y Y % -.5 . X s t C ' ; : i d 8 < < 1 O : y *.;.",
":.< < 1 >.,.Y Y Y Y Y S <.. a O i s 5 6 6 W 5 t 1 *.: b &.d s 1.",
"2.3.< < 9 # +.4.4.5.6.7.. . s y x 6 6 5 4 8.e i : > 6 W . . 4 Q ",
"9.p O p < ! : 0.q.w.e.- m f e C *.8 [ > > p l [ e W . . . . 8.r.",
"t.d p ; < < C b t y._ u.i.w e C < < < y y < < O z W 4 . . . r p.",
"v ; s j < y J t ] a.T s.* d.e C < < < < < < < < p d X . . . 4 f.",
"v *.d > 1 E ; *.] 6.Y D * g.a C < < < < < < < *.x e . . . . . f.",
"v 1 l ' y i 7 1 8 h.T * = j.e i < < < < < < < l k.W . . . f r l.",
"v < E z x d E < 3.+.T z.x.] z ; < < < < < < < < > c &.5 c h t 2 ",
"v < *.o g x < < 1 c.T Y d.s ] d *.< i ' b ; C l *.y E t *.*.9 X.",
"v < < j v.O < < 1 b.n.m.M.r 4 r C < > 4 . W v.k.> ' t < 9 N.B.V.",
"v < 1 l &.; < < 1 C.Z.q u.m m A.S.E b 4 . . W s 6 c s *.b.D.z.F.",
"=.t E O c o < 1 G.@ H.J.,.D D % } K.a . e d ] E x O *.y P -.S L.",
"P.r k.I., &.U.Y.T.R.U Y Y Y ,.,.E.E ' W h O E E O O *.x + ] W.Q.",
"!.. h 9 ~.r M.^._ ,.) Y Y & /.(.).< p x x l c &.s h h W _.`.m.F.",
"M <.'.].[.{.J.T Y Y Y Y }.u.h.B 1 1 1 1 1 O |. X4 - N - .XXX_ oX",
"OX+X@X#X$X) ) Y Y Y Y Y * D ) B.%X9 ).&X*XY.` = d.S XXA.. Z.=X-X",
";X~.} ].:XY Y Y Y Y Y Y Y Y Y Y D.^.>X,.,X:X,.) U ( z.<X6 8.4 1X",
"v < G J 2X) T Y Y Y Y Y Y Y Y ) % Y % n.S 3X-.b.4XI 5X6Xt 7X/.8X",
"v 1 1 1 9X} ].@XY Y Y Y Y Y Y }.S 5.x.M.m /.0X< 1 C ! qXG wX* eX",
"rXtXyXuXiX~ pXaX` Y Y Y Y Y Y m.N f 7.XXi.q &.+ sX7 dX6X&X| Y fX",
"gXhXjXkXlXzXxXcXvXbXnXnXnXnXbXmXMXZ.NXBXbXi.VXCXMXZX3 AXSXbXDXFX"
};
