/* XPM */
static char *b9d55bf70f8c40c9dd9fe32ab70326aeTW3DqaQoMfehLHIK[] = {
/* columns rows colors chars-per-pixel */
"32 32 97 2 ",
"   c #872727",
".  c #862727",
"X  c #882828",
"o  c #872828",
"O  c #852626",
"+  c #862626",
"@  c #933030",
"#  c #943030",
"$  c #902D2D",
"%  c #8A2929",
"&  c #8D2C2C",
"*  c #983434",
"=  c #9E3838",
"-  c #9B3636",
";  c #963131",
":  c #932F2F",
">  c #912E2E",
",  c #8B2A2A",
"<  c #902E2E",
"1  c #AC4040",
"2  c #AD4040",
"3  c #A23939",
"4  c #8F2D2D",
"5  c #973333",
"6  c #BA4D4D",
"7  c #CD5A5A",
"8  c #CC5A5A",
"9  c #C35353",
"0  c #B34646",
"q  c #AB3F3F",
"w  c #AB4040",
"e  c #A33A3A",
"r  c #B94949",
"t  c #BA4949",
"y  c #BA4A4A",
"u  c #922F2F",
"i  c #9A3535",
"p  c #C45353",
"a  c #DB6464",
"s  c #DA6363",
"d  c #D15C5C",
"f  c #C14F4F",
"g  c #B84848",
"h  c #B94848",
"j  c #AD4141",
"k  c #892929",
"l  c #9D3636",
"z  c #B04343",
"x  c #953131",
"c  c #B44646",
"v  c #C45252",
"b  c #C45151",
"n  c #C04F4F",
"m  c #BB4A4A",
"M  c #B64747",
"N  c #8F2C2C",
"B  c #A23A3A",
"V  c #922E2E",
"C  c #892828",
"Z  c #8C2B2B",
"A  c #9D3737",
"S  c #9D3838",
"D  c #9B3535",
"F  c #963232",
"G  c #B94C4C",
"H  c #CC5959",
"J  c #CB5959",
"K  c #8E2C2C",
"L  c #E26A6A",
"P  c #DC6565",
"I  c #D86262",
"U  c #D96262",
"Y  c #DD6565",
"T  c #CC5858",
"R  c #C25050",
"E  c #C35151",
"W  c #BC4B4B",
"Q  c #B74747",
"!  c #B54646",
"~  c #AF4242",
"^  c #B64646",
"/  c #C24F4F",
"(  c #9C3535",
")  c #B04242",
"_  c #A13939",
"`  c #9C3636",
"'  c #BB4E4E",
"]  c #C65454",
"[  c #B44747",
"{  c #D25C5C",
"}  c #C55454",
"|  c #D35D5D",
" . c #B54747",
".. c #D25D5D",
"X. c #BB4B4B",
"o. c #B74848",
"O. c white",
/* pixels */
"          . .   X o . O O + .             . .   X X X X   . .   ",
"@ @ @ @ @ @ # $ % & * = = - ; : : @ @ @ @ @ # > , o   % < # @ @ ",
"1 1 1 1 1 1 2 3 4 5 6 7 8 9 0 q w 1 1 1 1 1 2 e > . . $ e 2 1 1 ",
"r r r r r t y 1 u i p a s d f g h r r r r t y j # k 4 l z t t r ",
"h h h h h r t 1 u x c v b n m g h h h h h r t 1 : 4 e z M r r h ",
"h h h h h r t 1 : u 1 h g g g h h h h h h r t 1 : : j m t h h h ",
"r r r r r t y 2 : : 1 t r h r r r r r r r t y 2 : : j m t r r r ",
"1 1 w q q 1 1 3 N N 3 2 1 1 1 1 1 1 w q q 1 1 3 4 4 B 2 1 1 1 1 ",
"# : u > > V V N X C 4 : : u u : @ : u > > V V N k k $ : : u u u ",
". Z 5 A A A A A = - x u u : : 4 k Z 5 S A A A D F : : u u u u u ",
"O 5 G H H J J H 8 p 0 q q 1 2 3 K 5 6 7 8 J H p c 1 w 1 1 1 1 1 ",
"O = 8 L P I I U U d f r r t y 1 u i p s s U U d f g h r t t r r ",
"O = 8 Y T R R E E f W r r r t 1 u x c v b E E n m g h r t t r h ",
"+ - p d n Q Q g g ! ~ ~ ^ t t 1 : u 1 h g g g g g r r ^ ~ ~ ^ r ",
". F c / W g g r r ~ ( ( ) m m 2 : : 1 t r h h h r t t ) ( ( ) y ",
"+ 4 _ q q q 1 1 j B K K 3 j j B 4 4 B 2 1 1 1 1 1 j j 3 K 4 B j ",
"+ C K > V V u : # $ X X 4 : : 4 k k 4 : : u u : @ # : 4 k k 4 : ",
"= = A A A i x 4 k Z * ` ; u u : @ @ : u u : : 4 k k 4 : # @ : u ",
"H H J J H p c _ K 5 ' ] [ q q 1 1 1 1 1 1 1 2 B 4 4 B 2 j 1 1 1 ",
"I I I U U { R q V - } | R g h r r r r r r t m j : : 2 y t r r r ",
"E E E E E f W 1 u x [ R W g h h h h h h h t m j : : 1 t r h h h ",
"g g g g g h t 1 : u 1 r r h h h h h h r r M z e 4 : 1 t r h h h ",
"h h h h h r t 2 : : 1 t t r r r r r r t t z l 4 k # j y t r r r ",
"1 1 1 1 1 1 2 B 4 4 3 1 1 q 1 1 1 1 1 1 1 3 4 O + $ e 2 1 1 1 1 ",
"# # # @ : : : $ k k N V V V u : @ @ : u u N k . . % $ : : u u u ",
"    . k 4 : : : : F D A A i x 4 k k 4 x D - F @ @ @ : u u u u u ",
"o . + 4 e 2 1 w 1 c p 8 8 p c 3 N N 3  .} p [ 1 1 1 1 1 1 1 1 1 ",
"X % $ l z t t h g f d s s { R 1 u u 1 R ..{ f g h r r r r r r r ",
"  < e z M r r h g m n E E f W 1 u u 1 W f f X.g h h h h h h h h ",
". # 2 t r g g g g g Q Q Q g r 1 u u 1 r g Q g g g g g g g g g g ",
". @ 1 t r g g g g g g o.o.g r 1 u u 1 r g g g g g g g g g g g g ",
"  @ 1 r h g g g g g g g g h r 1 u u 1 r h g g g g g g g g g g g "
};
